<?xml version="1.0" standalone="no"?>
<!DOCTYPE svg PUBLIC "-//W3C//DTD SVG 1.1//EN" "http://www.w3.org/Graphics/SVG/1.1/DTD/svg11.dtd" >
<svg>
<metadata>
Created by FontForge 20090622 at Fri Nov 11 12:27:58 2016
 By deploy user
Copyright &#194;&#169; 1987, 1991, 1994, 1998, 2002 Adobe Systems Incorporated.  All Rights Reserved. &#194;&#169; 1981, 1998, 2002 Heidelberger Druckmaschinen AG. All rights reserved.
</metadata>
<defs>
<font id="UniversLTStd-CnObl" horiz-adv-x="500" >
  <font-face 
    font-family="Univers LT Std 57 Cn"
    font-weight="400"
    font-style="italic"
    font-stretch="condensed"
    units-per-em="1000"
    panose-1="2 11 5 6 2 2 2 5 2 4"
    ascent="724"
    descent="-276"
    x-height="505"
    cap-height="722"
    bbox="-172 -270 1064 989"
    underline-thickness="50"
    underline-position="-50"
    slope="-12"
    unicode-range="U+0020-U+FB02"
  />
<missing-glyph horiz-adv-x="648" 
d="M148 0v700h500v-700h-500zM398 395l170 255h-340zM428 350l170 -255v510zM228 50h340l-170 255zM198 605v-510l170 255z" />
    <glyph glyph-name="fi" unicode="fi" 
d="M530 505l-107 -505h-82l107 505h82zM471 634l18 88h92l-18 -88h-92zM116 505h78l21 98q26 122 171 122q22 0 38 -3l-12 -59q-102 7 -117 -72l-19 -86h102l-13 -62h-102l-94 -443h-82l94 443h-78z" />
    <glyph glyph-name="fl" unicode="fl" 
d="M116 505h78l21 98q26 122 171 122q22 0 38 -3l-12 -59q-102 7 -117 -72l-19 -86h102l-13 -62h-102l-94 -443h-82l94 443h-78zM583 722l-153 -722h-82l153 722h82z" />
    <glyph glyph-name=".notdef" horiz-adv-x="648" 
d="M148 0v700h500v-700h-500zM398 395l170 255h-340zM428 350l170 -255v510zM228 50h340l-170 255zM198 605v-510l170 255z" />
    <glyph glyph-name=".null" horiz-adv-x="0" 
 />
    <glyph glyph-name="nonmarkingreturn" horiz-adv-x="333" 
 />
    <glyph glyph-name="space" unicode=" " horiz-adv-x="222" 
 />
    <glyph glyph-name="exclam" unicode="!" horiz-adv-x="333" 
d="M236 167h-71l100 555h109zM236 104l-22 -104h-94l22 104h94z" />
    <glyph glyph-name="quotedbl" unicode="&#x22;" horiz-adv-x="250" 
d="M144 515l44 207h60l-44 -207h-60zM264 515l44 207h60l-44 -207h-60z" />
    <glyph glyph-name="numbersign" unicode="#" horiz-adv-x="444" 
d="M23 0l123 234h-99l29 56h99l59 114h-101l29 56h100l123 234h51l-123 -234h82l121 234h52l-122 -234h102l-29 -56h-102l-59 -114h103l-29 -56h-103l-122 -234h-51l122 234h-80l-124 -234h-51zM227 290h80l59 114h-81z" />
    <glyph glyph-name="dollar" unicode="$" horiz-adv-x="444" 
d="M306 295l-49 -230q47 5 81.5 34t44.5 75q8 40 -12.5 67t-64.5 54zM288 416l45 209q-39 -5 -67.5 -31t-37.5 -67q-15 -67 60 -111zM240 -15l-13 -59h-43l13 59q-50 0 -85 15.5t-49.5 40t-21 51t-3.5 54t6 43t6 22.5h94q-13 -60 3 -101t67 -45l53 252q-38 21 -58.5 34.5
t-45.5 38.5t-32.5 56t1.5 71q17 82 79.5 135t138.5 53l12 59h43l-12 -59q98 0 135.5 -52.5t16.5 -151.5h-101q14 58 -1 89.5t-67 34.5l-49 -231q79 -42 103 -63q68 -58 48 -154q-21 -95 -91.5 -143.5t-146.5 -48.5z" />
    <glyph glyph-name="percent" unicode="%" horiz-adv-x="778" 
d="M355 737q35 0 57 -11.5t31.5 -28.5t11 -45t-2 -51t-10.5 -57q-10 -44 -19 -71.5t-27.5 -58t-49 -45t-73.5 -14.5q-29 0 -49.5 7t-31.5 21t-16 30t-3.5 40t4.5 43.5t9 47.5q7 34 13.5 57t19.5 51t30 45t44 28.5t62 11.5zM343 681q-40 0 -55.5 -28t-31.5 -107
q-18 -68 -14.5 -101.5t43.5 -33.5t55.5 28t31.5 107q18 68 14.5 101.5t-43.5 33.5zM657 367q35 0 57 -11.5t31.5 -28.5t11 -45t-2 -51t-10.5 -57q-9 -44 -18 -71.5t-27.5 -58t-49 -45t-73.5 -14.5q-29 0 -49.5 7t-31.5 21.5t-16 29.5t-4 39.5t4 43.5t9 48q7 34 13.5 57
t19.5 51t30 45t44 28.5t62 11.5zM645 311q-17 0 -29.5 -6.5t-20 -14t-15 -28.5t-11 -36l-11.5 -50q-18 -68 -14 -101.5t44 -33.5q17 0 29.5 6t20 14t15 29t11 36t10.5 50l9 42t5.5 33t0.5 27.5t-6.5 17.5t-14 12t-23.5 3zM752 758l-512 -794h-63l510 794h65z" />
    <glyph glyph-name="ampersand" unicode="&#x26;" horiz-adv-x="667" 
d="M471 134l-130 225q-35 -21 -53 -33.5t-42 -33t-37.5 -44.5t-19.5 -54q-12 -58 21.5 -95t98.5 -37q97 0 162 72zM389 456q27 20 44.5 35.5t37.5 42t26 52.5q8 38 -8.5 59.5t-53.5 21.5q-35 0 -62.5 -22.5t-34.5 -58.5q-5 -22 2.5 -44t26 -50t22.5 -36zM550 0l-42 74
q-51 -49 -102.5 -69t-117.5 -20q-103 0 -159 53.5t-34 153.5q9 43 26.5 75.5t48.5 59t57 42.5t75 43q-72 109 -57 182q16 73 75 108t134 35q74 0 113.5 -36.5t24.5 -109.5q-20 -90 -162 -192l103 -179q12 23 21.5 54t15 56l20.5 95h82q-41 -195 -101 -270l83 -155h-104z" />
    <glyph glyph-name="quotesingle" unicode="'" horiz-adv-x="250" 
d="M204 515l44 207h60l-44 -207h-60z" />
    <glyph glyph-name="parenleft" unicode="(" horiz-adv-x="278" 
d="M182 -118h-58l-9 81.5t-9 92t-4 79.5t2 93.5t13 85.5q9 44 23.5 87.5t38.5 96l38 81t49.5 94t44.5 83.5h61q-124 -266 -162 -446q-34 -158 -28 -428z" />
    <glyph glyph-name="parenright" unicode=")" horiz-adv-x="278" 
d="M104 -118h-58q119 265 154 428q39 183 28 446h61q1 -15 8.5 -83t9 -94.5t3.5 -80t-2 -97t-13 -87.5q-9 -43 -23 -85.5t-38.5 -94l-38 -79t-48 -92z" />
    <glyph glyph-name="asterisk" unicode="*" horiz-adv-x="444" 
d="M523 522l-153 15l64 -130l-65 -32l-37 144l-97 -144l-51 32l118 130l-159 -15l14 66l153 -12l-63 127l67 34l34 -142l96 142l51 -34l-117 -127l159 12z" />
    <glyph glyph-name="plus" unicode="+" 
d="M279 284l47 221h62l-47 -221h176l-13 -62h-176l-47 -222h-62l47 222h-176l13 62h176z" />
    <glyph glyph-name="comma" unicode="," horiz-adv-x="222" 
d="M7 -127l101 231h103l-140 -231h-64z" />
    <glyph glyph-name="hyphen" unicode="-" horiz-adv-x="333" 
d="M106 234l16 77h220l-16 -77h-220z" />
    <glyph glyph-name="period" unicode="." horiz-adv-x="222" 
d="M180 104l-22 -104h-94l22 104h94z" />
    <glyph glyph-name="slash" unicode="/" horiz-adv-x="278" 
d="M431 722l-408 -818h-67l408 818h67z" />
    <glyph glyph-name="zero" unicode="0" horiz-adv-x="444" 
d="M372 705q45 0 76 -13t45 -38.5t19.5 -55.5t1 -73t-11.5 -82.5t-18 -90.5q-1 -5 -2 -8q-11 -52 -17 -78t-19 -71.5t-24.5 -69t-32 -55t-43 -47t-55.5 -27t-72 -11.5q-126 0 -140 112q-9 66 25 228q1 3 4 19q35 163 62 223q56 124 173 137q14 1 29 1zM355 628
q-17 0 -32 -4.5t-27 -17t-21.5 -24t-19 -36l-16 -42t-15 -53l-13.5 -58l-15 -67.5q-28 -133 -28 -177q1 -87 67 -87q77 0 116 119q11 35 35 145q38 177 34 231q-6 70 -65 71z" />
    <glyph glyph-name="one" unicode="1" horiz-adv-x="444" 
d="M437 694l-148 -694h-92l126 593l-119 -70l19 88q37 15 135 83h79z" />
    <glyph glyph-name="two" unicode="2" horiz-adv-x="444" 
d="M416 0h-373l17 80l114.5 122.5l91.5 97l61.5 68t48 61.5t25.5 49.5t19 57.5q9 43 -7.5 67.5t-59.5 24.5q-83 0 -105 -113h-94q13 88 67.5 139t141.5 51q94 0 130 -44.5t16 -137.5q-8 -38 -22.5 -71t-31 -59t-49.5 -62.5t-61.5 -64.5l-84.5 -83.5l-102 -102.5h275z" />
    <glyph glyph-name="three" unicode="3" horiz-adv-x="444" 
d="M238 323l17 81q64 -6 108 22.5t58 92.5q11 50 -6.5 79.5t-66.5 29.5q-89 0 -111 -113h-92q15 91 70 140.5t150 49.5q90 0 129 -45.5t21 -134.5q-8 -37 -25.5 -66t-34 -44.5t-43 -27.5t-37 -15t-32.5 -8v-2q77 -11 100 -53.5t6 -123.5q-41 -200 -248 -200q-185 0 -136 200
q1 4 1 6h92q-6 -35 -7.5 -64t17 -47t57.5 -18q106 0 133 125q17 81 -9.5 108.5t-110.5 27.5z" />
    <glyph glyph-name="four" unicode="4" horiz-adv-x="444" 
d="M158 249h152l77 361h-2zM293 169h-232l17 80l291 445h122l-95 -445h82l-17 -80h-82l-36 -169h-86z" />
    <glyph glyph-name="five" unicode="5" horiz-adv-x="444" 
d="M207 694h324l-17 -80h-232l-43 -202l1 -2q16 22 51 37t70 15q74 0 97.5 -57t-2.5 -177q-10 -51 -23 -86.5t-39 -75t-70.5 -60.5t-106.5 -21q-68 0 -103 24t-37.5 62t5.5 86h92q-9 -45 4 -75t56 -30q31 0 54 13.5t36.5 39t21 47t14.5 53.5l9.5 49t6 42t-0.5 37.5t-10 27
t-21 19t-35 5.5q-72 0 -102 -81h-83z" />
    <glyph glyph-name="six" unicode="6" horiz-adv-x="444" 
d="M178 225q-7 -31 -9 -55.5t1.5 -51t21 -41.5t49.5 -15q51 0 79.5 46.5t45.5 126.5q29 140 -64 140t-124 -150zM220 -15q-126 0 -140 112q-9 66 25 228q1 3 4 19q35 163 62 223q56 124 173 137q14 1 29 1q79 0 117 -45.5t19 -123.5h-92q8 40 -6.5 71t-52.5 31
q-55 0 -86 -54.5t-62 -196.5h2q52 65 127 65q165 0 116 -233q-22 -102 -81 -168t-154 -66z" />
    <glyph glyph-name="seven" unicode="7" horiz-adv-x="444" 
d="M161 614l17 80h359l-17 -80l-316 -614h-104l325 614h-264z" />
    <glyph glyph-name="eight" unicode="8" horiz-adv-x="444" 
d="M235 62q48 0 78.5 36.5t41.5 87.5q6 29 7.5 49.5t-2 44t-20.5 36t-48 12.5t-53.5 -12.5t-36 -36t-20.5 -44t-13 -49.5q-11 -51 3.5 -87.5t62.5 -36.5zM357 368v-1q125 -13 90 -180q-21 -95 -80 -148.5t-148 -53.5q-90 0 -126.5 53.5t-15.5 148.5q35 167 166 180v1
q-56 12 -77.5 56.5t-8.5 106.5q17 81 75 127.5t140 46.5t120 -46.5t21 -127.5q-13 -62 -53.5 -106.5t-102.5 -56.5zM309 408q46 0 74 38.5t39 87.5q9 43 -6.5 73.5t-57.5 30.5t-70.5 -30.5t-37.5 -73.5q-4 -27 -5 -55t15.5 -49.5t48.5 -21.5z" />
    <glyph glyph-name="nine" unicode="9" horiz-adv-x="444" 
d="M357 638q-94 0 -124 -144q-31 -144 62 -144t124 144q30 144 -62 144zM371 705q45 0 76 -13t45 -38.5t19.5 -55.5t1 -73t-11.5 -82.5t-18 -90.5q-1 -5 -2 -8q-11 -52 -17 -78t-19 -71.5t-24.5 -69t-32 -55t-43 -47t-55.5 -27t-72 -11.5q-78 0 -115 49.5t-18 131.5h92
q-9 -43 3.5 -73.5t53.5 -30.5q26 0 46.5 12.5t35 32t28 58t22.5 75t22 98.5h-2q-43 -65 -133 -65q-16 0 -30.5 3t-32 11.5t-29.5 23.5t-21.5 39.5t-8 59t9.5 82.5q23 109 87.5 161t142.5 52z" />
    <glyph glyph-name="colon" unicode=":" horiz-adv-x="222" 
d="M265 505l-22 -104h-94l22 104h94zM180 104l-22 -104h-94l22 104h94z" />
    <glyph glyph-name="semicolon" unicode=";" horiz-adv-x="222" 
d="M7 -127l101 231h103l-140 -231h-64zM265 505l-22 -104h-94l22 104h94z" />
    <glyph glyph-name="less" unicode="&#x3c;" 
d="M174 253l298 -193l-16 -73l-367 234l14 64l465 230l-15 -73z" />
    <glyph glyph-name="equal" unicode="=" 
d="M539 384l-14 -62h-414l14 62h414zM497 187l-13 -62h-414l13 62h414z" />
    <glyph glyph-name="greater" unicode="&#x3e;" 
d="M54 60l380 193l-299 189l15 73l369 -230l-14 -64l-467 -234z" />
    <glyph glyph-name="question" unicode="?" horiz-adv-x="444" 
d="M299 183h-82l24 114q5 24 23 49t41 48.5l46 49t42.5 59t27.5 69.5q8 38 -5 68t-50 30q-76 0 -103 -139h-94q35 206 218 206q76 0 110 -45t17 -122q-12 -56 -43 -105t-61.5 -76t-58 -58t-32.5 -55zM288 104l-22 -104h-94l22 104h94z" />
    <glyph glyph-name="at" unicode="@" horiz-adv-x="788" 
d="M545 536q-73 0 -141 -81t-84 -160q-8 -39 6.5 -67.5t50.5 -28.5q41 0 82.5 34.5t70 82t47.5 87.5t23 60q7 30 -8.5 51.5t-46.5 21.5zM656 529l24 47h69l-167 -305q-21 -36 -24 -52q-6 -26 24 -26q33 0 75.5 25t84.5 81.5t57 130.5q5 23 6 49.5t-10 64.5t-36 66.5
t-80 49.5t-133 21q-134 0 -247.5 -93.5t-141.5 -226.5t45.5 -226.5t207.5 -93.5q191 0 312 133h60q-67 -88 -169.5 -138.5t-214.5 -50.5q-156 0 -243.5 110t-53.5 267q33 156 167 265.5t290 109.5q69 0 123 -15t86 -38.5t53 -55t29 -60.5t10 -60t0.5 -48.5t-4.5 -29.5
q-14 -64 -42.5 -116.5t-62 -84.5t-71 -53.5t-68 -30t-55.5 -8.5q-29 0 -50.5 13.5t-25.5 39.5q-59 -51 -130 -51q-63 0 -92.5 44t-15.5 107q23 109 116 207.5t199 98.5q37 0 64 -17.5t35 -49.5z" />
    <glyph glyph-name="A" unicode="A" horiz-adv-x="611" 
d="M15 0l382 722h117l82 -722h-103l-15 172h-279l-91 -172h-93zM470 252l-35 385h-2l-194 -385h231z" />
    <glyph glyph-name="B" unicode="B" horiz-adv-x="611" 
d="M254 338l-55 -258h130q67 0 108 38t51 85q17 80 -19 107.5t-117 27.5h-98zM318 642l-47 -224h134q53 1 86 31t45 84q10 48 -11.5 78.5t-76.5 30.5h-130zM322 0h-232l153 722h235q68 0 98.5 -19t47.5 -55q19 -46 8 -96q-15 -71 -52.5 -113.5t-107.5 -57.5l-1 -5
q144 -17 111 -173q-43 -203 -260 -203z" />
    <glyph glyph-name="C" unicode="C" horiz-adv-x="556" 
d="M605 523h-95q19 78 1 105q-9 15 -32 23t-42 8q-34 0 -63.5 -12.5t-41.5 -24t-16 -19.5l-4 -5q-3 -5 -6 -9.5t-8.5 -17t-10 -26.5t-11.5 -38.5t-13 -53.5l-41 -193q-11 -52 -11.5 -88.5t5.5 -57.5t21.5 -33t31.5 -15.5t40 -3.5q11 0 23 2t31.5 11t35 24t31.5 44.5t25 69.5
h95q-44 -228 -252 -228q-22 0 -36 1t-36 4.5t-36.5 11.5t-31 21t-25 34.5t-14 50.5t-2.5 70.5t14 92.5l43 204q31 145 102 203.5t186 58.5q105 0 139 -53.5t4 -160.5z" />
    <glyph glyph-name="D" unicode="D" horiz-adv-x="611" 
d="M311 642l-119 -562h87q98 0 146 46t75 170l31 146q23 108 -1.5 154t-97.5 46h-121zM83 0l153 722h222q142 0 171 -110q9 -25 4 -81.5t-10 -91t-10 -55.5q-47 -220 -106 -291q-78 -93 -258 -93h-166z" />
    <glyph glyph-name="E" unicode="E" 
d="M459 0h-378l153 722h372l-17 -80h-280l-49 -232h260l-17 -80h-260l-53 -250h286z" />
    <glyph glyph-name="F" unicode="F" horiz-adv-x="444" 
d="M166 0h-92l153 722h358l-17 -80h-266l-49 -232h252l-17 -80h-252z" />
    <glyph glyph-name="G" unicode="G" horiz-adv-x="611" 
d="M635 529h-96q15 66 -8.5 98.5t-91.5 32.5q-13 0 -25.5 -1.5t-35.5 -10t-41.5 -24t-36.5 -46.5t-27 -74l-52 -244q-24 -113 -1 -155.5t92 -42.5q86 0 136 32l46 216h-133l17 80h225l-75 -351q-111 -54 -232 -54q-117 0 -158 65.5t-10 213.5l50 237q24 111 95 173.5
t183 62.5q120 0 164 -48.5t15 -159.5z" />
    <glyph glyph-name="H" unicode="H" horiz-adv-x="611" 
d="M179 0h-92l153 722h92l-66 -312h253l66 312h92l-153 -722h-92l70 330h-253z" />
    <glyph glyph-name="I" unicode="I" horiz-adv-x="278" 
d="M338 722l-153 -722h-92l153 722h92z" />
    <glyph glyph-name="J" unicode="J" 
d="M78 224h96l-4.5 -22t-4.5 -25t-3.5 -23.5t-1.5 -24l2.5 -21t6.5 -19.5t12 -14t19 -10t27 -3q35 0 60 13.5t40.5 41t23.5 52.5t17 65l103 488h92l-115 -543q-4 -19 -9 -35.5t-22 -48.5t-41 -53.5t-68 -39t-100 -17.5q-40 0 -81 16.5t-56 54.5q-20 49 7 168z" />
    <glyph glyph-name="K" unicode="K" horiz-adv-x="556" 
d="M173 0h-92l153 722h92l-67 -317h3l319 317h104l-331 -326l193 -396h-118l-173 377h-3z" />
    <glyph glyph-name="L" unicode="L" horiz-adv-x="444" 
d="M438 0h-357l153 722h92l-136 -642h265z" />
    <glyph glyph-name="M" unicode="M" horiz-adv-x="833" 
d="M304 642l-136 -642h-86l153 722h149l54 -606h2l312 606h152l-153 -722h-92l136 642h-2l-338 -642h-87l-62 642h-2z" />
    <glyph glyph-name="N" unicode="N" horiz-adv-x="667" 
d="M652 722h82l-153 -722h-126l-152 626h-2l-133 -626h-82l153 722h130l150 -618h2z" />
    <glyph glyph-name="O" unicode="O" horiz-adv-x="611" 
d="M302 -15q-117 0 -158 65.5t-10 213.5l50 237q24 111 95 173.5t183 62.5t156 -62.5t20 -173.5l-50 -237q-31 -148 -100 -213.5t-186 -65.5zM318 62q69 0 110 42.5t65 155.5l52 244q9 32 6 56t-7 41t-16 28t-21.5 17t-23.5 9.5t-21.5 4t-16.5 0.5q-13 0 -25.5 -1.5
t-35.5 -10t-41.5 -24t-36.5 -46.5t-27 -74l-52 -244q-24 -113 -1 -155.5t92 -42.5z" />
    <glyph glyph-name="P" unicode="P" horiz-adv-x="556" 
d="M321 642l-51 -244h101q19 0 37.5 4t44 15t45 37.5t27.5 66.5q9 33 3 55t-14.5 35t-23.5 20t-24.5 9t-17.5 2h-127zM185 0h-92l153 722h214q202 0 158 -206q-12 -58 -41.5 -99.5t-67 -61.5t-70.5 -28.5t-65 -8.5h-121z" />
    <glyph glyph-name="Q" unicode="Q" horiz-adv-x="611" 
d="M316 74q77 0 114 44.5t57 141.5l52 244q9 32 6 56t-7 41t-16 28t-21.5 17t-23.5 9.5t-21.5 4t-16.5 0.5q-13 0 -25.5 -1.5t-35.5 -10t-41.5 -24t-36.5 -46.5t-27 -74l-52 -244q-23 -90 -2.5 -138t97.5 -48zM128 264l50 237q24 111 95 173.5t183 62.5t156 -62.5t20 -173.5
l-50 -237q-11 -50 -43 -118t-62 -80l2 -2q52 16 66 16h72l-17 -80h-300q-27 0 -44 1t-42 6.5t-40.5 15t-31.5 29t-21.5 47t-4.5 69.5t12 96z" />
    <glyph glyph-name="R" unicode="R" horiz-adv-x="556" 
d="M307 642l-48 -230h138q47 0 80 34.5t43 85.5q9 45 -8 77.5t-66 32.5h-139zM350 332h-108l-71 -332h-92l153 722h249q89 0 120 -52t15 -128q-14 -65 -58 -109.5t-109 -55.5v-2q63 -10 79 -43.5t-1 -142.5q-21 -127 -15 -189h-96q-7 10 -4.5 45t6 57.5t11 66.5t10.5 71
q13 92 -89 92z" />
    <glyph glyph-name="S" unicode="S" horiz-adv-x="556" 
d="M107 215h91l-5 -21q-14 -68 14.5 -98.5t79.5 -30.5q128 0 154 117q7 32 -5.5 58.5t-37 45t-55.5 36t-61 37.5t-54 43.5t-34 59t-1 79.5q20 93 90 144.5t164 51.5q208 0 155 -211h-96q15 64 -3 97.5t-80 33.5q-47 0 -84.5 -26t-49.5 -80q-8 -37 10 -66.5t50 -48t69 -42
t68 -47.5t46 -65.5t4 -95.5q-23 -106 -95.5 -153.5t-171.5 -47.5q-44 0 -77 9t-52 23t-30 36t-14 41.5t-1.5 45t4.5 40.5t8 35z" />
    <glyph glyph-name="T" unicode="T" 
d="M167 722h472l-17 -80h-190l-136 -642h-92l136 642h-190z" />
    <glyph glyph-name="U" unicode="U" horiz-adv-x="611" 
d="M134 264l97 458h92l-98 -462q-24 -113 0 -155.5t93 -42.5q70 0 111.5 42.5t65.5 155.5l98 462h92l-97 -458q-31 -148 -100 -213.5t-186 -65.5t-158 65.5t-10 213.5z" />
    <glyph glyph-name="V" unicode="V" horiz-adv-x="556" 
d="M696 722l-364 -722h-110l-56 722h100l30 -635h2l304 635h94z" />
    <glyph glyph-name="W" unicode="W" horiz-adv-x="889" 
d="M182 0l-23 722h98l3 -626h2l278 626h119l-2 -626h2l280 626h96l-344 -722h-112l-4 626h-2l-279 -626h-112z" />
    <glyph glyph-name="X" unicode="X" horiz-adv-x="556" 
d="M407 374l137 -374h-111l-102 309l-225 -309h-100l287 374l-123 348h106l89 -280l209 280h101z" />
    <glyph glyph-name="Y" unicode="Y" 
d="M331 373l220 349h93l-292 -447l-58 -275h-92l58 275l-99 447h103z" />
    <glyph glyph-name="Z" unicode="Z" 
d="M620 722l-19 -92l-475 -550h366l-17 -80h-451l22 104l464 536v2h-338l17 80h431z" />
    <glyph glyph-name="bracketleft" unicode="[" horiz-adv-x="278" 
d="M214 -118h-169l186 874h166l-12 -56h-84l-162 -762h87z" />
    <glyph glyph-name="backslash" unicode="\" horiz-adv-x="278" 
d="M208 -15l-56 737h67l56 -737h-67z" />
    <glyph glyph-name="bracketright" unicode="]" horiz-adv-x="278" 
d="M183 -118h-169l12 56h87l162 762h-84l12 56h166z" />
    <glyph glyph-name="asciicircum" unicode="^" 
d="M365 694h60l67 -417h-75l-45 318h-2l-177 -318h-68z" />
    <glyph glyph-name="underscore" unicode="_" 
d="M473 -125h-500l11 50h500z" />
    <glyph glyph-name="grave" unicode="`" horiz-adv-x="278" 
d="M173 722h109l59 -141h-67z" />
    <glyph glyph-name="a" unicode="a" 
d="M383 251q-90 -1 -120 -10q-69 -20 -84 -91q-9 -40 5.5 -66.5t53.5 -26.5q114 0 145 194zM332 0l16 73h-2q-54 -83 -145 -83q-76 0 -97.5 43.5t-5.5 122.5q12 54 43 89t78 48.5t85.5 17t92.5 2.5q5 22 7.5 34.5t4.5 31.5t-1 30t-10 22.5t-21.5 16.5t-35.5 5q-41 0 -67 -25
t-31 -65h-89q20 82 70 117t133 35q91 0 119 -40.5t13 -111.5l-51 -243q-13 -57 -16 -120h-90z" />
    <glyph glyph-name="b" unicode="b" 
d="M219 273q-1 -6 -4 -19q-6 -28 -9 -43.5t-6.5 -42.5t-1 -43t8.5 -33.5t21 -26t37 -8.5q25 0 45 7.5t34.5 24.5t24 31.5t18 41.5t12 40t9.5 41q25 101 15 153t-72 52q-26 0 -47.5 -12.5t-34.5 -29.5t-24 -43.5t-16 -45t-10 -44.5zM174 60l-13 -60h-82l153 722h82l-57 -268
h3q56 61 124 61q39 0 66.5 -10.5t40.5 -32.5t19.5 -44.5t3.5 -58t-7.5 -61t-12.5 -64.5q-17 -80 -41.5 -133t-55 -78t-58 -34t-62.5 -9q-74 0 -101 70h-2z" />
    <glyph glyph-name="c" unicode="c" 
d="M494 343h-85q14 56 -2.5 80.5t-45.5 24.5q-52 0 -86.5 -35.5t-54.5 -132.5q-28 -123 -16 -173t74 -50q23 0 54.5 26t42.5 85h86q-10 -50 -34 -87t-54.5 -55.5t-57.5 -27t-51 -8.5q-36 0 -60.5 5t-47.5 20.5t-33 43t-10.5 74.5t13.5 112t28.5 106t41.5 82.5t71.5 61.5
t107.5 20q77 0 108.5 -44t10.5 -128z" />
    <glyph glyph-name="d" unicode="d" 
d="M397 273q5 26 8 44.5t3.5 45.5t-5.5 43.5t-22 29t-42 12.5q-62 0 -91 -47t-52 -158q-6 -25 -8.5 -40.5t-5.5 -40.5t0.5 -41t10.5 -32t24 -24t42 -8q22 0 40 8t32 26.5t23 34.5t18 46.5t13 48zM435 454l57 268h82l-153 -722h-82l13 60h-2q-57 -70 -131 -70q-27 0 -47 5
t-39.5 21t-28.5 42.5t-8.5 74t14.5 111.5q7 34 12 55t15.5 53t21 52t27.5 43.5t37 36.5t48.5 22t62.5 9q69 0 98 -61h3z" />
    <glyph glyph-name="e" unicode="e" 
d="M213 288h197q9 43 10.5 73.5t-3 48t-16 27.5t-24.5 13t-33 3q-45 0 -77.5 -34t-53.5 -131zM484 226h-284q-17 -69 -10.5 -106.5t24 -50t52.5 -12.5q40 0 69 27.5t40 68.5h90q-18 -82 -73.5 -122.5t-137.5 -40.5q-36 0 -60.5 5t-47.5 20.5t-33 43t-10.5 74.5t13.5 112
t28.5 106t41.5 82.5t71.5 61.5t107.5 20q104 0 131.5 -60.5t-3.5 -185.5z" />
    <glyph glyph-name="f" unicode="f" horiz-adv-x="278" 
d="M116 505h78l21 98q26 122 171 122q22 0 38 -3l-12 -59q-102 7 -117 -72l-19 -86h102l-13 -62h-102l-94 -443h-82l94 443h-78z" />
    <glyph glyph-name="g" unicode="g" 
d="M395 255q21 98 15 134q-10 58 -72 58q-33 0 -57.5 -17t-39.5 -48.5t-22.5 -55.5t-14.5 -58q-22 -122 -8 -161t63 -39q24 0 43 8t33 26t23 32t17.5 42.5t11 39.5zM433 443l13 62h82l-118 -556q-17 -79 -71 -109.5t-145 -30.5q-68 0 -105.5 34.5t-18.5 100.5h92
q-7 -35 10.5 -54t51.5 -19q42 0 70 23.5t36 63.5l22 105h-3q-21 -29 -55.5 -46t-68.5 -17q-65 0 -95.5 36t-28.5 95.5t17 136.5q14 66 37 114.5t46 73t50 39t43.5 17.5t33.5 3q85 0 103 -72h2z" />
    <glyph glyph-name="h" unicode="h" 
d="M428 0h-82l73 342q22 106 -68 106q-57 0 -88.5 -40t-46.5 -111l-63 -297h-82l153 722h82l-59 -282h4q33 43 67 59t85 16q67 0 92.5 -37t8.5 -120z" />
    <glyph glyph-name="i" unicode="i" horiz-adv-x="222" 
d="M259 505l-107 -505h-82l107 505h82zM200 634l18 88h92l-18 -88h-92z" />
    <glyph glyph-name="j" unicode="j" horiz-adv-x="222" 
d="M54 -74l123 579h82l-122 -575q-14 -65 -49 -93t-120 -28l15 70q31 0 48 9t23 38zM200 634l18 88h92l-18 -88h-92z" />
    <glyph glyph-name="k" unicode="k" horiz-adv-x="444" 
d="M214 283l-60 -283h-82l153 722h82l-92 -435h2l200 218h100l-214 -217l137 -288h-104l-120 283h-2z" />
    <glyph glyph-name="l" unicode="l" horiz-adv-x="222" 
d="M305 722l-153 -722h-82l153 722h82z" />
    <glyph glyph-name="m" unicode="m" horiz-adv-x="722" 
d="M402 0h-82l74 350q21 98 -59 98q-19 0 -42.5 -10t-35.5 -24q-26 -33 -35 -74l-72 -340h-82l85 400q12 58 17 105h87l-13 -63h2q47 73 141 73q38 0 68 -16.5t37 -48.5q47 65 133 65q139 0 111 -131l-82 -384h-82l74 350q21 98 -59 98q-25 0 -36 -3t-30 -16
q-33 -24 -47 -89z" />
    <glyph glyph-name="n" unicode="n" 
d="M428 0h-82l74 350q22 98 -68 98q-104 0 -134 -149l-64 -299h-82l85 400q12 58 17 105h87l-13 -65h4q32 42 66 58.5t84 16.5q76 0 97 -42t3 -123z" />
    <glyph glyph-name="o" unicode="o" 
d="M262 57q62 0 94.5 48.5t59.5 174.5q20 97 0.5 132.5t-71.5 35.5t-86.5 -35.5t-54.5 -132.5q-28 -123 -16 -173t74 -50zM248 -10q-36 0 -60.5 5t-47.5 20.5t-33 43t-10.5 74.5t13.5 112t28.5 106t41.5 82.5t71.5 61.5t107.5 20q51 0 84 -14.5t48.5 -37t19 -60t-1 -72.5
t-15.5 -86q-17 -81 -42.5 -133.5t-59 -78t-66.5 -34.5t-78 -9z" />
    <glyph glyph-name="p" unicode="p" 
d="M268 57q62 0 91 46.5t52 157.5q6 25 8.5 41t5.5 41t-0.5 41t-10.5 32t-24 24t-42 8q-33 0 -58 -19t-39.5 -53.5t-22 -62.5t-15.5 -66q-2 -11 -3 -16q-7 -34 -9.5 -57t-1 -53.5t19 -47t49.5 -16.5zM268 505l-12 -60h2q57 70 130 70q27 0 47.5 -5t39.5 -21t28 -42.5
t8.5 -74t-14.5 -111.5l-12 -55t-15 -53.5t-20.5 -51.5t-28 -43.5t-37.5 -36.5t-48.5 -22t-62.5 -9q-69 0 -98 61h-3l-52 -242h-82l148 696h82z" />
    <glyph glyph-name="q" unicode="q" 
d="M256 57q32 0 56.5 16.5t39 46.5t22 54t14.5 57q21 100 21 131q0 84 -67 84q-29 0 -52.5 -13t-37 -29t-25.5 -46.5t-16.5 -47t-11.5 -49.5q-25 -101 -15 -152.5t72 -51.5zM434 445l12 60h82l-148 -696h-82l52 242h-3q-56 -61 -124 -61q-39 0 -66.5 10.5t-40.5 33t-19 44
t-3 58t7 60.5t12 65q17 80 42 133t55 78t57.5 34t62.5 9q75 0 102 -70h2z" />
    <glyph glyph-name="r" unicode="r" horiz-adv-x="333" 
d="M264 505l-16 -76h2q36 54 72 70t102 16l-18 -85q-3 0 -6.5 0.5t-8 1.5t-6.5 1q-14 2 -22 2q-113 0 -143 -137l-63 -298h-82l107 505h82z" />
    <glyph glyph-name="s" unicode="s" horiz-adv-x="444" 
d="M428 144q-17 -79 -73 -116.5t-136 -37.5q-179 0 -139 164h93q-3 -13 -4 -21.5t0 -24.5t7 -25.5t21 -17.5t39 -8q39 0 67 19.5t36 57.5q5 24 -16.5 44.5t-55 37t-66.5 36t-52 51.5t-10 74q11 52 59.5 95t143.5 43q73 0 111.5 -36t18.5 -107h-91q18 81 -62 81
q-34 0 -59.5 -18t-32.5 -50q-5 -24 16.5 -43.5t55 -36t66.5 -35.5t52.5 -51t10.5 -75z" />
    <glyph glyph-name="t" unicode="t" horiz-adv-x="278" 
d="M105 505h83l21 97l90 37l-29 -134h110l-13 -62h-110l-66 -309l-4 -33t13.5 -28t50.5 -12q3 0 8 0.5t14 1.5t16 2l-14 -63q-9 -1 -38 -4.5t-44 -3.5q-57 0 -80 23t-14 67l76 359h-83z" />
    <glyph glyph-name="u" unicode="u" 
d="M378 170l71 335h82l-85 -400q-12 -58 -17 -105h-87l13 61h-3q-57 -71 -143 -71q-66 0 -94 33t-14 97l81 385h82l-74 -350q-10 -47 6 -74.5t58 -27.5q38 0 75 29.5t49 87.5z" />
    <glyph glyph-name="v" unicode="v" horiz-adv-x="444" 
d="M164 0l-43 505h92l22 -428h2l213 428h86l-265 -505h-107z" />
    <glyph glyph-name="w" unicode="w" horiz-adv-x="722" 
d="M135 0l-19 505h91l-1 -435h2l204 435h116l11 -435h2l192 435h87l-242 -505h-110l-17 430h-2l-204 -430h-110z" />
    <glyph glyph-name="x" unicode="x" horiz-adv-x="444" 
d="M326 264l111 -264h-108l-73 207l-153 -207h-97l213 264l-93 241h105l58 -181l140 181h99z" />
    <glyph glyph-name="y" unicode="y" horiz-adv-x="444" 
d="M210 505l34 -411h2l208 411h89l-377 -696h-85l98 191l-64 505h95z" />
    <glyph glyph-name="z" unicode="z" horiz-adv-x="389" 
d="M454 505l-16 -75l-300 -363h230l-14 -67h-319l16 77l297 359v2h-209l14 67h301z" />
    <glyph glyph-name="braceleft" unicode="{" horiz-adv-x="274" 
d="M221 196l-37 -172q-10 -45 4 -67t64 -22l-12 -56q-99 -3 -127.5 30t-9.5 117l41 197q3 14 3 24.5t-3 18t-7 12t-12 9t-14.5 6.5t-18.5 6.5l-20 7.5l12 56q49 10 74 26t33 51l39 186q4 21 11.5 38.5t15.5 30t20 22.5l20.5 16.5t24 11t23 6.5t24 3.5t21.5 1.5h20.5h16.5
l-12 -56q-51 0 -73.5 -22t-32.5 -68l-33 -153q-11 -52 -38.5 -81t-89.5 -40v-2q58 -13 73 -49.5t0 -88.5z" />
    <glyph glyph-name="bar" unicode="|" horiz-adv-x="388" 
d="M232 813h74v-1083h-74v1083z" />
    <glyph glyph-name="braceright" unicode="}" horiz-adv-x="274" 
d="M99 24l37 172q13 59 40 92t91 46v2q-57 11 -72 40t-4 81l33 153q10 46 -3.5 68t-64.5 22l12 56h16.5h20.5t20.5 -1.5t22 -3.5t20 -6.5t19.5 -11t14 -16.5t10 -23t2 -30t-4 -38l-39 -186q-8 -35 10.5 -51t62.5 -26l-12 -56l-31 -9.5t-28.5 -10t-20 -12t-18.5 -21
t-10 -31.5l-41 -197q-19 -84 -61.5 -117t-139.5 -30l12 56q50 0 73 22t33 67z" />
    <glyph glyph-name="asciitilde" unicode="~" 
d="M232 332q34 0 88 -35q4 -2 17 -9.5l18 -10.5t14.5 -7.5t16 -6t12.5 -1.5q45 0 98 83l24 -47q-72 -111 -139 -111q-9 0 -19 3t-23.5 9t-20.5 10l-22.5 12.5t-16.5 9.5q-43 25 -64 25q-20 0 -41 -16.5t-31 -30t-30 -43.5l-24 48q78 118 143 118z" />
    <glyph glyph-name="uni00A0" unicode="&#xa0;" horiz-adv-x="222" 
 />
    <glyph glyph-name="exclamdown" unicode="&#xa1;" horiz-adv-x="333" 
d="M327 531l-22 -104h-94l22 104h94zM209 364h71l-100 -555h-109z" />
    <glyph glyph-name="cent" unicode="&#xa2;" horiz-adv-x="444" 
d="M173 134l191 305q-9 9 -31 9q-52 0 -86.5 -35.5t-54.5 -132.5q-21 -96 -21 -146h2zM347 168h86q-17 -80 -76 -129.5t-121 -49.5q-64 0 -98 20l-42 -67l-34 16l47 75q-44 60 -11 212q14 65 28.5 106t41.5 82.5t71.5 61.5t107.5 20q35 0 60 -9l39 63l32 -15l-40 -64
q55 -41 28 -147h-85q9 42 5 63l-201 -321q17 -29 65 -29q36 0 61 32.5t36 79.5z" />
    <glyph glyph-name="sterling" unicode="&#xa3;" horiz-adv-x="444" 
d="M68 338l17 80h80l17 81q0 1 2 12t4 20t6.5 24.5t10 28t15.5 28.5t21 28.5t28 25t36.5 21t45.5 13.5t56 5q86 0 122.5 -47t14.5 -133h-96q24 103 -59 103q-22 0 -39 -4.5t-29 -16t-19 -19t-13 -28t-7.5 -27t-6.5 -30.5l-18 -85h138l-17 -80h-138l-55 -258h260l-17 -80
h-426l17 80h74l55 258h-80z" />
    <glyph glyph-name="currency" unicode="&#xa4;" horiz-adv-x="444" 
d="M24 110l48 42q-28 69 -11 148q17 83 75 151l-30 43l58 53l30 -43q69 49 150 49q68 0 120 -49l49 43l36 -53l-47 -43q27 -73 9 -156q-15 -71 -73 -143l29 -42l-58 -53l-31 43q-71 -50 -149 -50q-66 0 -121 50l-48 -43zM329 486q-68 0 -118.5 -52.5t-67.5 -133.5
q-16 -75 11.5 -129t90.5 -54q66 0 117.5 53.5t67.5 132.5q16 74 -11 128.5t-90 54.5z" />
    <glyph glyph-name="yen" unicode="&#xa5;" horiz-adv-x="444" 
d="M94 132l14 67h114l14 66h-114l15 67h89l-80 362h97l61 -321l203 321h88l-237 -362h91l-15 -67h-116l-14 -66h116l-14 -67h-116l-28 -132h-82l28 132h-114z" />
    <glyph glyph-name="brokenbar" unicode="&#xa6;" horiz-adv-x="387" 
d="M232 732h73v-380h-73v380zM232 189h73v-378h-73v378z" />
    <glyph glyph-name="section" unicode="&#xa7;" horiz-adv-x="444" 
d="M277 284q26 6 60.5 30.5t41.5 58.5q4 20 -4 35t-17 20.5t-27.5 13t-20.5 8.5q-84 -30 -96 -86q-1 -13 -2.5 -21.5t3 -16t7.5 -11.5t10.5 -9t13 -7.5l15.5 -7t16 -7.5zM70 5l18 86q2 -1 22.5 -9.5t46 -14t54.5 -5.5q38 0 70.5 17t39.5 50q7 30 -13.5 49t-53.5 30.5
t-65.5 24.5t-51 40.5t-9.5 69.5q17 80 130 129q-40 21 -57 47.5t-8 70.5q16 73 75.5 110t129.5 37q59 0 110 -19l-18 -84q-72 26 -104 26t-61.5 -16.5t-35.5 -46.5q-6 -28 12.5 -46.5t48.5 -29.5t60 -24t47 -39.5t8 -66.5q-9 -46 -46 -81t-85 -50v-2q45 -10 69 -42t14 -78
q-16 -77 -77.5 -115t-141.5 -38q-60 0 -128 20z" />
    <glyph glyph-name="dieresis" unicode="&#xa8;" horiz-adv-x="278" 
d="M246 694l-23 -104h-94l23 104h94zM422 694l-23 -104h-94l23 104h94z" />
    <glyph glyph-name="copyright" unicode="&#xa9;" horiz-adv-x="800" 
d="M558 737q155 0 241.5 -109.5t53.5 -265.5q-34 -157 -166.5 -267t-288.5 -110t-243.5 110t-53.5 267q33 156 167 265.5t290 109.5zM546 681q-134 0 -247.5 -93.5t-141.5 -226.5t45.5 -226.5t207.5 -93.5q133 0 245.5 93t141.5 227q28 133 -45 226.5t-206 93.5zM413 452
l-30 -142q-13 -59 3 -81t56 -22q75 0 94 81h70q-12 -62 -55.5 -99.5t-111.5 -37.5h-5q-16 0 -25 0.5t-26.5 3.5t-28 9t-23 18.5t-17.5 30.5t-5.5 46t7.5 64l21 101q17 82 61.5 126.5t130.5 44.5q72 0 98 -31.5t10 -96.5h-70q3 15 3 27t-1.5 19.5t-6.5 12.5t-9 7.5t-12 4
t-11.5 1.5h-11.5h-4q-83 0 -101 -87z" />
    <glyph glyph-name="ordfeminine" unicode="&#xaa;" horiz-adv-x="300" 
d="M328 579q-71 -1 -93 -11q-33 -13 -41 -50q-11 -55 36 -55q79 0 98 116zM297 428l9 44h-2q-31 -50 -97 -50q-50 0 -69 27t-9 73q21 103 208 98q3 19 4.5 36t-10 28.5t-38.5 11.5q-28 0 -46.5 -13.5t-21.5 -36.5h-63q24 91 142 91q66 0 89.5 -24.5t14.5 -66.5l-31 -146
q-6 -30 -8 -72h-72z" />
    <glyph glyph-name="guillemotleft" unicode="&#xab;" horiz-adv-x="444" 
d="M137 77l-49 193l135 196h76l-121 -196l37 -193h-78zM309 77l-49 193l135 196h76l-121 -196l37 -193h-78z" />
    <glyph glyph-name="logicalnot" unicode="&#xac;" 
d="M420 117l43 205h-352l14 62h414l-57 -267h-62z" />
    <glyph glyph-name="uni00AD" unicode="&#xad;" horiz-adv-x="333" 
d="M106 234l16 77h220l-16 -77h-220z" />
    <glyph glyph-name="registered" unicode="&#xae;" horiz-adv-x="800" 
d="M558 737q155 0 241.5 -109.5t53.5 -265.5q-34 -157 -166.5 -267t-288.5 -110t-243.5 110t-53.5 267q33 156 167 265.5t290 109.5zM546 681q-134 0 -247.5 -93.5t-141.5 -226.5t45.5 -226.5t207.5 -93.5q133 0 245.5 93t141.5 227q28 133 -45 226.5t-206 93.5zM402 337
l-41 -193h-70l92 433h172q58 0 82.5 -32t15.5 -76q-8 -38 -40 -65t-76 -35v-2q41 -5 52.5 -26t0.5 -84q-13 -81 -7 -113h-69q-5 6 -4 27t3 34.5t6.5 40t6.5 42.5t-3 27t-15 15t-18 5.5t-18 1.5h-70zM442 529l-28 -136h90q31 0 51 20t26 50q6 27 -5.5 46.5t-43.5 19.5h-90z
" />
    <glyph glyph-name="macron" unicode="&#xaf;" horiz-adv-x="278" 
d="M142 664h276l-12 -56h-276z" />
    <glyph glyph-name="degree" unicode="&#xb0;" horiz-adv-x="400" 
d="M468 555q-13 -62 -66.5 -106t-115.5 -44t-96.5 44t-21.5 106q12 61 66 105.5t116 44.5q61 0 96 -44t22 -106zM406 555q8 36 -12.5 62t-57.5 26q-36 0 -67.5 -26t-38.5 -62q-8 -37 12 -62.5t57 -25.5q36 0 68 26t39 62z" />
    <glyph glyph-name="plusminus" unicode="&#xb1;" 
d="M292 343l34 162h62l-34 -162h176l-13 -62h-176l-35 -162h-62l35 162h-176l13 62h176zM43 0l13 62h414l-13 -62h-414z" />
    <glyph glyph-name="twosuperior" unicode="&#xb2;" horiz-adv-x="266" 
d="M316 282h-243l11 53l64 62.5l52 51l38.5 38t30.5 33t19.5 26.5t15 27t7.5 26q5 22 -6 36t-39 14q-44 0 -55 -63h-71q5 50 41.5 84.5t92.5 34.5q68 0 93.5 -26.5t13.5 -82.5q-7 -34 -25.5 -63.5t-35 -47.5t-69 -67.5l-85.5 -82.5h161z" />
    <glyph glyph-name="threesuperior" unicode="&#xb3;" horiz-adv-x="266" 
d="M196 476l10 48q41 -3 68 15t34 54q13 62 -44 62q-55 0 -66 -64h-63q16 114 140 114q59 0 87 -27.5t17 -80.5q-6 -28 -20 -47t-35 -29.5t-31 -13.5t-29 -7v-2q102 -12 82 -105q-13 -59 -58 -89.5t-112 -30.5q-119 0 -92 119q1 4 1 5h64q-2 -19 -2 -34t11.5 -24.5
t34.5 -9.5q68 0 83 65q10 46 -8.5 64t-71.5 18z" />
    <glyph glyph-name="acute" unicode="&#xb4;" horiz-adv-x="278" 
d="M302 722h109l-161 -141h-67z" />
    <glyph glyph-name="mu" unicode="&#xb5;" 
d="M342 0l13 61h-3q-57 -71 -143 -71q-37 0 -52 10l-41 -191h-82l148 696h82l-74 -350q-10 -47 6 -74.5t58 -27.5q38 0 75 29.5t49 87.5l71 335h82l-85 -400q-12 -58 -17 -105h-87z" />
    <glyph glyph-name="paragraph" unicode="&#xb6;" horiz-adv-x="440" 
d="M139 -121l98 459q-63 -1 -98 56t-19 134q5 22 13 44t25.5 50.5t40.5 49.5t61 35.5t84 14.5h196l-179 -843h-70l165 776h-82l-165 -776h-70z" />
    <glyph glyph-name="periodcentered" unicode="&#xb7;" horiz-adv-x="222" 
d="M223 305l-22 -104h-94l22 104h94z" />
    <glyph glyph-name="cedilla" unicode="&#xb8;" horiz-adv-x="278" 
d="M60 -105l-13 19l81 86h48l-59 -60l2 -2q16 6 31 6q35 0 54.5 -20.5t12.5 -55.5q-10 -47 -50.5 -70t-85.5 -23q-44 0 -94 22l25 40q39 -15 62 -15q22 0 41.5 9.5t24.5 30.5q4 20 -8 30.5t-33 10.5q-7 0 -39 -8z" />
    <glyph glyph-name="onesuperior" unicode="&#xb9;" horiz-adv-x="266" 
d="M336 698l-88 -416h-70l74 349l-77 -42l13 59q25 9 86 50h62z" />
    <glyph glyph-name="ordmasculine" unicode="&#xba;" horiz-adv-x="300" 
d="M248 463q40 0 58.5 28t34.5 105q10 62 0 81t-43 19t-53 -20.5t-32 -79.5q-17 -74 -11 -103.5t46 -29.5zM240 422q-62 0 -89.5 30.5t-8.5 122.5q17 78 52 120t113 42q54 0 79.5 -22t24.5 -58t-9 -82q-10 -48 -26.5 -80t-39.5 -47t-45 -20.5t-51 -5.5z" />
    <glyph glyph-name="guillemotright" unicode="&#xbb;" horiz-adv-x="444" 
d="M167 77h-78l119 193l-37 196h76l51 -196zM339 77h-78l119 193l-37 196h76l51 -196z" />
    <glyph glyph-name="onequarter" unicode="&#xbc;" horiz-adv-x="666" 
d="M529 98h-157l11 51l184 267h99l-55 -262h53l-12 -56h-53l-21 -98h-70zM448 154h93l42 200h-2zM336 698l-88 -416h-70l74 349l-77 -42l13 59q25 9 86 50h62zM122 -27h-63l596 749h62z" />
    <glyph glyph-name="onehalf" unicode="&#xbd;" horiz-adv-x="666" 
d="M628 0h-243l11 53l64 62.5l52 51l38.5 38t30.5 33t19.5 26.5t15 27t7.5 26q5 22 -6 36t-39 14q-44 0 -55 -63h-71q5 50 41.5 84.5t92.5 34.5q68 0 93.5 -26.5t13.5 -82.5q-7 -34 -25.5 -63.5t-35 -47.5t-69 -67.5l-85.5 -82.5h161zM306 698l-88 -416h-70l74 349l-77 -42
l13 59q25 9 86 50h62zM92 -27h-63l596 749h62z" />
    <glyph glyph-name="threequarters" unicode="&#xbe;" horiz-adv-x="666" 
d="M544 98h-157l11 51l184 267h99l-55 -262h53l-12 -56h-53l-21 -98h-70zM463 154h93l42 200h-2zM201 476l10 48q41 -3 68 15t34 54q13 62 -44 62q-55 0 -66 -64h-63q16 114 140 114q59 0 87 -27.5t17 -80.5q-6 -28 -20 -47t-35 -29.5t-31 -13.5t-29 -7v-2q102 -12 82 -105
q-13 -59 -58 -89.5t-112 -30.5q-119 0 -92 119q1 4 1 5h64q-2 -19 -2 -34t11.5 -24.5t34.5 -9.5q68 0 83 65q10 46 -8.5 64t-71.5 18zM157 -27h-63l596 749h62z" />
    <glyph glyph-name="questiondown" unicode="&#xbf;" horiz-adv-x="444" 
d="M340 348l-24 -114q-5 -24 -23 -49t-41 -48.5l-46 -49t-42.5 -59t-27.5 -69.5q-8 -38 4.5 -68t49.5 -30q77 0 104 139h94q-35 -206 -218 -206q-76 0 -110 45t-17 122q12 56 43 105t61.5 76t58 58t32.5 55l20 93h82zM385 531l-22 -104h-94l22 104h94z" />
    <glyph glyph-name="Agrave" unicode="&#xc0;" horiz-adv-x="611" 
d="M15 0l382 722h117l82 -722h-103l-15 172h-279l-91 -172h-93zM470 252l-35 385h-2l-194 -385h231zM387 939h109l59 -141h-67z" />
    <glyph glyph-name="Aacute" unicode="&#xc1;" horiz-adv-x="611" 
d="M15 0l382 722h117l82 -722h-103l-15 172h-279l-91 -172h-93zM470 252l-35 385h-2l-194 -385h231zM516 939h109l-161 -141h-67z" />
    <glyph glyph-name="Acircumflex" unicode="&#xc2;" horiz-adv-x="611" 
d="M15 0l382 722h117l82 -722h-103l-15 172h-279l-91 -172h-93zM470 252l-35 385h-2l-194 -385h231zM542 798l-46 94l-86 -94h-80l130 141h92l70 -141h-80z" />
    <glyph glyph-name="Atilde" unicode="&#xc3;" horiz-adv-x="611" 
d="M15 0l382 722h117l82 -722h-103l-15 172h-279l-91 -172h-93zM470 252l-35 385h-2l-194 -385h231zM619 911h51q-15 -46 -48 -76q-35 -33 -80 -33q-18 0 -67 19q-44 19 -68 19q-17 0 -33.5 -14t-22.5 -31h-46q15 49 47.5 78.5t79.5 29.5q29 0 71 -18q40 -19 55 -19
q46 0 61 45z" />
    <glyph glyph-name="Adieresis" unicode="&#xc4;" horiz-adv-x="611" 
d="M15 0l382 722h117l82 -722h-103l-15 172h-279l-91 -172h-93zM470 252l-35 385h-2l-194 -385h231zM459 911l-22 -104h-94l22 104h94zM635 911l-22 -104h-94l22 104h94z" />
    <glyph glyph-name="Aring" unicode="&#xc5;" horiz-adv-x="611" 
d="M15 0l382 722h117l82 -722h-103l-15 172h-279l-91 -172h-93zM470 252l-35 385h-2l-194 -385h231zM473 787q-42 0 -65 29.5t-14 71.5t44.5 71.5t77.5 29.5t65 -29.5t15 -71.5q-9 -42 -45 -71.5t-78 -29.5zM555 888q5 25 -9 42.5t-38 17.5q-25 0 -46.5 -17.5t-26.5 -42.5
q-5 -24 8.5 -42t38.5 -18q24 0 46 18t27 42z" />
    <glyph glyph-name="AE" unicode="&#xc6;" horiz-adv-x="833" 
d="M112 0h-97l470 722h448l-17 -80h-297l-18 -232h258l-17 -80h-244l-18 -250h227l-17 -80h-306l12 172h-274zM502 252l29 396h-2l-253 -396h226z" />
    <glyph glyph-name="Ccedilla" unicode="&#xc7;" horiz-adv-x="556" 
d="M605 523h-95q19 78 1 105q-9 15 -32 23t-42 8q-34 0 -63.5 -12.5t-41.5 -24t-16 -19.5l-4 -5q-3 -5 -6 -9.5t-8.5 -17t-10 -26.5t-11.5 -38.5t-13 -53.5l-41 -193q-11 -52 -11.5 -88.5t5.5 -57.5t21.5 -33t31.5 -15.5t40 -3.5q11 0 23 2t31.5 11t35 24t31.5 44.5t25 69.5
h95q-44 -228 -249 -228l-45 -45l2 -2q16 6 31 6q35 0 54.5 -20.5t12.5 -55.5q-10 -47 -50.5 -70t-85.5 -23q-44 0 -94 22l25 40q39 -15 62 -15q22 0 41.5 9.5t24.5 30.5q4 20 -8 30.5t-33 10.5q-7 0 -39 -8l-13 19l68 73q-28 2 -50 8.5t-43.5 25.5t-32.5 48.5t-11.5 81
t14.5 120.5l43 204q31 145 102 203.5t186 58.5q105 0 139 -53.5t4 -160.5z" />
    <glyph glyph-name="Egrave" unicode="&#xc8;" 
d="M459 0h-378l153 722h372l-17 -80h-280l-49 -232h260l-17 -80h-260l-53 -250h286zM331 939h109l59 -141h-67z" />
    <glyph glyph-name="Eacute" unicode="&#xc9;" 
d="M459 0h-378l153 722h372l-17 -80h-280l-49 -232h260l-17 -80h-260l-53 -250h286zM460 939h109l-161 -141h-67z" />
    <glyph glyph-name="Ecircumflex" unicode="&#xca;" 
d="M459 0h-378l153 722h372l-17 -80h-280l-49 -232h260l-17 -80h-260l-53 -250h286zM486 798l-46 94l-86 -94h-80l130 141h92l70 -141h-80z" />
    <glyph glyph-name="Edieresis" unicode="&#xcb;" 
d="M459 0h-378l153 722h372l-17 -80h-280l-49 -232h260l-17 -80h-260l-53 -250h286zM403 911l-22 -104h-94l22 104h94zM579 911l-22 -104h-94l22 104h94z" />
    <glyph glyph-name="Igrave" unicode="&#xcc;" horiz-adv-x="278" 
d="M338 722l-153 -722h-92l153 722h92zM220 939h109l59 -141h-67z" />
    <glyph glyph-name="Iacute" unicode="&#xcd;" horiz-adv-x="278" 
d="M338 722l-153 -722h-92l153 722h92zM349 939h109l-161 -141h-67z" />
    <glyph glyph-name="Icircumflex" unicode="&#xce;" horiz-adv-x="278" 
d="M338 722l-153 -722h-92l153 722h92zM375 798l-46 94l-86 -94h-80l130 141h92l70 -141h-80z" />
    <glyph glyph-name="Idieresis" unicode="&#xcf;" horiz-adv-x="278" 
d="M338 722l-153 -722h-92l153 722h92zM292 911l-22 -104h-94l22 104h94zM468 911l-22 -104h-94l22 104h94z" />
    <glyph glyph-name="Eth" unicode="&#xd0;" horiz-adv-x="611" 
d="M83 0l78 366h-70l12 56h70l63 300h222q142 0 171 -110q9 -25 4 -81.5t-10 -91t-10 -55.5q-47 -220 -106 -291q-78 -93 -258 -93h-166zM253 366l-61 -286h87q98 0 146 46t75 170l31 146q23 108 -1.5 154t-97.5 46h-121l-46 -220h151l-12 -56h-151z" />
    <glyph glyph-name="Ntilde" unicode="&#xd1;" horiz-adv-x="667" 
d="M652 722h82l-153 -722h-126l-152 626h-2l-133 -626h-82l153 722h130l150 -618h2zM647 911h51q-15 -46 -48 -76q-35 -33 -80 -33q-18 0 -67 19q-44 19 -68 19q-17 0 -33.5 -14t-22.5 -31h-46q15 49 47.5 78.5t79.5 29.5q29 0 71 -18q40 -19 55 -19q46 0 61 45z" />
    <glyph glyph-name="Ograve" unicode="&#xd2;" horiz-adv-x="611" 
d="M302 -15q-117 0 -158 65.5t-10 213.5l50 237q24 111 95 173.5t183 62.5t156 -62.5t20 -173.5l-50 -237q-31 -148 -100 -213.5t-186 -65.5zM318 62q69 0 110 42.5t65 155.5l52 244q9 32 6 56t-7 41t-16 28t-21.5 17t-23.5 9.5t-21.5 4t-16.5 0.5q-13 0 -25.5 -1.5
t-35.5 -10t-41.5 -24t-36.5 -46.5t-27 -74l-52 -244q-24 -113 -1 -155.5t92 -42.5zM387 939h109l59 -141h-67z" />
    <glyph glyph-name="Oacute" unicode="&#xd3;" horiz-adv-x="611" 
d="M302 -15q-117 0 -158 65.5t-10 213.5l50 237q24 111 95 173.5t183 62.5t156 -62.5t20 -173.5l-50 -237q-31 -148 -100 -213.5t-186 -65.5zM318 62q69 0 110 42.5t65 155.5l52 244q9 32 6 56t-7 41t-16 28t-21.5 17t-23.5 9.5t-21.5 4t-16.5 0.5q-13 0 -25.5 -1.5
t-35.5 -10t-41.5 -24t-36.5 -46.5t-27 -74l-52 -244q-24 -113 -1 -155.5t92 -42.5zM516 939h109l-161 -141h-67z" />
    <glyph glyph-name="Ocircumflex" unicode="&#xd4;" horiz-adv-x="611" 
d="M302 -15q-117 0 -158 65.5t-10 213.5l50 237q24 111 95 173.5t183 62.5t156 -62.5t20 -173.5l-50 -237q-31 -148 -100 -213.5t-186 -65.5zM318 62q69 0 110 42.5t65 155.5l52 244q9 32 6 56t-7 41t-16 28t-21.5 17t-23.5 9.5t-21.5 4t-16.5 0.5q-13 0 -25.5 -1.5
t-35.5 -10t-41.5 -24t-36.5 -46.5t-27 -74l-52 -244q-24 -113 -1 -155.5t92 -42.5zM542 798l-46 94l-86 -94h-80l130 141h92l70 -141h-80z" />
    <glyph glyph-name="Otilde" unicode="&#xd5;" horiz-adv-x="611" 
d="M302 -15q-117 0 -158 65.5t-10 213.5l50 237q24 111 95 173.5t183 62.5t156 -62.5t20 -173.5l-50 -237q-31 -148 -100 -213.5t-186 -65.5zM318 62q69 0 110 42.5t65 155.5l52 244q9 32 6 56t-7 41t-16 28t-21.5 17t-23.5 9.5t-21.5 4t-16.5 0.5q-13 0 -25.5 -1.5
t-35.5 -10t-41.5 -24t-36.5 -46.5t-27 -74l-52 -244q-24 -113 -1 -155.5t92 -42.5zM619 911h51q-15 -46 -48 -76q-35 -33 -80 -33q-18 0 -67 19q-44 19 -68 19q-17 0 -33.5 -14t-22.5 -31h-46q15 49 47.5 78.5t79.5 29.5q29 0 71 -18q40 -19 55 -19q46 0 61 45z" />
    <glyph glyph-name="Odieresis" unicode="&#xd6;" horiz-adv-x="611" 
d="M302 -15q-117 0 -158 65.5t-10 213.5l50 237q24 111 95 173.5t183 62.5t156 -62.5t20 -173.5l-50 -237q-31 -148 -100 -213.5t-186 -65.5zM318 62q69 0 110 42.5t65 155.5l52 244q9 32 6 56t-7 41t-16 28t-21.5 17t-23.5 9.5t-21.5 4t-16.5 0.5q-13 0 -25.5 -1.5
t-35.5 -10t-41.5 -24t-36.5 -46.5t-27 -74l-52 -244q-24 -113 -1 -155.5t92 -42.5zM459 911l-22 -104h-94l22 104h94zM635 911l-22 -104h-94l22 104h94z" />
    <glyph glyph-name="multiply" unicode="&#xd7;" 
d="M260 253l-129 163l54 44l128 -163l198 163l34 -44l-197 -163l128 -163l-53 -44l-129 163l-197 -163l-35 44z" />
    <glyph glyph-name="Oslash" unicode="&#xd8;" horiz-adv-x="611" 
d="M548 520l-330 -380q9 -78 100 -78q69 0 110 42.5t65 155.5l52 244q1 6 3 16zM218 196l331 383q-11 81 -104 81q-13 0 -25.5 -1.5t-35.5 -10t-41.5 -24t-36.5 -46.5t-27 -74l-52 -244q-9 -43 -9 -64zM39 -10l89 102q-18 61 6 172l50 237q24 111 95 173.5t183 62.5
q119 0 163 -71l67 79l30 -23l-82 -95q15 -51 -2 -126l-50 -237q-31 -148 -100 -213.5t-186 -65.5q-116 0 -159 69l-75 -87z" />
    <glyph glyph-name="Ugrave" unicode="&#xd9;" horiz-adv-x="611" 
d="M134 264l97 458h92l-98 -462q-24 -113 0 -155.5t93 -42.5q70 0 111.5 42.5t65.5 155.5l98 462h92l-97 -458q-31 -148 -100 -213.5t-186 -65.5t-158 65.5t-10 213.5zM387 939h109l59 -141h-67z" />
    <glyph glyph-name="Uacute" unicode="&#xda;" horiz-adv-x="611" 
d="M134 264l97 458h92l-98 -462q-24 -113 0 -155.5t93 -42.5q70 0 111.5 42.5t65.5 155.5l98 462h92l-97 -458q-31 -148 -100 -213.5t-186 -65.5t-158 65.5t-10 213.5zM516 939h109l-161 -141h-67z" />
    <glyph glyph-name="Ucircumflex" unicode="&#xdb;" horiz-adv-x="611" 
d="M134 264l97 458h92l-98 -462q-24 -113 0 -155.5t93 -42.5q70 0 111.5 42.5t65.5 155.5l98 462h92l-97 -458q-31 -148 -100 -213.5t-186 -65.5t-158 65.5t-10 213.5zM542 798l-46 94l-86 -94h-80l130 141h92l70 -141h-80z" />
    <glyph glyph-name="Udieresis" unicode="&#xdc;" horiz-adv-x="611" 
d="M134 264l97 458h92l-98 -462q-24 -113 0 -155.5t93 -42.5q70 0 111.5 42.5t65.5 155.5l98 462h92l-97 -458q-31 -148 -100 -213.5t-186 -65.5t-158 65.5t-10 213.5zM459 911l-22 -104h-94l22 104h94zM635 911l-22 -104h-94l22 104h94z" />
    <glyph glyph-name="Yacute" unicode="&#xdd;" 
d="M331 373l220 349h93l-292 -447l-58 -275h-92l58 275l-99 447h103zM460 939h109l-161 -141h-67z" />
    <glyph glyph-name="Thorn" unicode="&#xde;" horiz-adv-x="556" 
d="M296 520l-52 -244h101q19 0 37.5 4t44 15t45 37.5t27.5 66.5q9 33 3 55t-14 35t-23 20t-24.5 9t-17.5 2h-127zM93 0l153 722h92l-25 -122h122q201 0 157 -206q-12 -58 -41.5 -99.5t-67 -61.5t-70.5 -28.5t-65 -8.5h-121l-42 -196h-92z" />
    <glyph glyph-name="germandbls" unicode="&#xdf;" horiz-adv-x="556" 
d="M534 155q-36 -166 -189 -166q-150 0 -120 136h86q-8 -32 3.5 -50.5t43.5 -18.5q70 0 88 92q7 32 -4.5 58t-31.5 44l-40.5 36.5t-31.5 46.5t-4 64q7 33 72 90q63 59 70 91q10 45 -10 68.5t-64 23.5q-38 0 -63.5 -10.5t-39.5 -32.5t-19.5 -37.5t-11.5 -43.5l-116 -546h-82
l123 579q9 45 37 78t63.5 49t66 23.5t55.5 7.5q83 0 127.5 -35t27.5 -116q-12 -54 -76 -106l-16 -12t-16.5 -13l-13.5 -12t-13 -13t-8 -13t-6 -15q-4 -19 9 -38t33.5 -37t40 -39.5t29.5 -56t1 -76.5z" />
    <glyph glyph-name="agrave" unicode="&#xe0;" 
d="M383 251q-90 -1 -120 -10q-69 -20 -84 -91q-9 -40 5.5 -66.5t53.5 -26.5q114 0 145 194zM332 0l16 73h-2q-54 -83 -145 -83q-76 0 -97.5 43.5t-5.5 122.5q12 54 43 89t78 48.5t85.5 17t92.5 2.5q5 22 7.5 34.5t4.5 31.5t-1 30t-10 22.5t-21.5 16.5t-35.5 5q-41 0 -67 -25
t-31 -65h-89q20 82 70 117t133 35q91 0 119 -40.5t13 -111.5l-51 -243q-13 -57 -16 -120h-90zM284 722h109l59 -141h-67z" />
    <glyph glyph-name="aacute" unicode="&#xe1;" 
d="M383 251q-90 -1 -120 -10q-69 -20 -84 -91q-9 -40 5.5 -66.5t53.5 -26.5q114 0 145 194zM332 0l16 73h-2q-54 -83 -145 -83q-76 0 -97.5 43.5t-5.5 122.5q12 54 43 89t78 48.5t85.5 17t92.5 2.5q5 22 7.5 34.5t4.5 31.5t-1 30t-10 22.5t-21.5 16.5t-35.5 5q-41 0 -67 -25
t-31 -65h-89q20 82 70 117t133 35q91 0 119 -40.5t13 -111.5l-51 -243q-13 -57 -16 -120h-90zM413 722h109l-161 -141h-67z" />
    <glyph glyph-name="acircumflex" unicode="&#xe2;" 
d="M383 251q-90 -1 -120 -10q-69 -20 -84 -91q-9 -40 5.5 -66.5t53.5 -26.5q114 0 145 194zM332 0l16 73h-2q-54 -83 -145 -83q-76 0 -97.5 43.5t-5.5 122.5q12 54 43 89t78 48.5t85.5 17t92.5 2.5q5 22 7.5 34.5t4.5 31.5t-1 30t-10 22.5t-21.5 16.5t-35.5 5q-41 0 -67 -25
t-31 -65h-89q20 82 70 117t133 35q91 0 119 -40.5t13 -111.5l-51 -243q-13 -57 -16 -120h-90zM439 581l-46 94l-86 -94h-80l130 141h92l70 -141h-80z" />
    <glyph glyph-name="atilde" unicode="&#xe3;" 
d="M383 251q-90 -1 -120 -10q-69 -20 -84 -91q-9 -40 5.5 -66.5t53.5 -26.5q114 0 145 194zM332 0l16 73h-2q-54 -83 -145 -83q-76 0 -97.5 43.5t-5.5 122.5q12 54 43 89t78 48.5t85.5 17t92.5 2.5q5 22 7.5 34.5t4.5 31.5t-1 30t-10 22.5t-21.5 16.5t-35.5 5q-41 0 -67 -25
t-31 -65h-89q20 82 70 117t133 35q91 0 119 -40.5t13 -111.5l-51 -243q-13 -57 -16 -120h-90zM517 694h51q-15 -46 -48 -76q-35 -33 -80 -33q-19 0 -68 19q-42 19 -68 19q-17 0 -33 -14t-22 -31h-46q15 49 47.5 78.5t79.5 29.5q29 0 71 -18q40 -19 55 -19q46 0 61 45z" />
    <glyph glyph-name="adieresis" unicode="&#xe4;" 
d="M383 251q-90 -1 -120 -10q-69 -20 -84 -91q-9 -40 5.5 -66.5t53.5 -26.5q114 0 145 194zM332 0l16 73h-2q-54 -83 -145 -83q-76 0 -97.5 43.5t-5.5 122.5q12 54 43 89t78 48.5t85.5 17t92.5 2.5q5 22 7.5 34.5t4.5 31.5t-1 30t-10 22.5t-21.5 16.5t-35.5 5q-41 0 -67 -25
t-31 -65h-89q20 82 70 117t133 35q91 0 119 -40.5t13 -111.5l-51 -243q-13 -57 -16 -120h-90zM357 694l-23 -104h-94l23 104h94zM533 694l-23 -104h-94l23 104h94z" />
    <glyph glyph-name="aring" unicode="&#xe5;" 
d="M383 251q-90 -1 -120 -10q-69 -20 -84 -91q-9 -40 5.5 -66.5t53.5 -26.5q114 0 145 194zM332 0l16 73h-2q-54 -83 -145 -83q-76 0 -97.5 43.5t-5.5 122.5q12 54 43 89t78 48.5t85.5 17t92.5 2.5q5 22 7.5 34.5t4.5 31.5t-1 30t-10 22.5t-21.5 16.5t-35.5 5q-41 0 -67 -25
t-31 -65h-89q20 82 70 117t133 35q91 0 119 -40.5t13 -111.5l-51 -243q-13 -57 -16 -120h-90zM371 570q-42 0 -65 29.5t-14 71.5t44.5 71.5t77.5 29.5t65 -29.5t15 -71.5q-9 -42 -45 -71.5t-78 -29.5zM453 671q5 25 -9.5 42.5t-38.5 17.5q-25 0 -46 -17.5t-26 -42.5
q-5 -24 8.5 -42t38.5 -18q24 0 46 18t27 42z" />
    <glyph glyph-name="ae" unicode="&#xe6;" horiz-adv-x="778" 
d="M492 302h196q37 151 -68 151q-96 0 -128 -151zM762 240h-283q-1 -5 -3 -16q-5 -24 -7 -37t-4 -36.5t1.5 -37t10.5 -28t22.5 -21.5t37.5 -7q88 0 116 105h89q-7 -33 -18.5 -58.5t-35 -53.5t-67 -44t-103.5 -16q-50 0 -85.5 23t-40.5 68q-58 -91 -178 -91q-72 0 -102 39.5
t-15 111.5q7 31 19.5 55t25.5 40t36 27.5t39 18t45.5 10.5t46 5t49.5 2.5t47 2.5l11 51q11 51 -6 75.5t-67 24.5q-41 0 -67 -25t-31 -65h-89q20 82 70 117t133 35q55 0 89.5 -15t39.5 -58h2q19 37 59 55t84 18q21 0 36 -1.5t36.5 -7t35 -16.5t26 -31.5t16 -48.5t-1 -71.5
t-19.5 -98.5zM392 240h-15q-39 0 -60.5 -1.5t-52.5 -10t-49.5 -30t-26.5 -57.5q-17 -84 61 -84q22 0 40.5 6.5t39.5 24t37.5 56.5t25.5 96z" />
    <glyph glyph-name="ccedilla" unicode="&#xe7;" 
d="M494 343h-85q14 56 -2.5 80.5t-45.5 24.5q-52 0 -86.5 -35.5t-54.5 -132.5q-28 -123 -16 -173t74 -50q23 0 54.5 26t42.5 85h86q-17 -88 -71.5 -130t-111.5 -47l-50 -51l2 -2q16 6 31 6q35 0 54.5 -20.5t12.5 -55.5q-10 -47 -50.5 -70t-85.5 -23q-44 0 -94 22l25 40
q39 -15 62 -15q22 0 41.5 9.5t24.5 30.5q4 20 -8 30.5t-33 10.5q-7 0 -39 -8l-13 19l73 77q-36 3 -60 15t-42 40.5t-17 76t14 122.5q14 65 28.5 106t41.5 82.5t71.5 61.5t107.5 20q77 0 108.5 -44t10.5 -128z" />
    <glyph glyph-name="egrave" unicode="&#xe8;" 
d="M213 288h197q9 43 10.5 73.5t-3 48t-16 27.5t-24.5 13t-33 3q-45 0 -77.5 -34t-53.5 -131zM484 226h-284q-17 -69 -10.5 -106.5t24 -50t52.5 -12.5q40 0 69 27.5t40 68.5h90q-18 -82 -73.5 -122.5t-137.5 -40.5q-36 0 -60.5 5t-47.5 20.5t-33 43t-10.5 74.5t13.5 112
t28.5 106t41.5 82.5t71.5 61.5t107.5 20q104 0 131.5 -60.5t-3.5 -185.5zM284 722h109l59 -141h-67z" />
    <glyph glyph-name="eacute" unicode="&#xe9;" 
d="M213 288h197q9 43 10.5 73.5t-3 48t-16 27.5t-24.5 13t-33 3q-45 0 -77.5 -34t-53.5 -131zM484 226h-284q-17 -69 -10.5 -106.5t24 -50t52.5 -12.5q40 0 69 27.5t40 68.5h90q-18 -82 -73.5 -122.5t-137.5 -40.5q-36 0 -60.5 5t-47.5 20.5t-33 43t-10.5 74.5t13.5 112
t28.5 106t41.5 82.5t71.5 61.5t107.5 20q104 0 131.5 -60.5t-3.5 -185.5zM413 722h109l-161 -141h-67z" />
    <glyph glyph-name="ecircumflex" unicode="&#xea;" 
d="M213 288h197q9 43 10.5 73.5t-3 48t-16 27.5t-24.5 13t-33 3q-45 0 -77.5 -34t-53.5 -131zM484 226h-284q-17 -69 -10.5 -106.5t24 -50t52.5 -12.5q40 0 69 27.5t40 68.5h90q-18 -82 -73.5 -122.5t-137.5 -40.5q-36 0 -60.5 5t-47.5 20.5t-33 43t-10.5 74.5t13.5 112
t28.5 106t41.5 82.5t71.5 61.5t107.5 20q104 0 131.5 -60.5t-3.5 -185.5zM439 581l-46 94l-86 -94h-80l130 141h92l70 -141h-80z" />
    <glyph glyph-name="edieresis" unicode="&#xeb;" 
d="M213 288h197q9 43 10.5 73.5t-3 48t-16 27.5t-24.5 13t-33 3q-45 0 -77.5 -34t-53.5 -131zM484 226h-284q-17 -69 -10.5 -106.5t24 -50t52.5 -12.5q40 0 69 27.5t40 68.5h90q-18 -82 -73.5 -122.5t-137.5 -40.5q-36 0 -60.5 5t-47.5 20.5t-33 43t-10.5 74.5t13.5 112
t28.5 106t41.5 82.5t71.5 61.5t107.5 20q104 0 131.5 -60.5t-3.5 -185.5zM357 694l-23 -104h-94l23 104h94zM533 694l-23 -104h-94l23 104h94z" />
    <glyph glyph-name="igrave" unicode="&#xec;" horiz-adv-x="222" 
d="M152 0h-82l107 505h82zM145 722h109l59 -141h-67z" />
    <glyph glyph-name="iacute" unicode="&#xed;" horiz-adv-x="222" 
d="M152 0h-82l107 505h82zM274 722h109l-161 -141h-67z" />
    <glyph glyph-name="icircumflex" unicode="&#xee;" horiz-adv-x="222" 
d="M152 0h-82l107 505h82zM300 581l-46 94l-86 -94h-80l130 141h92l70 -141h-80z" />
    <glyph glyph-name="idieresis" unicode="&#xef;" horiz-adv-x="222" 
d="M152 0h-82l107 505h82zM218 694l-23 -104h-94l23 104h94zM394 694l-23 -104h-94l23 104h94z" />
    <glyph glyph-name="eth" unicode="&#xf0;" 
d="M261 570l-24 30l93 49q-35 35 -72 57l65 47q46 -25 83 -64l105 55l23 -33l-102 -53q41 -53 60.5 -104.5t22.5 -131t-22 -182.5q-14 -64 -34 -110t-41.5 -73t-51 -42t-56 -20t-62.5 -5q-29 0 -51 3.5t-43 12.5t-33.5 27t-20 45t-5 68t13.5 94q13 63 27.5 104t40.5 81.5
t67.5 60t100.5 19.5q53 0 81 -37l3 2q-10 72 -69 151zM262 56q62 0 94 47.5t58 170.5q17 67 8.5 103.5t-27 49t-52.5 12.5q-52 0 -86.5 -35t-54.5 -130q-27 -120 -14.5 -169t74.5 -49z" />
    <glyph glyph-name="ntilde" unicode="&#xf1;" 
d="M428 0h-82l74 350q22 98 -68 98q-104 0 -134 -149l-64 -299h-82l85 400q12 58 17 105h87l-13 -65h4q32 42 66 58.5t84 16.5q76 0 97 -42t3 -123zM517 694h51q-15 -46 -48 -76q-35 -33 -80 -33q-19 0 -68 19q-42 19 -68 19q-17 0 -33 -14t-22 -31h-46q15 49 47.5 78.5
t79.5 29.5q29 0 71 -18q40 -19 55 -19q46 0 61 45z" />
    <glyph glyph-name="ograve" unicode="&#xf2;" 
d="M262 57q62 0 94.5 48.5t59.5 174.5q20 97 0.5 132.5t-71.5 35.5t-86.5 -35.5t-54.5 -132.5q-28 -123 -16 -173t74 -50zM248 -10q-36 0 -60.5 5t-47.5 20.5t-33 43t-10.5 74.5t13.5 112t28.5 106t41.5 82.5t71.5 61.5t107.5 20q51 0 84 -14.5t48.5 -37t19 -60t-1 -72.5
t-15.5 -86q-17 -81 -42.5 -133.5t-59 -78t-66.5 -34.5t-78 -9zM284 722h109l59 -141h-67z" />
    <glyph glyph-name="oacute" unicode="&#xf3;" 
d="M262 57q62 0 94.5 48.5t59.5 174.5q20 97 0.5 132.5t-71.5 35.5t-86.5 -35.5t-54.5 -132.5q-28 -123 -16 -173t74 -50zM248 -10q-36 0 -60.5 5t-47.5 20.5t-33 43t-10.5 74.5t13.5 112t28.5 106t41.5 82.5t71.5 61.5t107.5 20q51 0 84 -14.5t48.5 -37t19 -60t-1 -72.5
t-15.5 -86q-17 -81 -42.5 -133.5t-59 -78t-66.5 -34.5t-78 -9zM413 722h109l-161 -141h-67z" />
    <glyph glyph-name="ocircumflex" unicode="&#xf4;" 
d="M262 57q62 0 94.5 48.5t59.5 174.5q20 97 0.5 132.5t-71.5 35.5t-86.5 -35.5t-54.5 -132.5q-28 -123 -16 -173t74 -50zM248 -10q-36 0 -60.5 5t-47.5 20.5t-33 43t-10.5 74.5t13.5 112t28.5 106t41.5 82.5t71.5 61.5t107.5 20q51 0 84 -14.5t48.5 -37t19 -60t-1 -72.5
t-15.5 -86q-17 -81 -42.5 -133.5t-59 -78t-66.5 -34.5t-78 -9zM439 581l-46 94l-86 -94h-80l130 141h92l70 -141h-80z" />
    <glyph glyph-name="otilde" unicode="&#xf5;" 
d="M262 57q62 0 94.5 48.5t59.5 174.5q20 97 0.5 132.5t-71.5 35.5t-86.5 -35.5t-54.5 -132.5q-28 -123 -16 -173t74 -50zM248 -10q-36 0 -60.5 5t-47.5 20.5t-33 43t-10.5 74.5t13.5 112t28.5 106t41.5 82.5t71.5 61.5t107.5 20q51 0 84 -14.5t48.5 -37t19 -60t-1 -72.5
t-15.5 -86q-17 -81 -42.5 -133.5t-59 -78t-66.5 -34.5t-78 -9zM517 694h51q-15 -46 -48 -76q-35 -33 -80 -33q-19 0 -68 19q-42 19 -68 19q-17 0 -33 -14t-22 -31h-46q15 49 47.5 78.5t79.5 29.5q29 0 71 -18q40 -19 55 -19q46 0 61 45z" />
    <glyph glyph-name="odieresis" unicode="&#xf6;" 
d="M262 57q62 0 94.5 48.5t59.5 174.5q20 97 0.5 132.5t-71.5 35.5t-86.5 -35.5t-54.5 -132.5q-28 -123 -16 -173t74 -50zM248 -10q-36 0 -60.5 5t-47.5 20.5t-33 43t-10.5 74.5t13.5 112t28.5 106t41.5 82.5t71.5 61.5t107.5 20q51 0 84 -14.5t48.5 -37t19 -60t-1 -72.5
t-15.5 -86q-17 -81 -42.5 -133.5t-59 -78t-66.5 -34.5t-78 -9zM357 694l-23 -104h-94l23 104h94zM533 694l-23 -104h-94l23 104h94z" />
    <glyph glyph-name="divide" unicode="&#xf7;" 
d="M90 222l13 62h414l-13 -62h-414zM405 506l-23 -104h-94l23 104h94zM319 104l-22 -104h-94l22 104h94z" />
    <glyph glyph-name="oslash" unicode="&#xf8;" 
d="M185 150l235 253q-15 45 -75 45q-52 0 -86.5 -35.5t-54.5 -132.5q-19 -87 -19 -130zM425 359l-236 -255q13 -47 73 -47q62 0 94.5 48.5t59.5 174.5q10 49 9 79zM484 472l63 67l27 -20l-72 -78q21 -57 -8 -196q-17 -81 -42.5 -133.5t-59 -78t-66.5 -34.5t-78 -9
q-93 0 -126 43l-62 -68l-27 22l73 78q-22 62 4 180q14 65 28.5 106t41.5 82.5t71.5 61.5t107.5 20q88 0 125 -43z" />
    <glyph glyph-name="ugrave" unicode="&#xf9;" 
d="M378 170l71 335h82l-85 -400q-12 -58 -17 -105h-87l13 61h-3q-57 -71 -143 -71q-66 0 -94 33t-14 97l81 385h82l-74 -350q-10 -47 6 -74.5t58 -27.5q38 0 75 29.5t49 87.5zM284 722h109l59 -141h-67z" />
    <glyph glyph-name="uacute" unicode="&#xfa;" 
d="M378 170l71 335h82l-85 -400q-12 -58 -17 -105h-87l13 61h-3q-57 -71 -143 -71q-66 0 -94 33t-14 97l81 385h82l-74 -350q-10 -47 6 -74.5t58 -27.5q38 0 75 29.5t49 87.5zM413 722h109l-161 -141h-67z" />
    <glyph glyph-name="ucircumflex" unicode="&#xfb;" 
d="M378 170l71 335h82l-85 -400q-12 -58 -17 -105h-87l13 61h-3q-57 -71 -143 -71q-66 0 -94 33t-14 97l81 385h82l-74 -350q-10 -47 6 -74.5t58 -27.5q38 0 75 29.5t49 87.5zM439 581l-46 94l-86 -94h-80l130 141h92l70 -141h-80z" />
    <glyph glyph-name="udieresis" unicode="&#xfc;" 
d="M378 170l71 335h82l-85 -400q-12 -58 -17 -105h-87l13 61h-3q-57 -71 -143 -71q-66 0 -94 33t-14 97l81 385h82l-74 -350q-10 -47 6 -74.5t58 -27.5q38 0 75 29.5t49 87.5zM357 694l-23 -104h-94l23 104h94zM533 694l-23 -104h-94l23 104h94z" />
    <glyph glyph-name="yacute" unicode="&#xfd;" horiz-adv-x="444" 
d="M210 505l34 -411h2l208 411h89l-377 -696h-85l98 191l-64 505h95zM385 722h109l-161 -141h-67z" />
    <glyph glyph-name="thorn" unicode="&#xfe;" 
d="M219 273q-1 -6 -4 -19q-6 -28 -9 -43.5t-6.5 -42.5t-1 -43t8.5 -33.5t21 -26t37 -8.5q25 0 45 7.5t34.5 24.5t24 31.5t18 41.5t12 40t9.5 41q25 101 15 153t-72 52q-26 0 -47.5 -12.5t-34.5 -29.5t-24 -43.5t-16 -45t-10 -44.5zM38 -191l194 913h82l-58 -277h2
q57 70 126 70q39 0 66.5 -10.5t40.5 -32.5t19.5 -44.5t3.5 -58t-7.5 -61t-12.5 -64.5q-17 -80 -41.5 -133t-55 -78t-58 -34t-62.5 -9q-73 0 -102 61h-3l-52 -242h-82z" />
    <glyph glyph-name="ydieresis" unicode="&#xff;" horiz-adv-x="444" 
d="M210 505l34 -411h2l208 411h89l-377 -696h-85l98 191l-64 505h95zM329 694l-23 -104h-94l23 104h94zM505 694l-23 -104h-94l23 104h94z" />
    <glyph glyph-name="dotlessi" unicode="&#x131;" horiz-adv-x="222" 
d="M152 0h-82l107 505h82z" />
    <glyph glyph-name="Lslash" unicode="&#x141;" horiz-adv-x="444" 
d="M81 0l78 367l-80 -41l-13 39l104 54l64 303h92l-53 -250l84 43l14 -39l-109 -56l-72 -340h265l-17 -80h-357z" />
    <glyph glyph-name="lslash" unicode="&#x142;" horiz-adv-x="222" 
d="M305 722l-53 -253l88 46l13 -35l-111 -57l-90 -423h-82l80 376l-89 -46l-12 35l111 57l63 300h82z" />
    <glyph glyph-name="OE" unicode="&#x152;" horiz-adv-x="833" 
d="M438 80l119 562h-132q-65 0 -103 -43t-64 -166l-34 -160q-11 -58 -11 -101t25 -67.5t76 -24.5h124zM946 722l-17 -80h-280l-49 -232h260l-17 -80h-260l-53 -250h286l-17 -80h-477q-132 0 -177.5 62t-15.5 207l36 168q33 153 102 219t181 66h498z" />
    <glyph glyph-name="oe" unicode="&#x153;" horiz-adv-x="778" 
d="M500 288h197q9 43 10.5 73t-3 47t-16.5 26t-24.5 11.5t-33.5 2.5q-46 0 -77.5 -32t-52.5 -128zM771 226h-284q-17 -69 -10.5 -106.5t24 -50t52.5 -12.5q40 0 69 27.5t40 68.5h90q-18 -82 -73.5 -122.5t-137.5 -40.5q-123 0 -136 80q-60 -80 -157 -80q-36 0 -60.5 5
t-47.5 20.5t-33 43t-10.5 74.5t13.5 112t28.5 106t41.5 82.5t71.5 61.5t107.5 20q54 0 91.5 -19.5t35.5 -64.5h2q50 84 164 84q104 0 131.5 -60.5t-3.5 -185.5zM262 57q62 0 94.5 48.5t59.5 174.5q20 97 0.5 132.5t-71.5 35.5t-86.5 -35.5t-54.5 -132.5q-28 -123 -16 -173
t74 -50z" />
    <glyph glyph-name="Scaron" unicode="&#x160;" horiz-adv-x="556" 
d="M107 215h91l-5 -21q-14 -68 14.5 -98.5t79.5 -30.5q128 0 154 117q7 32 -5.5 58.5t-37 45t-55.5 36t-61 37.5t-54 43.5t-34 59t-1 79.5q20 93 90 144.5t164 51.5q208 0 155 -211h-96q15 64 -3 97.5t-80 33.5q-47 0 -84.5 -26t-49.5 -80q-8 -37 10 -66.5t50 -48t69 -42
t68 -47.5t46 -65.5t4 -95.5q-23 -106 -95.5 -153.5t-171.5 -47.5q-44 0 -77 9t-52 23t-30 36t-14 41.5t-1.5 45t4.5 40.5t8 35zM544 939h80l-130 -141h-92l-70 141h80l46 -94z" />
    <glyph glyph-name="scaron" unicode="&#x161;" horiz-adv-x="444" 
d="M428 144q-17 -79 -73 -116.5t-136 -37.5q-179 0 -139 164h93q-3 -13 -4 -21.5t0 -24.5t7 -25.5t21 -17.5t39 -8q39 0 67 19.5t36 57.5q5 24 -16.5 44.5t-55 37t-66.5 36t-52 51.5t-10 74q11 52 59.5 95t143.5 43q73 0 111.5 -36t18.5 -107h-91q18 81 -62 81
q-34 0 -59.5 -18t-32.5 -50q-5 -24 16.5 -43.5t55 -36t66.5 -35.5t52.5 -51t10.5 -75zM441 722h80l-130 -141h-92l-70 141h80l46 -94z" />
    <glyph glyph-name="Ydieresis" unicode="&#x178;" 
d="M331 373l220 349h93l-292 -447l-58 -275h-92l58 275l-99 447h103zM403 911l-22 -104h-94l22 104h94zM579 911l-22 -104h-94l22 104h94z" />
    <glyph glyph-name="Zcaron" unicode="&#x17d;" 
d="M620 722l-19 -92l-475 -550h366l-17 -80h-451l22 104l464 536v2h-338l17 80h431zM516 939h80l-130 -141h-92l-70 141h80l46 -94z" />
    <glyph glyph-name="zcaron" unicode="&#x17e;" horiz-adv-x="389" 
d="M454 505l-16 -75l-300 -363h230l-14 -67h-319l16 77l297 359v2h-209l14 67h301zM414 722h80l-130 -141h-92l-70 141h80l46 -94z" />
    <glyph glyph-name="florin" unicode="&#x192;" horiz-adv-x="444" 
d="M-2 -171l25 67q13 -1 24 1t19 4t15.5 10t11.5 11t10 16t7.5 16.5t8 20.5t7.5 20l145 396h-91l24 62h89l30 80q11 30 23 53.5t34.5 54t57 47.5t78.5 17q8 0 22.5 -2t20.5 -2l-25 -67q-16 4 -24 4q-27 0 -50 -18t-33 -35.5t-16 -34.5l-37 -97h98l-22 -62h-98l-160 -440
q-16 -43 -39.5 -70t-52 -37.5t-51 -13t-51.5 -1.5z" />
    <glyph glyph-name="circumflex" unicode="&#x2c6;" horiz-adv-x="278" 
d="M328 581l-46 94l-86 -94h-80l130 141h92l70 -141h-80z" />
    <glyph glyph-name="caron" unicode="&#x2c7;" horiz-adv-x="278" 
d="M358 722h80l-130 -141h-92l-70 141h80l46 -94z" />
    <glyph glyph-name="uni02C9" unicode="&#x2c9;" horiz-adv-x="278" 
d="M142 664h276l-12 -56h-276z" />
    <glyph glyph-name="breve" unicode="&#x2d8;" horiz-adv-x="278" 
d="M138 722h49q-1 -40 23 -59.5t66 -19.5q89 0 121 79h49q-21 -64 -67.5 -99.5t-111.5 -35.5q-148 0 -129 135z" />
    <glyph glyph-name="dotaccent" unicode="&#x2d9;" horiz-adv-x="278" 
d="M334 694l-23 -104h-94l23 104h94z" />
    <glyph glyph-name="ring" unicode="&#x2da;" horiz-adv-x="278" 
d="M260 570q-42 0 -65 29.5t-14 71.5t44.5 71.5t77.5 29.5t65 -29.5t15 -71.5q-9 -42 -45 -71.5t-78 -29.5zM342 671q5 25 -9.5 42.5t-38.5 17.5q-25 0 -46 -17.5t-26 -42.5q-5 -24 8.5 -42t38.5 -18q24 0 46 18t27 42z" />
    <glyph glyph-name="ogonek" unicode="&#x2db;" horiz-adv-x="278" 
d="M221 -115l-12 -54q-62 -22 -112 -22q-41 0 -68.5 23t-17.5 68q7 34 51.5 61.5t90.5 38.5l59 2v-2q-50 -16 -80.5 -39.5t-35.5 -45.5q-6 -25 4.5 -37.5t30.5 -12.5q28 0 90 20z" />
    <glyph glyph-name="tilde" unicode="&#x2dc;" horiz-adv-x="278" 
d="M406 694h51q-15 -46 -48 -76q-35 -33 -80 -33q-19 0 -68 19q-42 19 -68 19q-17 0 -33 -14t-22 -31h-46q15 49 47.5 78.5t79.5 29.5q29 0 71 -18q40 -19 55 -19q46 0 61 45z" />
    <glyph glyph-name="hungarumlaut" unicode="&#x2dd;" horiz-adv-x="444" 
d="M282 722h109l-161 -141h-67zM465 722h109l-161 -141h-67z" />
    <glyph glyph-name="uni03A9" unicode="&#x3a9;" horiz-adv-x="562" 
d="M164 72l1 3q-76 126 -38 305q31 143 117 234t190 91q71 0 115 -46t53 -116.5t-6 -155.5q-20 -96 -68 -179t-102 -133l-1 -3h115l-15 -72h-197l11 52q52 40 100 123t71 192q11 66 10 124.5t-28 98.5t-76 40q-70 0 -128 -74.5t-83 -191.5q-20 -110 -8 -192t46 -120l-11 -52
h-197l15 72h114z" />
    <glyph glyph-name="uni03BC" unicode="&#x3bc;" 
d="M342 0l13 61h-3q-57 -71 -143 -71q-37 0 -52 10l-41 -191h-82l148 696h82l-74 -350q-10 -47 6 -74.5t58 -27.5q38 0 75 29.5t49 87.5l71 335h82l-85 -400q-12 -58 -17 -105h-87z" />
    <glyph glyph-name="pi" unicode="&#x3c0;" horiz-adv-x="475" 
d="M546 443h-61l-65 -307q-17 -78 -17 -136h-77q-8 30 13 133l66 310h-129q-25 -102 -69.5 -235.5t-82.5 -207.5h-78q41 83 84.5 214t65.5 229q-55 0 -84 -9l1 57q45 28 130 28h326z" />
    <glyph glyph-name="endash" unicode="&#x2013;" 
d="M52 243l12 56h500l-12 -56h-500z" />
    <glyph glyph-name="emdash" unicode="&#x2014;" horiz-adv-x="1000" 
d="M52 243l12 56h1000l-12 -56h-1000z" />
    <glyph glyph-name="quoteleft" unicode="&#x2018;" horiz-adv-x="222" 
d="M339 722l-85 -199h-108l124 199h69z" />
    <glyph glyph-name="quoteright" unicode="&#x2019;" horiz-adv-x="222" 
d="M146 523l85 199h108l-124 -199h-69z" />
    <glyph glyph-name="quotesinglbase" unicode="&#x201a;" horiz-adv-x="222" 
d="M11 -111l86 199h108l-125 -199h-69z" />
    <glyph glyph-name="quotedblleft" unicode="&#x201c;" horiz-adv-x="444" 
d="M367 721l-85 -199h-108l124 199h69zM534 721l-85 -199h-108l124 199h69z" />
    <glyph glyph-name="quotedblright" unicode="&#x201d;" horiz-adv-x="444" 
d="M174 523l85 199h108l-124 -199h-69zM341 523l85 199h108l-124 -199h-69z" />
    <glyph glyph-name="quotedblbase" unicode="&#x201e;" horiz-adv-x="444" 
d="M206 -111l86 199h108l-125 -199h-69zM39 -111l86 199h108l-125 -199h-69z" />
    <glyph glyph-name="dagger" unicode="&#x2020;" horiz-adv-x="444" 
d="M181 0l107 505h-142l15 67h142l31 150h82l-31 -150h142l-15 -67h-142l-107 -505h-82z" />
    <glyph glyph-name="daggerdbl" unicode="&#x2021;" horiz-adv-x="444" 
d="M287 505h-140l15 67h140l31 150h82l-31 -150h141l-15 -67h-141l-61 -288h141l-14 -67h-141l-32 -150h-82l32 150h-140l14 67h140z" />
    <glyph glyph-name="bullet" unicode="&#x2022;" horiz-adv-x="333" 
d="M397 361q-14 -62 -69 -107.5t-118 -45.5q-62 0 -97.5 45.5t-22.5 107.5q14 63 68.5 108.5t116.5 45.5q63 0 99 -45.5t23 -108.5z" />
    <glyph glyph-name="ellipsis" unicode="&#x2026;" horiz-adv-x="1000" 
d="M236 104l-22 -104h-94l22 104h94zM569 104l-22 -104h-94l22 104h94zM902 104l-22 -104h-94l22 104h94z" />
    <glyph glyph-name="perthousand" unicode="&#x2030;" horiz-adv-x="889" 
d="M294 734q32 0 52.5 -10t29.5 -23.5t9.5 -39t-2.5 -45t-10 -52.5q-7 -31 -12.5 -52t-18 -48t-27.5 -43t-40 -27.5t-56 -11.5q-26 0 -44.5 7t-27.5 21.5t-13.5 30t-3 39t4.5 41t8 43.5q7 34 12 53t17 44.5t26.5 39t39 23.5t56.5 10zM231 438q14 0 26 8.5t19.5 19.5
t14.5 30.5t10 30.5t7 31.5t5 23.5q12 60 3.5 78t-34.5 18q-15 0 -27.5 -7t-18.5 -14.5t-12 -25t-7.5 -23.5t-5.5 -26q-1 -2 -4 -15t-4 -19.5t-4 -20t-3.5 -22t-0.5 -20t2.5 -19t6 -14.5t10.5 -10.5t17 -3.5zM531 337q32 0 52.5 -10t29 -23.5t9 -39t-2.5 -44.5t-10 -53
q-7 -31 -12.5 -52t-17.5 -48t-27 -43t-40 -27.5t-56 -11.5q-26 0 -44.5 7t-28 21.5t-14 30t-3 39t4.5 41.5t8 43q9 42 16.5 65.5t24 51.5t44 40.5t67.5 12.5zM468 41q12 0 22.5 5.5t18.5 17t13.5 21.5t10.5 27.5t7 26t5.5 26.5t3.5 20q15 63 3 82q-10 14 -33 14
q-14 0 -26 -6.5t-18 -12.5t-12.5 -22.5t-8 -22t-5.5 -24.5q-1 -5 -2 -8t-4.5 -20l-5.5 -26t-4 -26.5t-1 -28t4 -21.5t11.5 -16.5t20.5 -5.5zM822 337q32 0 52.5 -10t29 -23.5t9 -39t-2.5 -44.5t-10 -53q-7 -31 -12.5 -52t-17.5 -48t-27 -43t-40 -27.5t-56 -11.5
q-26 0 -44.5 7t-28 21.5t-14 30t-3 39t4.5 41.5t8 43q9 42 16.5 65.5t24 51.5t44 40.5t67.5 12.5zM759 41q12 0 22.5 5.5t18.5 17t13.5 21.5t10.5 27.5t7 26t5.5 26.5t3.5 20q15 63 3 82q-10 14 -33 14q-14 0 -26 -6.5t-18 -12.5t-12.5 -22.5t-8 -22t-5.5 -24.5q-1 -5 -2 -8
t-4.5 -20l-5.5 -26t-4 -26.5t-1 -27.5t4 -21.5t11.5 -17t20.5 -5.5zM88 -34l510 794h63l-512 -794h-61z" />
    <glyph glyph-name="guilsinglleft" unicode="&#x2039;" horiz-adv-x="222" 
d="M130 77l-49 193l135 196h76l-121 -196l37 -193h-78z" />
    <glyph glyph-name="guilsinglright" unicode="&#x203a;" horiz-adv-x="222" 
d="M124 77h-78l119 193l-37 196h76l51 -196z" />
    <glyph glyph-name="fraction" unicode="&#x2044;" horiz-adv-x="167" 
d="M-109 -30h-63l596 749h62z" />
    <glyph glyph-name="Euro" unicode="&#x20ac;" horiz-adv-x="444" 
d="M85 314h46l14 66h-57l25 67h48l10 49q46 214 228 214q84 0 120 -45t16 -136h-89q21 100 -64 100q-89 0 -115 -123l-13 -59h160l-25 -67h-150l-14 -66h138l-25 -67h-126l-13 -59q-14 -64 2 -95.5t65 -31.5q45 0 69.5 23.5t35.5 77.5h87q-38 -180 -214 -180
q-184 0 -139 205l13 60h-58z" />
    <glyph glyph-name="afii61289" unicode="&#x2113;" horiz-adv-x="406" 
d="M384 140l28 -34q-78 -117 -180 -117q-74 0 -97 50.5t-7 132.5l3 14l-55 -42l-13 47q51 40 82 68l57 268q26 120 77 177t110 57q50 0 67.5 -43.5t1.5 -116.5q-36 -165 -237 -351l-10 -46q-29 -148 51 -148q57 0 122 84zM279 522l-40 -187q145 150 170 269q20 92 -32 92
q-26 0 -52.5 -41.5t-45.5 -132.5z" />
    <glyph glyph-name="trademark" unicode="&#x2122;" horiz-adv-x="825" 
d="M943 722l-92 -433h-70l73 341h-2l-193 -341h-57l-41 341h-2l-73 -341h-70l92 433h111l40 -322h2l173 322h109zM150 722h308l-11 -56h-119l-81 -377h-70l81 377h-119z" />
    <glyph glyph-name="Omega" unicode="&#x2126;" horiz-adv-x="562" 
d="M164 72l1 3q-76 126 -38 305q31 143 117 234t190 91q71 0 115 -46t53 -116.5t-6 -155.5q-20 -96 -68 -179t-102 -133l-1 -3h115l-15 -72h-197l11 52q52 40 100 123t71 192q11 66 10 124.5t-28 98.5t-76 40q-70 0 -128 -74.5t-83 -191.5q-20 -110 -8 -192t46 -120l-11 -52
h-197l15 72h114z" />
    <glyph glyph-name="estimated" unicode="&#x212e;" horiz-adv-x="1017" 
d="M983 335h-647q-6 0 -6 -4v-196q0 -13 9 -23q103 -106 245 -106q75 0 142 32t116 87h57q-54 -64 -137.5 -101.5t-178.5 -37.5q-166 0 -283 105t-117 254t117 254.5t283 105.5t283 -105.5t117 -254.5v-10zM836 360v198q0 14 -9 23q-104 102 -243 102q-141 0 -244 -105
q-10 -10 -10 -25v-193q0 -6 6 -6h496q4 0 4 6z" />
    <glyph glyph-name="partialdiff" unicode="&#x2202;" horiz-adv-x="458" 
d="M227 660l-10 67q71 52 151 52q57 0 95.5 -38t53.5 -120.5t-14 -213.5q-42 -197 -122.5 -307t-185.5 -110q-76 0 -105 65.5t-8 162.5q25 116 93 187.5t141 71.5q44 0 71 -23.5t34 -49.5h1q2 5 5 18t4 18q23 113 -2 189.5t-87 76.5q-59 0 -115 -46zM218 64h1q50 0 99 74.5
t79 180.5q-3 34 -24.5 60.5t-58.5 26.5q-47 0 -91 -56.5t-60 -134.5q-15 -68 0 -109.5t55 -41.5z" />
    <glyph glyph-name="Delta" unicode="&#x2206;" horiz-adv-x="525" 
d="M26 0l11 54l333 656h93l48 -654l-12 -56h-473zM122 70h308l-28 347q-1 22 -6.5 88t-4.5 92h-3q-9 -23 -39.5 -83l-42.5 -85z" />
    <glyph glyph-name="product" unicode="&#x220f;" horiz-adv-x="725" 
d="M702 615h-82v-711h-81v711h-204v-711h-81v711h-83v80h531v-80z" />
    <glyph glyph-name="summation" unicode="&#x2211;" horiz-adv-x="600" 
d="M583 -96h-414v60l211 336l-203 333v62h392v-73h-285v-4l188 -302l-207 -326v-3h318v-83z" />
    <glyph glyph-name="minus" unicode="&#x2212;" 
d="M90 222l13 62h414l-13 -62h-414z" />
    <glyph glyph-name="uni2215" unicode="&#x2215;" horiz-adv-x="167" 
d="M-109 -30h-63l596 749h62z" />
    <glyph glyph-name="uni2219" unicode="&#x2219;" horiz-adv-x="222" 
d="M223 305l-22 -104h-94l22 104h94z" />
    <glyph glyph-name="radical" unicode="&#x221a;" horiz-adv-x="637" 
d="M634 831l-183 -975h-68l-128 453l-62 -23l-14 52l128 50l93 -333q15 -77 16 -84l1 -1q1 8 5 38t7 47l147 776h58z" />
    <glyph glyph-name="infinity" unicode="&#x221e;" horiz-adv-x="773" 
d="M731 289v-1q0 -65 -40.5 -105.5t-96.5 -40.5q-41 0 -78 23.5t-82 78.5q-42 -50 -79 -76t-86 -26q-56 0 -95.5 40.5t-39.5 101.5q0 64 40 105t101 41q79 0 161 -102l26.5 30t26 25t33.5 25.5t34 14t43 7.5q58 0 95 -39t37 -102zM276 192h1q25 0 51 16.5t38.5 29.5t39.5 44
q-27 35 -40 50t-40 32t-55 17q-40 0 -62.5 -28t-22.5 -70q1 -39 26 -65t64 -26zM594 381h-1q-16 0 -31.5 -5.5t-31.5 -19t-24 -21.5t-24.5 -27t-18.5 -21q46 -54 73 -74.5t60 -20.5q37 0 60 28.5t23 63.5q0 44 -23.5 70.5t-61.5 26.5z" />
    <glyph glyph-name="integral" unicode="&#x222b;" horiz-adv-x="478" 
d="M456 841l-11 -62q-13 8 -29 8q-26 0 -42 -24q-26 -36 -26 -174q0 -78 5.5 -244t5.5 -251q0 -139 -35 -201q-29 -56 -97 -56q-34 0 -57 14l13 64q21 -9 35 -9q25 0 38 22q25 38 25 165q0 86 -5.5 255t-5.5 248q0 157 47 215q35 41 91 41q28 0 48 -11z" />
    <glyph glyph-name="approxequal" unicode="&#x2248;" horiz-adv-x="552" 
d="M484 420l33 -26q-17 -41 -45.5 -66t-65.5 -25q-36 0 -95 36q-48 30 -75 30q-26 0 -43.5 -17t-34.5 -49l-34 26q19 42 49.5 66.5t68.5 24.5q26 0 53.5 -13t38.5 -22q3 -2 11.5 -7t11.5 -6.5t10 -5.5t11 -5.5l9.5 -3.5t11 -2.5t10.5 -0.5q40 0 75 66zM484 265l33 -27
q-40 -90 -111 -90q-38 0 -95 35q-48 32 -75 32q-26 0 -43 -17t-35 -50l-34 26q18 42 49 66.5t68 24.5q12 0 23.5 -2t22 -7l17.5 -8.5t17 -9.5t13 -8l15.5 -9.5t16 -9t13.5 -6.5t15.5 -5.5t14.5 -1.5q24 0 40 16t35 51z" />
    <glyph glyph-name="notequal" unicode="&#x2260;" horiz-adv-x="567" 
d="M440 478l-36 -81h121v-53h-139l-54 -124h193v-53h-212l-42 -98l-41 16l36 82h-119v53h138l53 124h-191v53h210l42 97z" />
    <glyph glyph-name="lessequal" unicode="&#x2264;" horiz-adv-x="583" 
d="M539 106l-371 204v56l371 204v-64l-319 -166v-2l319 -168v-64zM543 15h-379v54h379v-54z" />
    <glyph glyph-name="greaterequal" unicode="&#x2265;" horiz-adv-x="582" 
d="M170 570l371 -204v-56l-371 -204v64l318 167v2l-318 167v64zM542 15h-377v54h377v-54z" />
    <glyph glyph-name="lozenge" unicode="&#x25ca;" horiz-adv-x="637" 
d="M592 347l-167 -386h-68l-161 386l166 386h68zM517 345l-105 252q-10 26 -16 60h-3q-9 -40 -17 -60l-106 -248l106 -256q6 -18 15 -57h4q4 30 15 56z" />
    </font>
</defs>
</svg>
