<?xml version="1.0" standalone="no"?>
<!DOCTYPE svg PUBLIC "-//W3C//DTD SVG 1.1//EN" "http://www.w3.org/Graphics/SVG/1.1/DTD/svg11.dtd" >
<svg>
<metadata>
Created by FontForge 20090622 at Fri Nov 11 13:00:12 2016
 By deploy user
Copyright &#194;&#169; 1987, 1991, 1999, 2002 Adobe Systems Incorporated.  All Rights Reserved. &#194;&#169; 1981, 1999, 2002 Heidelberger Druckmaschinen AG. All rights reserved.
</metadata>
<defs>
<font id="UniversLTStd-LightCnObl" horiz-adv-x="444" >
  <font-face 
    font-family="Univers LT Std 47 Cn Lt"
    font-weight="300"
    font-style="italic"
    font-stretch="condensed"
    units-per-em="1000"
    panose-1="2 11 4 6 2 2 2 4 2 4"
    ascent="724"
    descent="-276"
    x-height="505"
    cap-height="722"
    bbox="-169 -271 1065 953"
    underline-thickness="50"
    underline-position="-50"
    slope="-12"
    unicode-range="U+0020-U+FB02"
  />
<missing-glyph horiz-adv-x="648" 
d="M148 0v700h500v-700h-500zM398 395l170 255h-340zM428 350l170 -255v510zM228 50h340l-170 255zM198 605v-510l170 255z" />
    <glyph glyph-name="fi" unicode="fi" 
d="M369 0h-60l107 505h60zM513 646h-74l16 76h74zM100 0l97 457h-81l10 48h81l18 85q6 25 13 43t23.5 42t47.5 37.5t74 13.5q5 0 33 -4l-10 -50h-45q-20 0 -34.5 -8t-22.5 -22.5t-11.5 -24.5t-6.5 -26l-19 -86h102l-10 -48h-102l-97 -457h-60z" />
    <glyph glyph-name="fl" unicode="fl" 
d="M100 0l97 457h-81l10 48h81l18 85q6 25 13 43t23.5 42t47.5 37.5t74 13.5q5 0 33 -4l-10 -50h-45q-20 0 -34.5 -8t-22.5 -22.5t-11.5 -24.5t-6.5 -26l-19 -86h102l-10 -48h-102l-97 -457h-60zM368 0h-60l153 722h60z" />
    <glyph glyph-name=".notdef" horiz-adv-x="648" 
d="M148 0v700h500v-700h-500zM398 395l170 255h-340zM428 350l170 -255v510zM228 50h340l-170 255zM198 605v-510l170 255z" />
    <glyph glyph-name=".null" horiz-adv-x="0" 
 />
    <glyph glyph-name="nonmarkingreturn" horiz-adv-x="333" 
 />
    <glyph glyph-name="space" unicode=" " horiz-adv-x="222" 
 />
    <glyph glyph-name="exclam" unicode="!" horiz-adv-x="333" 
d="M129 0l16 76h74l-16 -76h-74zM228 170h-52l108 552h70z" />
    <glyph glyph-name="quotedbl" unicode="&#x22;" horiz-adv-x="309" 
d="M182 515l44 207h52l-44 -207h-52zM293 515l44 207h52l-44 -207h-52z" />
    <glyph glyph-name="numbersign" unicode="#" 
d="M32 0l120 233h-110l27 48h107l63 123h-109l27 48h105l124 245h52l-124 -245h77l123 245h52l-123 -245h105l-26 -48h-102l-63 -123h103l-26 -48h-100l-118 -233h-55l120 233h-77l-120 -233h-52zM227 281h77l64 123h-76z" />
    <glyph glyph-name="dollar" unicode="$" 
d="M289 404l53 250q-96 -12 -116 -107q-10 -50 7 -82.5t56 -60.5zM309 310l-57 -267q52 4 82 30.5t42 82.5q12 54 -6.5 89t-60.5 65zM241 -11l-17 -78h-40l17 78q-85 5 -114.5 53.5t-7.5 149.5h64q-18 -69 -3.5 -106t72.5 -43l62 290q-21 13 -29.5 19t-26.5 20t-26 23.5
t-18.5 26.5t-14 33t-3.5 38t5 47q17 77 67.5 118.5t124.5 49.5l14 63h40l-14 -63q86 -3 114.5 -50t5.5 -141h-64q16 61 2 97t-69 40l-58 -272q68 -42 89 -67q49 -55 31 -142q-37 -173 -203 -184z" />
    <glyph glyph-name="percent" unicode="%" horiz-adv-x="778" 
d="M278 344q-131 0 -92 176q8 39 19 68.5t30 58.5t49.5 45t70.5 16q48 0 73.5 -24.5t27 -62.5t-6.5 -83q-8 -39 -19 -69t-30 -61t-50 -47.5t-72 -16.5zM288 392q26 0 46 12.5t31.5 35.5t18 42t11.5 44q27 134 -50 134q-79 0 -106 -134q-5 -26 -7 -44t-0.5 -41.5t16 -36
t40.5 -12.5zM571 -11q-51 0 -76.5 25.5t-25 64.5t8.5 86q8 39 19 68.5t30 58.5t50 45t71 16q48 0 73.5 -24.5t27 -62.5t-6.5 -83q-8 -39 -19 -69t-30 -61t-50 -47.5t-72 -16.5zM581 37q26 0 45.5 12.5t31.5 35.5t18 41.5t11 44.5q30 134 -49 134q-77 0 -107 -134
q-5 -26 -7 -44.5t0 -41.5t16.5 -35.5t40.5 -12.5zM248 -39h-46l465 761h46z" />
    <glyph glyph-name="ampersand" unicode="&#x26;" horiz-adv-x="611" 
d="M446 122l-143 232q-68 -42 -98 -73.5t-43 -90.5q-31 -150 123 -150q44 0 88.5 22t72.5 60zM333 431q39 25 62 42.5t46 48t31 65.5q20 95 -68 95q-44 0 -75.5 -24t-41.5 -68q-2 -12 -3.5 -22.5t-0.5 -21t1.5 -17.5t5 -18t5.5 -15.5t8 -16.5t9 -15t10.5 -17t10.5 -16z
M515 0l-39 72q-52 -50 -105 -68t-125 -18q-82 0 -126.5 48t-21.5 155q7 33 19.5 59.5t23.5 43t37.5 38t41 31.5l54.5 36l-17.5 28l-17 27.5t-12 25t-9 30t-1.5 31t4 38.5q17 82 66 120.5t133 38.5q72 0 102.5 -35t12.5 -118q-4 -20 -10.5 -37t-20 -34.5l-20.5 -27t-29 -27
t-27 -22t-34.5 -25l-32.5 -22.5l127 -206q19 37 40.5 105.5t32.5 117.5h60q-38 -172 -101 -278l77 -127h-82z" />
    <glyph glyph-name="quotesingle" unicode="'" horiz-adv-x="198" 
d="M182 515l44 207h52l-44 -207h-52z" />
    <glyph glyph-name="parenleft" unicode="(" horiz-adv-x="222" 
d="M275 743h45q-124 -266 -159 -434q-45 -209 -27 -441h-49q-28 257 8 426q43 200 182 449z" />
    <glyph glyph-name="parenright" unicode=")" horiz-adv-x="222" 
d="M218 743h45q33 -250 -10 -449q-36 -168 -172 -426h-49q117 235 161 441q36 171 25 434z" />
    <glyph glyph-name="asterisk" unicode="*" 
d="M352 610l86 126l39 -28l-100 -112l138 11l-11 -53l-133 14l54 -114l-54 -29l-32 127l-86 -127l-42 29l104 114l-139 -14l11 53l134 -11l-54 112l51 28z" />
    <glyph glyph-name="plus" unicode="+" 
d="M244 227h-176l11 52h176l48 226h52l-48 -226h176l-11 -52h-176l-48 -227h-52z" />
    <glyph glyph-name="comma" unicode="," horiz-adv-x="222" 
d="M32 -105l78 181h73l-98 -181h-53z" />
    <glyph glyph-name="hyphen" unicode="-" horiz-adv-x="278" 
d="M291 238h-202l12 57h202z" />
    <glyph glyph-name="period" unicode="." horiz-adv-x="222" 
d="M74 0l16 76h74l-16 -76h-74z" />
    <glyph glyph-name="slash" unicode="/" horiz-adv-x="333" 
d="M27 -110h-53l460 832h54z" />
    <glyph glyph-name="zero" unicode="0" 
d="M211 485l-58 -273q-8 -38 -9 -67t5 -46.5t14 -29.5t21 -17t23.5 -7t23.5 -2q21 0 38.5 5t40 20t41 52t30.5 92l58 273q8 38 9 67t-5 46.5t-14 29.5t-21 17t-23.5 7t-23.5 2q-21 0 -38.5 -5t-40 -20t-41 -52t-30.5 -92zM372 708q37 0 64 -9.5t42.5 -23t23 -39t10 -45
t-1.5 -54.5t-8 -55.5t-12 -57.5l-32 -151q-8 -38 -12.5 -57.5t-15.5 -55t-21.5 -55t-29 -45t-39.5 -39t-52 -23t-68 -9.5t-64 9.5t-42.5 23t-23 39t-10 45t1.5 54.5t8 55.5t12 57.5l32 151q8 38 12.5 57.5t15.5 55t21.5 55t29 45t39.5 39t52 23t68 9.5z" />
    <glyph glyph-name="one" unicode="1" 
d="M199 519l15 69q98 59 149 109h56l-148 -697h-60l131 617q-74 -58 -143 -98z" />
    <glyph glyph-name="two" unicode="2" 
d="M405 54l-11 -54h-355l12 56l142.5 161.5l128 144t80 101.5t44.5 86q13 63 -14 84t-78 21q-55 0 -92 -35.5t-49 -91.5h-60q21 95 81 138t131 43q34 0 61.5 -6.5t52 -21t34 -45t0.5 -72.5q-4 -17 -8.5 -32t-15 -34t-19 -33t-29.5 -40.5l-37 -46l-50.5 -59l-61.5 -70
l-78.5 -89l-93.5 -105.5h285z" />
    <glyph glyph-name="three" unicode="3" 
d="M242 334l11 54q150 -13 183 142q26 124 -84 124q-57 0 -89.5 -34.5t-42.5 -92.5h-64q12 79 65.5 130t133.5 51q91 0 128.5 -40t17.5 -130q-31 -150 -146 -176v-2q114 -12 79 -170q-20 -97 -75.5 -149t-140.5 -52q-192 0 -148 182h64q-14 -59 7.5 -93.5t78.5 -34.5
q120 0 147 133q20 93 -5.5 129t-119.5 29z" />
    <glyph glyph-name="four" unicode="4" 
d="M130 228h196l87 409h-2zM486 697l-100 -469h82l-11 -54h-82l-37 -174h-60l37 174h-250l12 58l314 465h95z" />
    <glyph glyph-name="five" unicode="5" 
d="M338 446q40 0 67.5 -10.5t41 -27.5t19.5 -40.5t5 -47t-5.5 -49.5t-8.5 -46q-2 -5 -2 -7q-10 -48 -25 -85.5t-40.5 -72t-66.5 -53t-95 -18.5q-181 0 -140 178h64q-14 -61 6 -92.5t80 -31.5q37 0 65 15t45 42.5t26.5 54t16.5 63.5q9 39 11 65t-3 53.5t-27 41.5t-62 14
q-37 0 -73.5 -19.5t-50.5 -53.5h-58l80 378h321l-11 -54h-261l-53 -249q38 29 66 40.5t68 11.5z" />
    <glyph glyph-name="six" unicode="6" 
d="M384 224q19 81 2.5 121t-76.5 40q-123 0 -159 -167l-1 -3q-29 -118 26 -157q21 -15 56 -15q31 0 55.5 11.5t39.5 27.5t27 43t17.5 47.5t12.5 51.5zM508 542h-64q18 112 -78 112q-35 0 -62 -15t-43.5 -35t-30.5 -55t-20.5 -60t-14.5 -66l-13 -61l2 1q55 76 153 76
q34 0 59 -10.5t38 -24t19.5 -37t8 -38.5t-1.5 -39.5t-4.5 -29.5t-4.5 -18q-12 -59 -25.5 -98.5t-38 -78t-64 -57.5t-94.5 -19q-50 0 -82 12t-48 31t-19.5 52t0 64t13.5 79l49 228q29 136 79 194.5t160 58.5q159 0 127 -166z" />
    <glyph glyph-name="seven" unicode="7" 
d="M169 643l11 54h353l-13 -64l-350 -633h-70l361 643h-292z" />
    <glyph glyph-name="eight" unicode="8" 
d="M304 388q112 0 141 137q14 67 -3 101t-80 34t-94 -34t-45 -101q-29 -137 81 -137zM372 367v-2q43 -10 63 -36t18.5 -61t-9.5 -79q-8 -39 -21.5 -70.5t-38 -63t-66.5 -49t-98 -17.5q-182 0 -140 200q16 74 47.5 118t100.5 58l-2 2q-38 9 -56.5 34t-17.5 58.5t9 74.5
q5 25 10.5 43t20.5 45t36 44t58 29.5t86 12.5t81 -12.5t45.5 -29.5t17.5 -44t2 -44.5t-7 -43.5q-15 -69 -45.5 -112t-93.5 -55zM230 37q118 0 148 144q7 34 9 57.5t-3.5 49t-28 39t-61.5 13.5t-67 -13.5t-44.5 -39t-25 -49t-15.5 -57.5q-30 -144 88 -144z" />
    <glyph glyph-name="nine" unicode="9" 
d="M286 329q122 0 153 157q7 33 10 51.5t2.5 44.5t-9 39t-29.5 23t-54 10q-67 0 -99 -43.5t-48 -116.5q-7 -40 -9.5 -77t18 -62.5t65.5 -25.5zM268 275q-91 0 -117.5 52.5t-2.5 166.5q22 102 72 158t148 56q37 0 64 -6.5t44 -17t26 -30.5t12.5 -38.5t0 -51t-8 -58
t-13.5 -68.5l-18 -86l-16 -72.5l-14.5 -62.5t-15.5 -56t-17 -46t-19.5 -40t-23 -31t-28 -25t-33 -16t-40 -11t-47.5 -3q-88 0 -120.5 39t-16.5 127h64q-26 -112 76 -112q36 0 60.5 9.5t41.5 26t30 50.5t23 71.5t24 99.5q5 24 8 36h-2q-55 -61 -141 -61z" />
    <glyph glyph-name="colon" unicode=":" horiz-adv-x="222" 
d="M74 0l16 76h74l-16 -76h-74zM165 429l16 76h74l-16 -76h-74z" />
    <glyph glyph-name="semicolon" unicode=";" horiz-adv-x="222" 
d="M18 -105l78 181h73l-98 -181h-53zM165 429l16 76h74l-16 -76h-74z" />
    <glyph glyph-name="less" unicode="&#x3c;" 
d="M68 231l9 44l457 234l-12 -56l-396 -195l-1 -5l312 -201l-12 -56z" />
    <glyph glyph-name="equal" unicode="=" 
d="M502 368l-11 -52h-404l11 52h404zM464 190l-11 -52h-404l11 52h404z" />
    <glyph glyph-name="greater" unicode="&#x3e;" 
d="M484 275l-9 -44l-457 -235l12 56l398 201l1 5l-314 195l12 56z" />
    <glyph glyph-name="question" unicode="?" horiz-adv-x="389" 
d="M245 170h-60l19 87q10 45 27.5 77t37 52l39.5 41t38 56.5t29 86.5q5 24 7 37.5t1.5 29.5t-7 24.5t-20 14.5t-35.5 6q-46 0 -67.5 -31t-30.5 -82h-64q28 167 172 167q83 0 105 -39t3 -128q-11 -52 -31 -92.5t-41 -64.5t-41.5 -45t-37 -46.5t-23.5 -56.5zM143 0l16 76h74
l-16 -76h-74z" />
    <glyph glyph-name="at" unicode="@" horiz-adv-x="800" 
d="M374 194q75 0 131 85q33 50 68.5 118t40.5 92q6 28 -11.5 50.5t-52.5 22.5q-73 0 -143 -84.5t-88 -165.5q-12 -57 2.5 -87.5t52.5 -30.5zM654 541l25 49h55l-171 -314q-22 -37 -27 -59q-2 -12 11 -17.5t37 -5.5q55 0 106 41.5t78 88t35 81.5q8 39 9 72.5t-5.5 59
t-16.5 46.5t-26 36t-33 27t-38 19t-39.5 12t-39.5 7t-36 3t-32 1q-133 0 -245 -95t-141 -232t42.5 -232t204.5 -95q95 0 182.5 37t151.5 105h53q-68 -90 -173.5 -140t-223.5 -50q-151 0 -234.5 110t-50.5 265t163 265t281 110q60 0 110 -10.5t93 -33.5t67.5 -59.5t34 -89.5
t-6.5 -123q-25 -118 -115 -196t-176 -78q-38 0 -57 10.5t-21 39.5q-66 -50 -135 -50q-60 0 -83.5 43.5t-9.5 110.5q15 72 58 142t110 119t137 49q76 0 92 -69z" />
    <glyph glyph-name="A" unicode="A" horiz-adv-x="556" 
d="M394 722h76l72 -722h-67l-18 190h-283l-97 -190h-64zM205 244h247l-36 408h-2z" />
    <glyph glyph-name="B" unicode="B" horiz-adv-x="500" 
d="M217 401h123q122 0 152 145q5 25 5.5 44.5t-3 32t-12 21.5t-16 13.5t-21 7t-22 3t-22.5 0.5h-127zM272 0h-204l153 722h201q87 0 121 -40t14 -133q-16 -73 -45.5 -114t-96.5 -58v-2q64 -14 81 -57t2 -117q-21 -98 -78.5 -149.5t-147.5 -51.5zM206 347l-63 -293h102
q82 0 126.5 32t61.5 110q31 151 -97 151h-130z" />
    <glyph glyph-name="C" unicode="C" horiz-adv-x="500" 
d="M272 -14q-35 0 -62.5 7t-47 17.5t-31.5 30t-19.5 37t-8.5 47.5t0 52t7 59t10.5 60.5t13.5 64.5l14 65t15 60.5t18.5 59t22 51.5t28 47.5t35.5 37t44.5 30t54 17.5t65.5 7q50 0 82 -16.5t45 -37.5t15.5 -54t0 -53.5t-8.5 -47.5h-64q33 155 -81 155q-28 0 -51.5 -5
t-42 -18.5t-32.5 -26.5t-26.5 -39t-21 -45.5t-18 -56t-15 -60.5l-15.5 -70q-8 -35 -12 -56l-9.5 -51t-7 -47.5t-2.5 -41t2 -37t7.5 -30t14 -25.5t22.5 -17.5t30.5 -12t40.5 -3.5q112 0 150 167h68q-5 -22 -12 -44t-25 -56t-41.5 -59t-63.5 -43.5t-88 -18.5z" />
    <glyph glyph-name="D" unicode="D" horiz-adv-x="556" 
d="M281 668l-131 -614h78q51 0 84 4.5t62 20.5t46.5 37t34.5 64.5t29.5 92t29.5 128.5q37 155 9 211t-158 56h-84zM75 0l153 722h191q50 0 85 -9.5t55.5 -31t30 -48.5t8.5 -71.5t-8 -90.5t-21 -113q-21 -98 -43 -158.5t-58.5 -109t-91.5 -69.5t-136 -21h-165z" />
    <glyph glyph-name="E" unicode="E" 
d="M228 722h327l-11 -54h-263l-57 -270h251l-12 -54h-251l-62 -290h270l-11 -54h-334z" />
    <glyph glyph-name="F" unicode="F" horiz-adv-x="389" 
d="M68 0l153 722h305l-11 -54h-241l-57 -270h224l-12 -54h-224l-73 -344h-64z" />
    <glyph glyph-name="G" unicode="G" horiz-adv-x="556" 
d="M426 61l56 262h-146l11 54h210l-77 -361q-102 -30 -205 -30q-53 0 -89.5 15.5t-53 44t-24 61t-3 75.5t10.5 77.5t15 75.5q4 18 6 26q28 134 45 182q69 188 242 193h10q106 0 147 -48t17 -151h-64q15 73 -11 109t-100 36q-26 0 -48 -5.5t-38.5 -13t-32 -25t-25.5 -30
t-21 -39.5t-17 -43.5t-14.5 -51.5t-12.5 -53.5l-13 -59.5q-34 -159 -31 -214q4 -92 85 -105q15 -2 32 -2q79 0 139 21z" />
    <glyph glyph-name="H" unicode="H" horiz-adv-x="556" 
d="M136 0h-64l153 722h64l-68 -324h284l68 324h64l-153 -722h-64l73 344h-284z" />
    <glyph glyph-name="I" unicode="I" horiz-adv-x="222" 
d="M232 722h64l-153 -722h-64z" />
    <glyph glyph-name="J" unicode="J" 
d="M65 204h64q-8 -36 -10 -60.5t3 -50.5t25.5 -39.5t56.5 -13.5q111 0 137 125l118 557h64l-120 -566q-10 -48 -34.5 -82.5t-48.5 -51t-56 -25.5t-45.5 -10t-27.5 -1q-46 0 -76 13.5t-43.5 33t-17 50.5t-0.5 57.5t11 63.5z" />
    <glyph glyph-name="K" unicode="K" horiz-adv-x="500" 
d="M142 0h-64l153 722h64l-70 -331h2l326 331h77l-341 -337l196 -385h-80l-182 370h-2z" />
    <glyph glyph-name="L" unicode="L" horiz-adv-x="389" 
d="M370 0h-303l153 722h64l-142 -668h239z" />
    <glyph glyph-name="M" unicode="M" horiz-adv-x="778" 
d="M135 0h-64l153 722h109l75 -652h2l348 652h102l-153 -722h-64l140 660h-2l-352 -660h-74l-78 660h-2z" />
    <glyph glyph-name="N" unicode="N" horiz-adv-x="611" 
d="M141 0h-64l153 722h98l159 -634l2 2l134 632h64l-153 -722h-97l-158 641l-2 -2z" />
    <glyph glyph-name="O" unicode="O" horiz-adv-x="556" 
d="M201 361q-8 -35 -12 -56l-9.5 -51t-7 -47.5t-2.5 -41t2 -37t7.5 -30t14 -25.5t22.5 -17.5t30.5 -12t40.5 -3.5q28 0 51.5 5t42 18.5t32.5 26.5t26.5 39t21 45.5t18 56t15 60.5l15.5 70q8 35 12 56l9.5 51t7 47.5t2.5 41t-2 37t-7.5 30t-14 25.5t-22.5 17.5t-30.5 12
t-40.5 3.5q-28 0 -51.5 -5t-42 -18.5t-32.5 -26.5t-26.5 -39t-21 -45.5t-18 -56t-15 -60.5zM137 361l14 65t15 60.5t18.5 59t22 51.5t28 47.5t35.5 37t44.5 30t54 17.5t65.5 7t62.5 -7t47 -17.5t31.5 -30t19.5 -37t8.5 -47.5t0.5 -51.5t-6.5 -59t-10.5 -60.5t-13.5 -65
q-10 -48 -16 -73t-17.5 -67t-22.5 -65t-27.5 -54.5t-36.5 -49t-46 -34.5t-59 -24.5t-73 -7.5q-35 0 -62.5 7t-47 17.5t-31.5 30t-19.5 37t-8.5 47.5t0 52t7 59t10.5 60.5t13.5 64.5z" />
    <glyph glyph-name="P" unicode="P" 
d="M64 0l153 722h198q16 0 28 -1t28.5 -4.5t28 -10.5t23 -20t16.5 -31t5 -45.5t-7 -62.5q-24 -110 -74 -160.5t-142 -50.5h-122l-71 -336h-64zM270 668l-59 -278h119q54 0 89 32.5t52 112.5q6 30 7 52.5t-4 36.5t-12.5 23.5t-20.5 13.5t-24.5 5.5t-28.5 1.5h-118z" />
    <glyph glyph-name="Q" unicode="Q" horiz-adv-x="556" 
d="M289 50q40 0 71.5 15.5t53.5 40.5t40 67t30 84.5t25 103.5q33 157 31 210q-3 94 -81 108q-16 3 -36 3q-26 0 -48 -5.5t-38.5 -13t-32 -25t-25.5 -30t-21 -39.5t-17 -43.5t-14.5 -51.5t-12.5 -53.5l-13 -59.5q-12 -58 -18.5 -96t-9.5 -76.5t2.5 -61.5t18.5 -42t36.5 -27
t58.5 -8zM137 361q28 134 45 182q69 188 242 193h10q165 0 170 -159q2 -60 -28 -200q-2 -9 -3 -16q-31 -145 -61 -209t-86 -96l1 -2h126l-11 -54h-138q-15 0 -43 -2q-32 -2 -53 -2q-155 0 -190 78q-26 58 1 201z" />
    <glyph glyph-name="R" unicode="R" horiz-adv-x="500" 
d="M327 350h-121l-74 -350h-64l153 722h199q102 0 130.5 -38t7.5 -135q-16 -76 -47 -116.5t-102 -55.5v-2q21 -5 32 -8t23 -10.5t16.5 -14.5t7.5 -24t1.5 -33.5t-6 -49.5t-11.5 -65l-18 -86q-3 -16 -6.5 -46.5t-4.5 -37.5h-61q-1 16 28 180q0 2 4.5 19t6 29t3 31.5
t-3.5 33.5t-14.5 28t-29.5 21.5t-49 7.5zM274 668l-56 -264h104q76 0 114.5 29.5t57.5 116.5q15 70 -6.5 94t-82.5 24h-131z" />
    <glyph glyph-name="S" unicode="S" horiz-adv-x="500" 
d="M558 539h-65q13 73 -5 108t-87 35q-62 0 -100 -25.5t-51 -86.5q-5 -22 -5.5 -39.5t3.5 -30.5t10 -22.5t17 -19t21 -16.5l26 -18.5t28 -22.5q12 -10 28.5 -22t28.5 -20t26 -19.5t23.5 -21.5t17.5 -24.5t11.5 -30.5t3 -37.5t-5.5 -47.5q-42 -192 -233 -192q-207 0 -152 217
h66q-6 -29 -8.5 -48t0 -43t13 -38t35 -24t61.5 -10q124 0 152 128q4 18 3.5 34t-2 27.5t-10 25l-13.5 21t-21.5 20.5l-24 18.5l-30 21.5l-31.5 22q-59 41 -84.5 74t-26 62t6.5 65q18 90 79 133.5t154 43.5q103 0 131.5 -53.5t9.5 -143.5z" />
    <glyph glyph-name="T" unicode="T" 
d="M190 0l142 668h-176l11 54h416l-11 -54h-176l-142 -668h-64z" />
    <glyph glyph-name="U" unicode="U" horiz-adv-x="556" 
d="M284 722l-96 -454q-7 -32 -10 -50.5t-6 -49.5t2.5 -50t17 -39t36 -29.5t59.5 -9.5q42 0 75 16t51.5 36t34 56.5t21 58t13.5 61.5l96 454h64l-106 -501q-51 -235 -261 -235q-212 0 -161 235l106 501h64z" />
    <glyph glyph-name="V" unicode="V" horiz-adv-x="500" 
d="M266 76l315 646h62l-353 -722h-80l-48 722h68l34 -646h2z" />
    <glyph glyph-name="W" unicode="W" horiz-adv-x="833" 
d="M244 84l282 638h86l11 -633h2l288 633h63l-332 -722h-84l-9 642h-2l-285 -642h-80l-21 722h68l11 -638h2z" />
    <glyph glyph-name="X" unicode="X" horiz-adv-x="500" 
d="M177 722h70l89 -301l222 301h68l-260 -349l124 -373h-75l-101 330l-237 -330h-68l273 373z" />
    <glyph glyph-name="Y" unicode="Y" horiz-adv-x="500" 
d="M217 0l64 300l-115 422h72l89 -359l249 359h64l-295 -422l-64 -300h-64z" />
    <glyph glyph-name="Z" unicode="Z" 
d="M197 722h373l-15 -71l-454 -597h330l-11 -54h-396l15 71l457 597h-310z" />
    <glyph glyph-name="bracketleft" unicode="[" horiz-adv-x="222" 
d="M22 -132l186 875h139l-10 -48h-79l-166 -779h79l-10 -48h-139z" />
    <glyph glyph-name="backslash" unicode="\" horiz-adv-x="222" 
d="M204 0l-86 722h53l86 -722h-53z" />
    <glyph glyph-name="bracketright" unicode="]" horiz-adv-x="222" 
d="M330 743l-186 -875h-139l10 48h79l166 779h-79l10 48h139z" />
    <glyph glyph-name="asciicircum" unicode="^" 
d="M351 708h42l48 -410h-47l-38 334h-2l-178 -334h-47z" />
    <glyph glyph-name="underscore" unicode="_" horiz-adv-x="500" 
d="M473 -125h-500l11 50h500z" />
    <glyph glyph-name="grave" unicode="`" horiz-adv-x="278" 
d="M322 560h-50l-114 137h80z" />
    <glyph glyph-name="a" unicode="a" 
d="M353 166l20 92q-5 0 -33.5 -0.5t-38 -1.5t-35 -4t-37.5 -7t-31.5 -13t-30 -20.5t-20.5 -29.5t-15 -40q-10 -45 7.5 -74.5t61.5 -29.5q51 0 96 39t56 89zM322 0l13 62h-2q-63 -72 -158 -72q-66 0 -94 40.5t-13 108.5q7 32 20.5 57.5t29.5 42t39 29t43 18.5t48 10t46.5 5.5
t47 2.5t41.5 2l9 42q13 59 -3.5 89t-73.5 30q-44 0 -76 -22t-41 -65h-64q18 69 71.5 102t124.5 33q12 0 21.5 -0.5t24 -2.5t24.5 -5.5t23.5 -10t20 -16.5t14 -24t6 -32.5t-4.5 -42.5l-54 -254q-13 -57 -21 -127h-62z" />
    <glyph glyph-name="b" unicode="b" 
d="M176 260q-6 -28 -9 -45t-6.5 -47.5t-0.5 -49.5t10 -39.5t24.5 -30.5t43.5 -10q32 0 57 12t40 28t27.5 48t19 56.5t15.5 68.5q8 37 11.5 58t6.5 50t-1 45t-12.5 32.5t-27 23.5t-45.5 7q-109 0 -153 -207zM119 0h-62q12 30 17 50l142 672h60l-58 -274l2 -2q59 69 142 69
q37 0 62 -11t36.5 -32.5t17 -43t2 -53.5t-7 -53t-10.5 -51q-3 -12 -4 -18q-9 -41 -17 -70.5t-25.5 -69t-38.5 -64t-55 -42t-76 -17.5q-89 0 -112 71h-2z" />
    <glyph glyph-name="c" unicode="c" horiz-adv-x="389" 
d="M423 360h-60q27 107 -67 107q-60 0 -93 -58q-23 -41 -48 -159q-7 -32 -10 -48t-7 -46.5t-1.5 -47t8.5 -35t21 -27t37 -8.5q54 0 78 28t38 83h60q-8 -48 -29.5 -82t-48.5 -49t-50 -21.5t-44 -6.5q-31 0 -55 5.5t-39 18t-25 25t-13 35.5t-4 38.5t3.5 45l7 45t9.5 47.5
q27 124 51 167q56 98 172 98q68 0 98.5 -39t10.5 -116z" />
    <glyph glyph-name="d" unicode="d" 
d="M220 38q47 0 88 41.5t59 127.5l19 90q3 15 5.5 30t2.5 42.5t-6.5 47t-26.5 35t-52 15.5q-26 0 -47 -7t-36 -24t-25 -32t-19 -45.5t-14 -49.5t-13 -58q-15 -68 -16.5 -112t10 -65.5t28 -28.5t43.5 -7zM329 0l11 64l-3 -1q-62 -73 -143 -73q-35 0 -59.5 10.5t-36.5 32
t-17.5 44t-3 56.5t6.5 59t12 61l10 45.5t13.5 48.5t19 50.5t26 44t35.5 39t46.5 24.5t59.5 10q75 0 110 -60l1 -1l57 268h60l-132 -622q-13 -65 -15 -100h-58z" />
    <glyph glyph-name="e" unicode="e" 
d="M447 240h-288l-8 -39q-6 -37 -7.5 -73.5t20.5 -63t66 -26.5q55 0 90 31.5t46 84.5h63q-44 -164 -209 -164q-175 0 -134 188l26 124q45 213 219 213q29 0 51 -5t37.5 -12t26 -21.5t16.5 -26.5t7 -34t1 -37.5t-4.5 -44t-8 -45zM169 288h228q22 84 7 131.5t-83 47.5
q-67 0 -99.5 -43.5t-52.5 -135.5z" />
    <glyph glyph-name="f" unicode="f" horiz-adv-x="278" 
d="M100 0l97 457h-81l10 48h81l18 85q6 25 13 43t23.5 42t47.5 37.5t74 13.5q5 0 33 -4l-10 -50h-45q-20 0 -34.5 -8t-22.5 -22.5t-11.5 -24.5t-6.5 -26l-19 -86h102l-10 -48h-102l-97 -457h-60z" />
    <glyph glyph-name="g" unicode="g" 
d="M307 467q-30 0 -54 -15t-38.5 -34t-27 -51t-17.5 -52t-12 -51q-8 -36 -11 -53t-6.5 -47t0 -45t11.5 -32.5t26 -25t44 -7.5q34 0 62.5 18t41.5 39q18 31 29.5 67.5t33.5 142.5q16 74 -9.5 110t-72.5 36zM419 442l14 64h59q-17 -63 -24 -99l-91 -425q-19 -90 -66 -133.5
t-149 -43.5q-36 0 -62 10t-38.5 24.5t-18.5 34t-5 37t6 34.5h60q-12 -42 10.5 -67t65.5 -25q41 0 65.5 9.5t40.5 36.5t24 56t20 87q3 16 5 25h-2q-50 -61 -135 -61q-35 0 -59.5 9.5t-37 28t-19 38.5t-4.5 50t5.5 54t10.5 57q18 86 25 108t26 64q5 11 16 25t30.5 32.5
t50 30.5t66.5 12q39 0 69.5 -19t39.5 -52z" />
    <glyph glyph-name="h" unicode="h" 
d="M121 0h-60l153 722h60l-59 -279h2q65 72 137 72q139 0 105 -159l-76 -356h-60l75 353q11 49 -4.5 81.5t-64.5 32.5q-46 0 -85 -36t-56 -114z" />
    <glyph glyph-name="i" unicode="i" horiz-adv-x="222" 
d="M141 0h-60l107 505h60zM285 646h-74l16 76h74z" />
    <glyph glyph-name="j" unicode="j" horiz-adv-x="222" 
d="M192 505h60l-127 -598q-22 -102 -119 -102q-34 0 -44 4l11 50q52 -4 70 12.5t29 68.5zM289 646h-74l16 76h74z" />
    <glyph glyph-name="k" unicode="k" horiz-adv-x="389" 
d="M63 0l153 722h60l-93 -440h2l221 223h70l-226 -225l131 -280h-76l-122 275h-2l-58 -275h-60z" />
    <glyph glyph-name="l" unicode="l" horiz-adv-x="222" 
d="M141 0h-60l153 722h60z" />
    <glyph glyph-name="m" unicode="m" horiz-adv-x="667" 
d="M189 325l-69 -325h-60l108 506h54l-14 -63h2q58 72 135 72q40 0 67 -21t32 -58q55 79 140 79q61 0 87 -38t15 -101l-80 -376h-60l77 361q8 44 -4 75t-52 31q-53 0 -88 -42.5t-47 -99.5l-69 -325h-60l77 361q8 44 -4 75t-52 31q-53 0 -88 -42.5t-47 -99.5z" />
    <glyph glyph-name="n" unicode="n" 
d="M188 317l-67 -317h-60l107 505h60l-13 -62h2q65 72 137 72q139 0 105 -159l-76 -356h-60l75 353q11 49 -4.5 81.5t-64.5 32.5q-46 0 -85 -36t-56 -114z" />
    <glyph glyph-name="o" unicode="o" 
d="M220 -10q-87 0 -119 54t-11 154l23 109q21 100 76 154t142 54t119 -54t11 -154l-23 -109q-21 -100 -76 -154t-142 -54zM321 467q-69 0 -102 -51.5t-57 -162.5q-9 -43 -13 -73.5t-3.5 -59t9.5 -45.5t27.5 -27t47.5 -10q69 0 102.5 52t57.5 163q12 54 15 89.5t-2 66
t-25.5 44.5t-56.5 14z" />
    <glyph glyph-name="p" unicode="p" 
d="M186 298l-19 -90q-17 -82 5 -126t66 -44q69 0 102.5 52t57.5 163q12 54 15 89.5t-2 66t-25.5 44.5t-56.5 14q-37 0 -81 -42.5t-62 -126.5zM228 505l-13 -61l3 1q60 70 136 70q38 0 64.5 -10t39 -29t19 -37.5t4.5 -46t-4 -43t-7 -38.5l-24 -113q-22 -103 -73.5 -155.5
t-144.5 -52.5q-62 0 -91 66l-2 1l-53 -248h-60l148 696h58z" />
    <glyph glyph-name="q" unicode="q" 
d="M217 38q32 0 57 12t40 28t27.5 48t19 56.5t15.5 68.5q8 37 11.5 58t6.5 50t-1 45t-12.5 32.5t-27 23.5t-45.5 7q-109 0 -153 -207q-6 -28 -9 -45t-6.5 -47.5t-0.5 -49.5t10 -39.5t24.5 -30.5t43.5 -10zM432 505h62q-14 -41 -16 -50l-138 -646h-60l53 248l-1 2
q-60 -69 -143 -69q-44 0 -71.5 17t-37 42t-9 61t6 64.5t12.5 61.5q3 11 4 16q8 41 16.5 71t25.5 69t38 63.5t55 42t76 17.5q90 0 112 -75h2z" />
    <glyph glyph-name="r" unicode="r" horiz-adv-x="278" 
d="M232 505l-14 -68h2q26 36 67.5 57t87.5 21l-13 -61q-62 5 -108.5 -30t-59.5 -99l-69 -325h-60l107 505h60z" />
    <glyph glyph-name="s" unicode="s" horiz-adv-x="389" 
d="M372 133q-15 -70 -61.5 -106.5t-117.5 -36.5q-80 0 -107.5 39t-9.5 121h61q-15 -52 -0.5 -83.5t68.5 -31.5q86 0 105 89q8 36 -10 61.5t-48 41.5t-59.5 34t-46 50t-6.5 78q26 126 178 126q70 0 92.5 -41t8.5 -105h-59q9 51 -4.5 74.5t-62.5 23.5q-33 0 -59 -20t-33 -53
q-6 -29 6 -51.5t34.5 -35l48.5 -28t47.5 -31.5t32 -45.5t2.5 -69.5z" />
    <glyph glyph-name="t" unicode="t" horiz-adv-x="278" 
d="M194 457h-81l10 48h81l22 104l66 26l-28 -130h102l-10 -48h-102l-69 -324q-11 -50 -4 -66.5t42 -16.5q27 0 47 3l-11 -52q-27 -3 -57 -3q-58 0 -76.5 24.5t-8.5 73.5z" />
    <glyph glyph-name="u" unicode="u" 
d="M426 505h60l-107 -505h-52l12 56h-2q-68 -66 -141 -66q-133 0 -100 158l76 357h60l-73 -347q-26 -120 58 -120q54 0 90 37.5t44 73.5z" />
    <glyph glyph-name="v" unicode="v" horiz-adv-x="389" 
d="M182 505l30 -429h2l214 429h58l-257 -505h-69l-43 505h65z" />
    <glyph glyph-name="w" unicode="w" horiz-adv-x="667" 
d="M149 0l-32 505h64l19 -442h2l201 442h74l18 -442h2l207 442h60l-246 -505h-75l-19 432h-2l-198 -432h-75z" />
    <glyph glyph-name="x" unicode="x" horiz-adv-x="389" 
d="M11 0l205 269l-75 236h72l52 -190l140 190h66l-181 -233l88 -272h-73l-64 219l-163 -219h-67z" />
    <glyph glyph-name="y" unicode="y" horiz-adv-x="389" 
d="M70 -191l100 190l-53 506h65l35 -414h2l207 414h60l-357 -696h-59z" />
    <glyph glyph-name="z" unicode="z" horiz-adv-x="333" 
d="M28 0l10 49l297 408h-198l10 48h259l-10 -50l-292 -407h210l-10 -48h-276z" />
    <glyph glyph-name="braceleft" unicode="{" horiz-adv-x="351" 
d="M235 435l42 194q8 36 24 60t40.5 35t48.5 15t58 4l-10 -48q-48 0 -70 -20.5t-31 -61.5l-34 -161q-12 -59 -35 -90.5t-81 -48.5l-1 -2q50 -9 62.5 -41t-1.5 -84l-40 -188q-9 -41 4 -61.5t61 -20.5l-10 -48q-71 0 -104 22.5t-19 91.5l44 207q8 37 -5 68t-56 31l10 48
q43 0 69 31t34 68z" />
    <glyph glyph-name="bar" unicode="|" horiz-adv-x="369" 
d="M233 813h53v-1084h-53v1084z" />
    <glyph glyph-name="braceright" unicode="}" horiz-adv-x="351" 
d="M342 629l-42 -194q-8 -37 5 -68t56 -31l-10 -48q-43 0 -69 -31t-34 -68l-44 -207q-8 -36 -24 -60t-40.5 -35t-48.5 -15t-58 -4l10 48q48 0 70 20.5t31 61.5l40 188q11 57 35 86.5t78 38.5l1 2q-51 17 -62 53t4 86l34 161q9 41 -4 61.5t-61 20.5l10 48q71 0 104 -22.5
t19 -91.5z" />
    <glyph glyph-name="asciitilde" unicode="~" 
d="M93 185l-26 35q71 86 133 86q31 0 89 -26t76 -26q46 0 94 67l25 -40q-69 -81 -130 -81q-22 0 -102 32q-3 1 -14 6t-16.5 7t-15 4.5t-17.5 2.5q-19 0 -39 -12.5t-29.5 -22.5t-27.5 -32z" />
    <glyph glyph-name="uni00A0" unicode="&#xa0;" horiz-adv-x="222" 
 />
    <glyph glyph-name="exclamdown" unicode="&#xa1;" horiz-adv-x="333" 
d="M222 439l16 76h74l-16 -76h-74zM214 345h52l-105 -536h-70z" />
    <glyph glyph-name="cent" unicode="&#xa2;" 
d="M168 67l182 406q-23 7 -35 7q-91 0 -133 -164l-18 -82q-1 -3 -2 -9q-29 -129 6 -158zM171 -7l-67 -149h-40l74 159q-46 37 -52.5 84t18.5 167q6 30 10.5 47t14.5 50.5t21 54.5t29 48t39 42.5t51.5 26.5t65.5 11q23 0 41 -4l52 118h37l-56 -128q89 -44 56 -167h-60
q17 79 -23 108l-183 -412q22 -6 43 -6q49 0 83.5 39.5t49.5 110.5h60q-21 -98 -75 -151t-130 -53q-21 0 -59 4z" />
    <glyph glyph-name="sterling" unicode="&#xa3;" 
d="M398 0h-379l11 54h74l62 291h-81l12 54h81l27 128q21 97 74 139t120 42q92 0 118.5 -42.5t3.5 -136.5h-64q36 125 -66 125q-99 0 -125 -122l-28 -133h150l-12 -54h-150l-62 -291h245z" />
    <glyph glyph-name="currency" unicode="&#xa4;" 
d="M111 107l-49 -39l-36 48l47 38q-30 63 -15 133q16 75 72 136l-31 39l57 47l32 -38q67 44 143 44q75 0 125 -44l48 38l37 -47l-47 -39q30 -59 14 -136q-15 -72 -71 -133l31 -38l-58 -48l-31 39q-72 -45 -144 -45q-71 0 -124 45zM247 116q69 -1 126.5 53.5t70.5 117.5
q16 80 -15.5 126.5t-108.5 47.5q-77 -1 -128.5 -48t-69.5 -126q-15 -63 19.5 -117.5t105.5 -53.5z" />
    <glyph glyph-name="yen" unicode="&#xa5;" 
d="M236 211l14 65h-147l11 54h128l-97 367h76l78 -334l227 334h69l-254 -367h129l-11 -54h-149l-14 -65h149l-12 -54h-149l-33 -157h-60l33 157h-147l12 54h147z" />
    <glyph glyph-name="brokenbar" unicode="&#xa6;" horiz-adv-x="369" 
d="M233 732h53v-379h-53v379zM233 190h53v-379h-53v379z" />
    <glyph glyph-name="section" unicode="&#xa7;" 
d="M78 5l12 57q68 -28 122 -28q45 0 82.5 21.5t46.5 64.5q6 28 -15 52.5t-53.5 43.5l-65 38t-53 46t-13.5 59q5 21 14.5 37.5t28 29.5t29.5 20t36.5 18.5t31.5 14.5q-41 28 -61.5 59.5t-10.5 77.5q13 63 65 91.5t119 28.5q57 0 105 -24l-12 -56q-66 32 -108 32
q-35 0 -66 -17t-38 -51q-7 -30 12 -54t50 -41.5l61.5 -35.5t48.5 -46.5t10 -64.5q-5 -24 -28.5 -49t-40.5 -36.5t-53 -32.5q-5 -3 -8 -5q96 -49 78 -136q-13 -61 -65 -97t-127 -36q-58 0 -134 19zM287 278l28.5 18.5t34.5 23.5t25 24t16 30q4 7 1 15.5t-3.5 13.5t-7.5 11.5
t-10.5 10.5t-12.5 9l-13.5 7.5l-13 7t-11.5 6.5q-3 -1 -21 -10.5l-29 -15.5t-26.5 -16.5t-24.5 -21.5t-12 -22q-2 -11 1 -22t7.5 -18t16 -16t17.5 -13t20.5 -12t17.5 -10z" />
    <glyph glyph-name="dieresis" unicode="&#xa8;" horiz-adv-x="278" 
d="M149 571l22 101h64l-22 -101h-64zM307 571l22 101h64l-22 -101h-64z" />
    <glyph glyph-name="copyright" unicode="&#xa9;" horiz-adv-x="800" 
d="M397 -14q-151 0 -234.5 110t-50.5 265t163 265t281 110t235 -110t51 -265t-163.5 -265t-281.5 -110zM407 34q133 0 245.5 95t141.5 232t-43 232t-205 95t-245 -95t-141 -232t42.5 -232t204.5 -95zM514 546q-55 0 -80 -41.5t-46 -135.5q-10 -46 -13 -74.5t0.5 -54t19 -37
t44.5 -11.5q39 0 61 21t32 64h60q-4 -17 -12 -35t-24 -42.5t-46 -40t-69 -15.5q-135 0 -127 133q1 29 14 92q6 28 9 40t11.5 40.5t17.5 44t25.5 37.5t35.5 33.5t47 20.5t62 9q117 0 91 -122q-1 -2 -1 -3h-60q10 39 -1 58t-51 19z" />
    <glyph glyph-name="ordfeminine" unicode="&#xaa;" horiz-adv-x="266" 
d="M312 527l12 55h-19t-21.5 -0.5t-20.5 -1.5t-21.5 -3t-18.5 -5t-18.5 -8.5l-14.5 -12t-12.5 -16.5t-7.5 -22q-6 -29 5.5 -46t40.5 -17q33 0 61.5 23.5t34.5 53.5zM335 428h-39l8 39h-2q-41 -47 -103 -47q-44 0 -62 24t-9 67q5 22 14 38.5t24.5 27t28.5 17.5t35.5 10
l34 4.5t35.5 2.5t30 1l5 24q8 36 -2.5 53t-47.5 17q-64 0 -75 -50h-42q22 80 126 80q9 0 16 -0.5t18.5 -2t18 -4.5t16.5 -8.5t12.5 -14.5l6 -21t-2.5 -29l-32 -152q-9 -39 -12 -76z" />
    <glyph glyph-name="guillemotleft" unicode="&#xab;" horiz-adv-x="389" 
d="M303 90l-46 194l132 194h52l-120 -194l35 -194h-53zM156 90l-46 194l132 194h52l-120 -194l35 -194h-53z" />
    <glyph glyph-name="logicalnot" unicode="&#xac;" 
d="M98 368h404l-58 -275h-52l47 223h-352z" />
    <glyph glyph-name="uni00AD" unicode="&#xad;" horiz-adv-x="278" 
d="M291 238h-202l12 57h202z" />
    <glyph glyph-name="registered" unicode="&#xae;" horiz-adv-x="800" 
d="M397 -14q-151 0 -234.5 110t-50.5 265t163 265t281 110t235 -110t51 -265t-163.5 -265t-281.5 -110zM407 34q133 0 245.5 95t141.5 232t-43 232t-205 95t-245 -95t-141 -232t42.5 -232t204.5 -95zM473 343h-79l-42 -198h-52l94 441h140q73 0 96 -26.5t11 -85.5
q-10 -43 -34 -68.5t-71 -34.5l-1 -2q26 -5 36.5 -10t15.5 -24t0.5 -48.5t-17.5 -91.5q-4 -23 -4 -50h-51q-1 6 16 108q0 1 3 12.5t3.5 19t-1 20t-7.5 19.5t-20.5 13t-35.5 6zM435 538l-31 -147h68q49 0 73.5 17t35.5 67q8 36 -7 49.5t-54 13.5h-85z" />
    <glyph glyph-name="macron" unicode="&#xaf;" horiz-adv-x="278" 
d="M147 648h260l-10 -48h-260z" />
    <glyph glyph-name="degree" unicode="&#xb0;" horiz-adv-x="400" 
d="M469 558q-13 -62 -66.5 -106t-115.5 -44t-96.5 44t-21.5 106q12 62 65.5 106t115.5 44t97 -44.5t22 -105.5zM429 558q9 45 -16.5 77.5t-71.5 32.5q-45 0 -84.5 -32.5t-47.5 -77.5q-10 -46 15 -78t71 -32q45 0 84.5 32t49.5 78z" />
    <glyph glyph-name="plusminus" unicode="&#xb1;" 
d="M255 279h-176l11 52h176l37 174h52l-37 -174h176l-11 -52h-176l-37 -174h-52zM435 52l-11 -52h-404l11 52h404z" />
    <glyph glyph-name="twosuperior" unicode="&#xb2;" horiz-adv-x="266" 
d="M310 323l-9 -40h-231l9 41l71 75.5l66 70.5l49 55t39 51t16 37q7 32 -7.5 43.5t-45.5 11.5q-65 0 -81 -69h-47q12 58 50.5 83.5t85.5 25.5q48 0 77.5 -19.5t19.5 -67.5q-9 -44 -47.5 -91t-191.5 -207h177z" />
    <glyph glyph-name="threesuperior" unicode="&#xb3;" horiz-adv-x="266" 
d="M203 484l8 40q50 -4 73.5 13.5t33.5 63.5q6 30 -6.5 48.5t-42.5 18.5q-62 0 -75 -69h-50q7 48 41.5 78.5t86.5 30.5q59 0 84 -24t13 -78q-20 -91 -93 -102v-2q74 -11 53 -105q-25 -120 -138 -120q-126 0 -98 109h50q-16 -69 50 -69q69 0 85 72q12 56 -4 77.5t-71 17.5z
" />
    <glyph glyph-name="acute" unicode="&#xb4;" horiz-adv-x="278" 
d="M194 560l142 137h80l-172 -137h-50z" />
    <glyph glyph-name="mu" unicode="&#xb5;" 
d="M426 505h60l-107 -505h-52l12 56h-2q-68 -66 -141 -66q-51 0 -69 18l-43 -199h-60l148 696h60l-73 -347q-26 -120 58 -120q54 0 90 37.5t44 73.5z" />
    <glyph glyph-name="paragraph" unicode="&#xb6;" horiz-adv-x="564" 
d="M213 -96l96 453q-70 -1 -104.5 52t-19.5 128q39 182 215 185h175l-173 -818h-52l162 764h-85l-162 -764h-52z" />
    <glyph glyph-name="periodcentered" unicode="&#xb7;" horiz-adv-x="222" 
d="M120 215l16 76h74l-16 -76h-74z" />
    <glyph glyph-name="cedilla" unicode="&#xb8;" horiz-adv-x="278" 
d="M-10 -188l21 30q40 -14 61 -14q25 0 47 11.5t27 34.5q4 19 -8 29t-32 10q-23 0 -41 -10l-16 15l77 82h38l-53 -55l2 -2q15 5 31 5q31 0 50 -19.5t12 -53.5q-16 -82 -131 -82q-40 0 -85 19z" />
    <glyph glyph-name="onesuperior" unicode="&#xb9;" horiz-adv-x="266" 
d="M175 592l9 44q62 35 96 65h42l-89 -418h-45l78 368q-39 -31 -91 -59z" />
    <glyph glyph-name="ordmasculine" unicode="&#xba;" horiz-adv-x="266" 
d="M221 420q-18 0 -32.5 3t-25 7.5t-17 13t-10.5 15.5t-5.5 19.5t-2 19.5t1.5 21.5t3.5 20.5t4.5 20.5t4 17.5q0 1 4.5 22t6 26.5t8 25t12.5 27l17 21.5t24 20t32 11t42 5q18 0 33 -3.5t25 -7.5t17 -13l11.5 -15t5.5 -19.5t2 -19.5t-1.5 -22t-3 -20t-4.5 -20.5t-4 -17.5
q-1 -3 -4 -17.5t-4 -20.5t-5.5 -20.5t-8 -21.5l-10 -19.5t-13.5 -19l-17.5 -15.5t-22.5 -13.5t-28.5 -7.5t-34.5 -3zM228 450q26 0 44 9t29 30t16 38t12 51q7 33 9.5 50.5t0 38.5t-16.5 30t-40 9q-21 0 -37 -7.5t-25 -17t-17 -29t-11.5 -33.5t-9.5 -41t-8 -41.5t-2.5 -34
t5 -29t18 -16.5t33.5 -7z" />
    <glyph glyph-name="guillemotright" unicode="&#xbb;" horiz-adv-x="389" 
d="M124 90h-53l117 194l-36 194h52l48 -194zM271 90h-53l117 194l-36 194h52l48 -194z" />
    <glyph glyph-name="onequarter" unicode="&#xbc;" horiz-adv-x="666" 
d="M647 418l-58 -274h53l-9 -40h-53l-22 -104h-45l22 104h-162l11 49l195 265h68zM423 144h121l50 238h-2zM110 -29h-56l596 751h55zM175 592l9 44q62 35 96 65h42l-89 -418h-45l78 368q-39 -31 -91 -59z" />
    <glyph glyph-name="onehalf" unicode="&#xbd;" horiz-adv-x="666" 
d="M623 0h-231l9 41l71 75.5l66 70.5l49 55t39 51t16 37q7 32 -7.5 43.5t-45.5 11.5q-65 0 -81 -69h-47q12 58 50.5 83.5t85.5 25.5q48 0 77.5 -19.5t19.5 -67.5q-9 -44 -47.5 -91t-191.5 -207h177zM101 -29h-56l596 751h55zM175 592l9 44q62 35 96 65h42l-89 -418h-45
l78 368q-39 -31 -91 -59z" />
    <glyph glyph-name="threequarters" unicode="&#xbe;" horiz-adv-x="666" 
d="M647 418l-58 -274h53l-9 -40h-53l-22 -104h-45l22 104h-162l11 49l195 265h68zM423 144h121l50 238h-2zM137 -29h-56l596 751h55zM203 484l8 40q50 -4 73.5 13.5t33.5 63.5q6 30 -6.5 48.5t-42.5 18.5q-62 0 -75 -69h-50q7 48 41.5 78.5t86.5 30.5q59 0 84 -24t13 -78
q-20 -91 -93 -102v-2q74 -11 53 -105q-25 -120 -138 -120q-126 0 -98 109h50q-16 -69 50 -69q69 0 85 72q12 56 -4 77.5t-71 17.5z" />
    <glyph glyph-name="questiondown" unicode="&#xbf;" horiz-adv-x="389" 
d="M253 345h60l-18 -87q-10 -45 -27.5 -77t-37 -52l-39.5 -41t-38.5 -56.5t-29.5 -86.5q-6 -29 -7.5 -45.5t2 -34t18.5 -25t42 -7.5q46 0 67.5 31t30.5 82h64q-30 -167 -173 -167q-83 0 -104.5 38.5t-2.5 128.5q11 52 30.5 92.5t41 64.5l41.5 45t36.5 46.5t23.5 56.5z
M266 439l16 76h74l-16 -76h-74z" />
    <glyph glyph-name="Agrave" unicode="&#xc0;" horiz-adv-x="556" 
d="M394 722h76l72 -722h-67l-18 190h-283l-97 -190h-64zM205 244h247l-36 408h-2zM507 777h-50l-114 137h80z" />
    <glyph glyph-name="Aacute" unicode="&#xc1;" horiz-adv-x="556" 
d="M394 722h76l72 -722h-67l-18 190h-283l-97 -190h-64zM205 244h247l-36 408h-2zM379 777l142 137h80l-172 -137h-50z" />
    <glyph glyph-name="Acircumflex" unicode="&#xc2;" horiz-adv-x="556" 
d="M394 722h76l72 -722h-67l-18 190h-283l-97 -190h-64zM205 244h247l-36 408h-2zM464 877l-103 -102h-64l142 139h67l84 -139h-64z" />
    <glyph glyph-name="Atilde" unicode="&#xc3;" horiz-adv-x="556" 
d="M394 722h76l72 -722h-67l-18 190h-283l-97 -190h-64zM205 244h247l-36 408h-2zM333 812h-38q14 41 40 69q33 33 69 33q8 0 18 -3t16.5 -6t18.5 -9.5t16 -8.5q5 -2 16 -8.5t16.5 -9.5t14 -6t15.5 -3q19 0 33.5 16t21.5 38h38q-8 -36 -37 -68q-29 -34 -66 -34q-9 0 -19 3
t-17 6t-18.5 9.5t-16.5 8.5q-4 2 -15.5 9t-17 9.5t-14.5 5.5t-17 3q-18 0 -34.5 -17.5t-22.5 -36.5z" />
    <glyph glyph-name="Adieresis" unicode="&#xc4;" horiz-adv-x="556" 
d="M394 722h76l72 -722h-67l-18 190h-283l-97 -190h-64zM205 244h247l-36 408h-2zM334 788l22 101h64l-22 -101h-64zM492 788l22 101h64l-22 -101h-64z" />
    <glyph glyph-name="Aring" unicode="&#xc5;" horiz-adv-x="556" 
d="M394 722h76l72 -722h-67l-18 190h-283l-97 -190h-64zM205 244h247l-36 408h-2zM481 953q38 0 59 -27.5t13 -65.5t-41 -66t-71 -28t-59.5 28t-13.5 66t41.5 65.5t71.5 27.5zM473 918q-24 0 -44.5 -17t-25.5 -41q-5 -23 8.5 -41t36.5 -18q22 0 43.5 18t26.5 41t-8.5 40.5
t-36.5 17.5z" />
    <glyph glyph-name="AE" unicode="&#xc6;" horiz-adv-x="778" 
d="M79 0h-66l484 722h387l-11 -54h-286l-31 -270h248l-12 -54h-243l-37 -290h241l-11 -54h-301l24 190h-259zM523 674l-280 -430h229l53 430h-2z" />
    <glyph glyph-name="Ccedilla" unicode="&#xc7;" horiz-adv-x="500" 
d="M565 527h-64q33 155 -81 155q-28 0 -51.5 -5t-42 -18.5t-32.5 -26.5t-26.5 -39t-21 -45.5t-18 -56t-15 -60.5l-15.5 -70q-8 -35 -12 -56l-9.5 -51t-7 -47.5t-2.5 -41t2 -37t7.5 -30t14 -25.5t22.5 -17.5t30.5 -12t40.5 -3.5q112 0 150 167h68q-5 -22 -12 -44t-25 -56
t-41.5 -59t-63.5 -43.5t-88 -18.5q-7 0 -10 1l-40 -42l2 -2q15 5 31 5q31 0 50 -19.5t12 -53.5q-16 -82 -131 -82q-40 0 -85 19l21 30q40 -14 61 -14q25 0 47 11.5t27 34.5q4 19 -8 29t-32 10q-23 0 -41 -10l-16 15l68 71q-35 5 -59.5 19.5t-39 32.5t-20.5 48.5t-7 56t5 68
t11 70.5t16 77l14 65t15 60.5t18.5 59t22 51.5t28 47.5t35.5 37t44.5 30t54 17.5t65.5 7q50 0 82 -16.5t45 -37.5t15.5 -54t0 -53.5t-8.5 -47.5z" />
    <glyph glyph-name="Egrave" unicode="&#xc8;" 
d="M228 722h327l-11 -54h-263l-57 -270h251l-12 -54h-251l-62 -290h270l-11 -54h-334zM451 777h-50l-114 137h80z" />
    <glyph glyph-name="Eacute" unicode="&#xc9;" 
d="M228 722h327l-11 -54h-263l-57 -270h251l-12 -54h-251l-62 -290h270l-11 -54h-334zM323 777l142 137h80l-172 -137h-50z" />
    <glyph glyph-name="Ecircumflex" unicode="&#xca;" 
d="M228 722h327l-11 -54h-263l-57 -270h251l-12 -54h-251l-62 -290h270l-11 -54h-334zM408 877l-103 -102h-64l142 139h67l84 -139h-64z" />
    <glyph glyph-name="Edieresis" unicode="&#xcb;" 
d="M228 722h327l-11 -54h-263l-57 -270h251l-12 -54h-251l-62 -290h270l-11 -54h-334zM278 788l22 101h64l-22 -101h-64zM436 788l22 101h64l-22 -101h-64z" />
    <glyph glyph-name="Igrave" unicode="&#xcc;" horiz-adv-x="222" 
d="M232 722h64l-153 -722h-64zM340 777h-50l-114 137h80z" />
    <glyph glyph-name="Iacute" unicode="&#xcd;" horiz-adv-x="222" 
d="M232 722h64l-153 -722h-64zM212 777l142 137h80l-172 -137h-50z" />
    <glyph glyph-name="Icircumflex" unicode="&#xce;" horiz-adv-x="222" 
d="M232 722h64l-153 -722h-64zM297 877l-103 -102h-64l142 139h67l84 -139h-64z" />
    <glyph glyph-name="Idieresis" unicode="&#xcf;" horiz-adv-x="222" 
d="M232 722h64l-153 -722h-64zM167 788l22 101h64l-22 -101h-64zM325 788l22 101h64l-22 -101h-64z" />
    <glyph glyph-name="Eth" unicode="&#xd0;" horiz-adv-x="556" 
d="M75 0l79 370h-61l11 54h61l63 298h191q50 0 85 -9.5t55.5 -31t30 -48.5t8.5 -71.5t-8 -90.5t-21 -113q-21 -98 -43 -158.5t-58.5 -109t-91.5 -69.5t-136 -21h-165zM281 668l-52 -244h152l-11 -54h-152l-68 -316h78q51 0 84 4.5t62 20.5t46.5 37t34.5 64.5t29.5 92
t29.5 128.5q37 155 9 211t-158 56h-84z" />
    <glyph glyph-name="Ntilde" unicode="&#xd1;" horiz-adv-x="611" 
d="M141 0h-64l153 722h98l159 -634l2 2l134 632h64l-153 -722h-97l-158 641l-2 -2zM361 812h-38q14 41 40 69q33 33 69 33q8 0 18 -3t16.5 -6t18.5 -9.5t16 -8.5q5 -2 16 -8.5t16.5 -9.5t14 -6t15.5 -3q19 0 33.5 16t21.5 38h38q-8 -36 -37 -68q-29 -34 -66 -34q-9 0 -19 3
t-17 6t-18.5 9.5t-16.5 8.5q-4 2 -15.5 9t-17 9.5t-14.5 5.5t-17 3q-18 0 -34.5 -17.5t-22.5 -36.5z" />
    <glyph glyph-name="Ograve" unicode="&#xd2;" horiz-adv-x="556" 
d="M201 361q-8 -35 -12 -56l-9.5 -51t-7 -47.5t-2.5 -41t2 -37t7.5 -30t14 -25.5t22.5 -17.5t30.5 -12t40.5 -3.5q28 0 51.5 5t42 18.5t32.5 26.5t26.5 39t21 45.5t18 56t15 60.5l15.5 70q8 35 12 56l9.5 51t7 47.5t2.5 41t-2 37t-7.5 30t-14 25.5t-22.5 17.5t-30.5 12
t-40.5 3.5q-28 0 -51.5 -5t-42 -18.5t-32.5 -26.5t-26.5 -39t-21 -45.5t-18 -56t-15 -60.5zM137 361l14 65t15 60.5t18.5 59t22 51.5t28 47.5t35.5 37t44.5 30t54 17.5t65.5 7t62.5 -7t47 -17.5t31.5 -30t19.5 -37t8.5 -47.5t0.5 -51.5t-6.5 -59t-10.5 -60.5t-13.5 -65
q-10 -48 -16 -73t-17.5 -67t-22.5 -65t-27.5 -54.5t-36.5 -49t-46 -34.5t-59 -24.5t-73 -7.5q-35 0 -62.5 7t-47 17.5t-31.5 30t-19.5 37t-8.5 47.5t0 52t7 59t10.5 60.5t13.5 64.5zM507 777h-50l-114 137h80z" />
    <glyph glyph-name="Oacute" unicode="&#xd3;" horiz-adv-x="556" 
d="M201 361q-8 -35 -12 -56l-9.5 -51t-7 -47.5t-2.5 -41t2 -37t7.5 -30t14 -25.5t22.5 -17.5t30.5 -12t40.5 -3.5q28 0 51.5 5t42 18.5t32.5 26.5t26.5 39t21 45.5t18 56t15 60.5l15.5 70q8 35 12 56l9.5 51t7 47.5t2.5 41t-2 37t-7.5 30t-14 25.5t-22.5 17.5t-30.5 12
t-40.5 3.5q-28 0 -51.5 -5t-42 -18.5t-32.5 -26.5t-26.5 -39t-21 -45.5t-18 -56t-15 -60.5zM137 361l14 65t15 60.5t18.5 59t22 51.5t28 47.5t35.5 37t44.5 30t54 17.5t65.5 7t62.5 -7t47 -17.5t31.5 -30t19.5 -37t8.5 -47.5t0.5 -51.5t-6.5 -59t-10.5 -60.5t-13.5 -65
q-10 -48 -16 -73t-17.5 -67t-22.5 -65t-27.5 -54.5t-36.5 -49t-46 -34.5t-59 -24.5t-73 -7.5q-35 0 -62.5 7t-47 17.5t-31.5 30t-19.5 37t-8.5 47.5t0 52t7 59t10.5 60.5t13.5 64.5zM379 777l142 137h80l-172 -137h-50z" />
    <glyph glyph-name="Ocircumflex" unicode="&#xd4;" horiz-adv-x="556" 
d="M201 361q-8 -35 -12 -56l-9.5 -51t-7 -47.5t-2.5 -41t2 -37t7.5 -30t14 -25.5t22.5 -17.5t30.5 -12t40.5 -3.5q28 0 51.5 5t42 18.5t32.5 26.5t26.5 39t21 45.5t18 56t15 60.5l15.5 70q8 35 12 56l9.5 51t7 47.5t2.5 41t-2 37t-7.5 30t-14 25.5t-22.5 17.5t-30.5 12
t-40.5 3.5q-28 0 -51.5 -5t-42 -18.5t-32.5 -26.5t-26.5 -39t-21 -45.5t-18 -56t-15 -60.5zM137 361l14 65t15 60.5t18.5 59t22 51.5t28 47.5t35.5 37t44.5 30t54 17.5t65.5 7t62.5 -7t47 -17.5t31.5 -30t19.5 -37t8.5 -47.5t0.5 -51.5t-6.5 -59t-10.5 -60.5t-13.5 -65
q-10 -48 -16 -73t-17.5 -67t-22.5 -65t-27.5 -54.5t-36.5 -49t-46 -34.5t-59 -24.5t-73 -7.5q-35 0 -62.5 7t-47 17.5t-31.5 30t-19.5 37t-8.5 47.5t0 52t7 59t10.5 60.5t13.5 64.5zM464 877l-103 -102h-64l142 139h67l84 -139h-64z" />
    <glyph glyph-name="Otilde" unicode="&#xd5;" horiz-adv-x="556" 
d="M201 361q-8 -35 -12 -56l-9.5 -51t-7 -47.5t-2.5 -41t2 -37t7.5 -30t14 -25.5t22.5 -17.5t30.5 -12t40.5 -3.5q28 0 51.5 5t42 18.5t32.5 26.5t26.5 39t21 45.5t18 56t15 60.5l15.5 70q8 35 12 56l9.5 51t7 47.5t2.5 41t-2 37t-7.5 30t-14 25.5t-22.5 17.5t-30.5 12
t-40.5 3.5q-28 0 -51.5 -5t-42 -18.5t-32.5 -26.5t-26.5 -39t-21 -45.5t-18 -56t-15 -60.5zM137 361l14 65t15 60.5t18.5 59t22 51.5t28 47.5t35.5 37t44.5 30t54 17.5t65.5 7t62.5 -7t47 -17.5t31.5 -30t19.5 -37t8.5 -47.5t0.5 -51.5t-6.5 -59t-10.5 -60.5t-13.5 -65
q-10 -48 -16 -73t-17.5 -67t-22.5 -65t-27.5 -54.5t-36.5 -49t-46 -34.5t-59 -24.5t-73 -7.5q-35 0 -62.5 7t-47 17.5t-31.5 30t-19.5 37t-8.5 47.5t0 52t7 59t10.5 60.5t13.5 64.5zM333 812h-38q14 41 40 69q33 33 69 33q8 0 18 -3t16.5 -6t18.5 -9.5t16 -8.5q5 -2 16 -8.5
t16.5 -9.5t14 -6t15.5 -3q19 0 33.5 16t21.5 38h38q-8 -36 -37 -68q-29 -34 -66 -34q-9 0 -19 3t-17 6t-18.5 9.5t-16.5 8.5q-4 2 -15.5 9t-17 9.5t-14.5 5.5t-17 3q-18 0 -34.5 -17.5t-22.5 -36.5z" />
    <glyph glyph-name="Odieresis" unicode="&#xd6;" horiz-adv-x="556" 
d="M201 361q-8 -35 -12 -56l-9.5 -51t-7 -47.5t-2.5 -41t2 -37t7.5 -30t14 -25.5t22.5 -17.5t30.5 -12t40.5 -3.5q28 0 51.5 5t42 18.5t32.5 26.5t26.5 39t21 45.5t18 56t15 60.5l15.5 70q8 35 12 56l9.5 51t7 47.5t2.5 41t-2 37t-7.5 30t-14 25.5t-22.5 17.5t-30.5 12
t-40.5 3.5q-28 0 -51.5 -5t-42 -18.5t-32.5 -26.5t-26.5 -39t-21 -45.5t-18 -56t-15 -60.5zM137 361l14 65t15 60.5t18.5 59t22 51.5t28 47.5t35.5 37t44.5 30t54 17.5t65.5 7t62.5 -7t47 -17.5t31.5 -30t19.5 -37t8.5 -47.5t0.5 -51.5t-6.5 -59t-10.5 -60.5t-13.5 -65
q-10 -48 -16 -73t-17.5 -67t-22.5 -65t-27.5 -54.5t-36.5 -49t-46 -34.5t-59 -24.5t-73 -7.5q-35 0 -62.5 7t-47 17.5t-31.5 30t-19.5 37t-8.5 47.5t0 52t7 59t10.5 60.5t13.5 64.5zM334 788l22 101h64l-22 -101h-64zM492 788l22 101h64l-22 -101h-64z" />
    <glyph glyph-name="multiply" unicode="&#xd7;" 
d="M268 216l-200 -165l-29 37l200 165l-130 165l45 37l130 -165l200 165l29 -37l-200 -165l130 -165l-45 -37z" />
    <glyph glyph-name="Oslash" unicode="&#xd8;" horiz-adv-x="556" 
d="M169 152l363 467q-20 63 -109 63q-26 0 -48 -5.5t-38.5 -13t-32 -25t-25.5 -30t-21 -39.5t-17 -43.5t-14.5 -51.5t-12.5 -53.5l-13 -59.5q-34 -161 -32 -209zM539 570l-361 -467q19 -63 109 -63q107 0 157 97q29 55 62 210l3 14q32 153 30 209zM133 45l-59 -76l-33 18
l74 95q-6 17 -8.5 35.5t-1.5 41.5t1.5 39t6 45l7.5 39t9 42.5t8 36.5q28 134 45 182q69 188 242 193h10q100 0 143 -59l63 82l29 -21l-75 -97q6 -19 8.5 -44t2.5 -44t-5 -52.5t-7.5 -46.5t-10.5 -50.5t-9 -42.5q-28 -132 -44 -177q-65 -180 -220 -196q-17 -2 -34 -2
q-101 0 -142 59z" />
    <glyph glyph-name="Ugrave" unicode="&#xd9;" horiz-adv-x="556" 
d="M284 722l-96 -454q-7 -32 -10 -50.5t-6 -49.5t2.5 -50t17 -39t36 -29.5t59.5 -9.5q42 0 75 16t51.5 36t34 56.5t21 58t13.5 61.5l96 454h64l-106 -501q-51 -235 -261 -235q-212 0 -161 235l106 501h64zM507 777h-50l-114 137h80z" />
    <glyph glyph-name="Uacute" unicode="&#xda;" horiz-adv-x="556" 
d="M284 722l-96 -454q-7 -32 -10 -50.5t-6 -49.5t2.5 -50t17 -39t36 -29.5t59.5 -9.5q42 0 75 16t51.5 36t34 56.5t21 58t13.5 61.5l96 454h64l-106 -501q-51 -235 -261 -235q-212 0 -161 235l106 501h64zM379 777l142 137h80l-172 -137h-50z" />
    <glyph glyph-name="Ucircumflex" unicode="&#xdb;" horiz-adv-x="556" 
d="M284 722l-96 -454q-7 -32 -10 -50.5t-6 -49.5t2.5 -50t17 -39t36 -29.5t59.5 -9.5q42 0 75 16t51.5 36t34 56.5t21 58t13.5 61.5l96 454h64l-106 -501q-51 -235 -261 -235q-212 0 -161 235l106 501h64zM464 877l-103 -102h-64l142 139h67l84 -139h-64z" />
    <glyph glyph-name="Udieresis" unicode="&#xdc;" horiz-adv-x="556" 
d="M284 722l-96 -454q-7 -32 -10 -50.5t-6 -49.5t2.5 -50t17 -39t36 -29.5t59.5 -9.5q42 0 75 16t51.5 36t34 56.5t21 58t13.5 61.5l96 454h64l-106 -501q-51 -235 -261 -235q-212 0 -161 235l106 501h64zM334 788l22 101h64l-22 -101h-64zM492 788l22 101h64l-22 -101h-64z
" />
    <glyph glyph-name="Yacute" unicode="&#xdd;" horiz-adv-x="500" 
d="M217 0l64 300l-115 422h72l89 -359l249 359h64l-295 -422l-64 -300h-64zM351 777l142 137h80l-172 -137h-50z" />
    <glyph glyph-name="Thorn" unicode="&#xde;" 
d="M64 0l153 722h64l-34 -164h134q16 0 28 -1t28.5 -4.5t28 -10.5t22.5 -20t16.5 -31t5 -45.5t-7.5 -62.5q-23 -110 -73 -160.5t-142 -50.5h-122l-37 -172h-64zM235 504l-59 -278h119q54 0 89 32.5t52 112.5q6 30 7 52.5t-4 36.5t-12.5 23.5t-20.5 13.5t-24.5 5.5t-28.5 1.5
h-118z" />
    <glyph glyph-name="germandbls" unicode="&#xdf;" horiz-adv-x="500" 
d="M485 134q-15 -71 -63 -107.5t-120 -36.5q-66 0 -91.5 35t-9.5 100h60q-9 -44 5 -65.5t58 -21.5q39 0 65 24t35 63q6 28 -6 55.5t-32.5 49l-41 43t-32.5 47t-7 51.5q7 34 31 68t49.5 57.5t49 54.5t29.5 59q8 36 -18 57t-63 21q-110 0 -140 -140l-116 -548h-60l121 568
q6 28 18.5 54t35.5 53.5t64 44t94 16.5q60 0 98 -35t25 -95q-8 -40 -44.5 -81.5l-71 -77.5t-39.5 -62q-4 -21 8.5 -43.5t33 -44t40.5 -45t31 -54.5t4 -64z" />
    <glyph glyph-name="agrave" unicode="&#xe0;" 
d="M353 166l20 92q-5 0 -33.5 -0.5t-38 -1.5t-35 -4t-37.5 -7t-31.5 -13t-30 -20.5t-20.5 -29.5t-15 -40q-10 -45 7.5 -74.5t61.5 -29.5q51 0 96 39t56 89zM322 0l13 62h-2q-63 -72 -158 -72q-66 0 -94 40.5t-13 108.5q7 32 20.5 57.5t29.5 42t39 29t43 18.5t48 10t46.5 5.5
t47 2.5t41.5 2l9 42q13 59 -3.5 89t-73.5 30q-44 0 -76 -22t-41 -65h-64q18 69 71.5 102t124.5 33q12 0 21.5 -0.5t24 -2.5t24.5 -5.5t23.5 -10t20 -16.5t14 -24t6 -32.5t-4.5 -42.5l-54 -254q-13 -57 -21 -127h-62zM405 560h-50l-114 137h80z" />
    <glyph glyph-name="aacute" unicode="&#xe1;" 
d="M353 166l20 92q-5 0 -33.5 -0.5t-38 -1.5t-35 -4t-37.5 -7t-31.5 -13t-30 -20.5t-20.5 -29.5t-15 -40q-10 -45 7.5 -74.5t61.5 -29.5q51 0 96 39t56 89zM322 0l13 62h-2q-63 -72 -158 -72q-66 0 -94 40.5t-13 108.5q7 32 20.5 57.5t29.5 42t39 29t43 18.5t48 10t46.5 5.5
t47 2.5t41.5 2l9 42q13 59 -3.5 89t-73.5 30q-44 0 -76 -22t-41 -65h-64q18 69 71.5 102t124.5 33q12 0 21.5 -0.5t24 -2.5t24.5 -5.5t23.5 -10t20 -16.5t14 -24t6 -32.5t-4.5 -42.5l-54 -254q-13 -57 -21 -127h-62zM277 560l142 137h80l-172 -137h-50z" />
    <glyph glyph-name="acircumflex" unicode="&#xe2;" 
d="M353 166l20 92q-5 0 -33.5 -0.5t-38 -1.5t-35 -4t-37.5 -7t-31.5 -13t-30 -20.5t-20.5 -29.5t-15 -40q-10 -45 7.5 -74.5t61.5 -29.5q51 0 96 39t56 89zM322 0l13 62h-2q-63 -72 -158 -72q-66 0 -94 40.5t-13 108.5q7 32 20.5 57.5t29.5 42t39 29t43 18.5t48 10t46.5 5.5
t47 2.5t41.5 2l9 42q13 59 -3.5 89t-73.5 30q-44 0 -76 -22t-41 -65h-64q18 69 71.5 102t124.5 33q12 0 21.5 -0.5t24 -2.5t24.5 -5.5t23.5 -10t20 -16.5t14 -24t6 -32.5t-4.5 -42.5l-54 -254q-13 -57 -21 -127h-62zM362 660l-103 -102h-64l142 139h67l84 -139h-64z" />
    <glyph glyph-name="atilde" unicode="&#xe3;" 
d="M353 166l20 92q-5 0 -33.5 -0.5t-38 -1.5t-35 -4t-37.5 -7t-31.5 -13t-30 -20.5t-20.5 -29.5t-15 -40q-10 -45 7.5 -74.5t61.5 -29.5q51 0 96 39t56 89zM322 0l13 62h-2q-63 -72 -158 -72q-66 0 -94 40.5t-13 108.5q7 32 20.5 57.5t29.5 42t39 29t43 18.5t48 10t46.5 5.5
t47 2.5t41.5 2l9 42q13 59 -3.5 89t-73.5 30q-44 0 -76 -22t-41 -65h-64q18 69 71.5 102t124.5 33q12 0 21.5 -0.5t24 -2.5t24.5 -5.5t23.5 -10t20 -16.5t14 -24t6 -32.5t-4.5 -42.5l-54 -254q-13 -57 -21 -127h-62zM230 595h-38q16 43 41 69q33 33 69 33q8 0 18.5 -3t16 -6
l18 -10t15.5 -8q5 -3 16 -9t17 -9t14.5 -6t15.5 -3q19 0 33.5 16t21.5 38h38q-11 -39 -37 -68q-31 -34 -67 -34q-9 0 -19 3t-16.5 6t-18 9t-16.5 9q-4 2 -15.5 9t-17 9.5t-14.5 5.5t-17 3q-18 0 -34.5 -17t-23.5 -37z" />
    <glyph glyph-name="adieresis" unicode="&#xe4;" 
d="M353 166l20 92q-5 0 -33.5 -0.5t-38 -1.5t-35 -4t-37.5 -7t-31.5 -13t-30 -20.5t-20.5 -29.5t-15 -40q-10 -45 7.5 -74.5t61.5 -29.5q51 0 96 39t56 89zM322 0l13 62h-2q-63 -72 -158 -72q-66 0 -94 40.5t-13 108.5q7 32 20.5 57.5t29.5 42t39 29t43 18.5t48 10t46.5 5.5
t47 2.5t41.5 2l9 42q13 59 -3.5 89t-73.5 30q-44 0 -76 -22t-41 -65h-64q18 69 71.5 102t124.5 33q12 0 21.5 -0.5t24 -2.5t24.5 -5.5t23.5 -10t20 -16.5t14 -24t6 -32.5t-4.5 -42.5l-54 -254q-13 -57 -21 -127h-62zM232 571l22 101h64l-22 -101h-64zM390 571l22 101h64
l-22 -101h-64z" />
    <glyph glyph-name="aring" unicode="&#xe5;" 
d="M353 166l20 92q-5 0 -33.5 -0.5t-38 -1.5t-35 -4t-37.5 -7t-31.5 -13t-30 -20.5t-20.5 -29.5t-15 -40q-10 -45 7.5 -74.5t61.5 -29.5q51 0 96 39t56 89zM322 0l13 62h-2q-63 -72 -158 -72q-66 0 -94 40.5t-13 108.5q7 32 20.5 57.5t29.5 42t39 29t43 18.5t48 10t46.5 5.5
t47 2.5t41.5 2l9 42q13 59 -3.5 89t-73.5 30q-44 0 -76 -22t-41 -65h-64q18 69 71.5 102t124.5 33q12 0 21.5 -0.5t24 -2.5t24.5 -5.5t23.5 -10t20 -16.5t14 -24t6 -32.5t-4.5 -42.5l-54 -254q-13 -57 -21 -127h-62zM378 736q38 0 59.5 -27.5t13.5 -65.5t-41 -66t-71 -28
t-59.5 28t-13.5 66t41 65.5t71 27.5zM371 701q-24 0 -45 -17t-25 -41q-5 -23 8.5 -41t36.5 -18q22 0 43.5 18t26.5 41t-8.5 40.5t-36.5 17.5z" />
    <glyph glyph-name="ae" unicode="&#xe6;" horiz-adv-x="722" 
d="M131 136q-11 -49 13 -73.5t75 -24.5q38 0 67.5 21.5t47 56.5t27 67.5t14.5 66.5q-12 -1 -37 -1.5t-39 -1t-37 -3.5t-36.5 -7t-31 -12t-28.5 -19.5t-20.5 -29.5t-14.5 -40zM441 298h228q21 76 5 122.5t-83 46.5q-53 0 -93 -46t-57 -123zM719 250h-288l-10 -49
q-6 -37 -7.5 -73.5t20.5 -63t66 -26.5q55 0 90 31.5t46 84.5h63q-44 -164 -209 -164q-50 0 -84.5 24t-38.5 66q-60 -90 -163 -90q-72 0 -112.5 36.5t-25.5 105.5q7 35 22 61.5t31.5 44t43.5 29.5t46.5 18t54 9t53.5 3.5t55 0.5h13q6 26 8.5 40.5t4.5 37.5t-2 36.5
t-12.5 27.5t-26 20.5t-42.5 6.5q-44 0 -76 -22t-41 -65h-64q18 69 71.5 102t124.5 33q46 0 81.5 -19.5t41.5 -57.5q27 35 68 56t80 21q29 0 51.5 -5.5t38 -12t25.5 -22t16 -26t7 -34t1 -36t-4.5 -42t-7 -42z" />
    <glyph glyph-name="ccedilla" unicode="&#xe7;" horiz-adv-x="389" 
d="M423 360h-60q27 107 -67 107q-60 0 -93 -58q-23 -41 -48 -159q-7 -32 -10 -48t-7 -46.5t-1.5 -47t8.5 -35t21 -27t37 -8.5q54 0 78 28t38 83h60q-7 -38 -22.5 -67.5t-33 -46t-39.5 -27t-39 -14.5t-34 -4l-44 -45l2 -2q15 5 31 5q31 0 50 -19.5t12 -53.5q-16 -82 -131 -82
q-40 0 -85 19l21 30q40 -14 61 -14q25 0 47 11.5t27 34.5q4 19 -8 29t-32 10q-23 0 -41 -10l-16 15l69 74q-28 3 -48 13.5t-31.5 23.5t-17 35t-7 39.5t2.5 47.5t7.5 48t10.5 51q27 124 51 167q56 98 172 98q68 0 98.5 -39t10.5 -116z" />
    <glyph glyph-name="egrave" unicode="&#xe8;" 
d="M447 240h-288l-8 -39q-6 -37 -7.5 -73.5t20.5 -63t66 -26.5q55 0 90 31.5t46 84.5h63q-44 -164 -209 -164q-175 0 -134 188l26 124q45 213 219 213q29 0 51 -5t37.5 -12t26 -21.5t16.5 -26.5t7 -34t1 -37.5t-4.5 -44t-8 -45zM169 288h228q22 84 7 131.5t-83 47.5
q-67 0 -99.5 -43.5t-52.5 -135.5zM405 560h-50l-114 137h80z" />
    <glyph glyph-name="eacute" unicode="&#xe9;" 
d="M447 240h-288l-8 -39q-6 -37 -7.5 -73.5t20.5 -63t66 -26.5q55 0 90 31.5t46 84.5h63q-44 -164 -209 -164q-175 0 -134 188l26 124q45 213 219 213q29 0 51 -5t37.5 -12t26 -21.5t16.5 -26.5t7 -34t1 -37.5t-4.5 -44t-8 -45zM169 288h228q22 84 7 131.5t-83 47.5
q-67 0 -99.5 -43.5t-52.5 -135.5zM277 560l142 137h80l-172 -137h-50z" />
    <glyph glyph-name="ecircumflex" unicode="&#xea;" 
d="M447 240h-288l-8 -39q-6 -37 -7.5 -73.5t20.5 -63t66 -26.5q55 0 90 31.5t46 84.5h63q-44 -164 -209 -164q-175 0 -134 188l26 124q45 213 219 213q29 0 51 -5t37.5 -12t26 -21.5t16.5 -26.5t7 -34t1 -37.5t-4.5 -44t-8 -45zM169 288h228q22 84 7 131.5t-83 47.5
q-67 0 -99.5 -43.5t-52.5 -135.5zM362 660l-103 -102h-64l142 139h67l84 -139h-64z" />
    <glyph glyph-name="edieresis" unicode="&#xeb;" 
d="M447 240h-288l-8 -39q-6 -37 -7.5 -73.5t20.5 -63t66 -26.5q55 0 90 31.5t46 84.5h63q-44 -164 -209 -164q-175 0 -134 188l26 124q45 213 219 213q29 0 51 -5t37.5 -12t26 -21.5t16.5 -26.5t7 -34t1 -37.5t-4.5 -44t-8 -45zM169 288h228q22 84 7 131.5t-83 47.5
q-67 0 -99.5 -43.5t-52.5 -135.5zM232 571l22 101h64l-22 -101h-64zM390 571l22 101h64l-22 -101h-64z" />
    <glyph glyph-name="igrave" unicode="&#xec;" horiz-adv-x="222" 
d="M141 0h-60l107 505h60zM294 560h-50l-114 137h80z" />
    <glyph glyph-name="iacute" unicode="&#xed;" horiz-adv-x="222" 
d="M141 0h-60l107 505h60zM166 560l142 137h80l-172 -137h-50z" />
    <glyph glyph-name="icircumflex" unicode="&#xee;" horiz-adv-x="222" 
d="M141 0h-60l107 505h60zM251 660l-103 -102h-64l142 139h67l84 -139h-64z" />
    <glyph glyph-name="idieresis" unicode="&#xef;" horiz-adv-x="222" 
d="M141 0h-60l107 505h60zM121 571l22 101h64l-22 -101h-64zM279 571l22 101h64l-22 -101h-64z" />
    <glyph glyph-name="eth" unicode="&#xf0;" 
d="M243 618l102 50q-10 7 -14.5 9.5t-11 6.5t-8 5t-9 4.5t-9.5 4t-13 5l-18 7.5l51 37q48 -16 90 -50l100 50l24 -30l-94 -47q28 -35 41 -71.5t11.5 -111.5t-25.5 -188l-22 -101q-21 -100 -76 -154t-142 -54t-119 54t-11 154l23 109q21 100 76 154t142 54q80 0 93 -44l3 2
q8 47 -11 98t-42 69l-105 -52zM321 467q-69 0 -102 -51.5t-57 -162.5q-9 -43 -13 -73.5t-3.5 -59t9.5 -45.5t27.5 -27t47.5 -10q69 0 102.5 52t57.5 163q12 54 15 89.5t-2 66t-25.5 44.5t-56.5 14z" />
    <glyph glyph-name="ntilde" unicode="&#xf1;" 
d="M188 317l-67 -317h-60l107 505h60l-13 -62h2q65 72 137 72q139 0 105 -159l-76 -356h-60l75 353q11 49 -4.5 81.5t-64.5 32.5q-46 0 -85 -36t-56 -114zM230 595h-38q16 43 41 69q33 33 69 33q8 0 18.5 -3t16 -6l18 -10t15.5 -8q5 -3 16 -9t17 -9t14.5 -6t15.5 -3
q19 0 33.5 16t21.5 38h38q-11 -39 -37 -68q-31 -34 -67 -34q-9 0 -19 3t-16.5 6t-18 9t-16.5 9q-4 2 -15.5 9t-17 9.5t-14.5 5.5t-17 3q-18 0 -34.5 -17t-23.5 -37z" />
    <glyph glyph-name="ograve" unicode="&#xf2;" 
d="M220 -10q-87 0 -119 54t-11 154l23 109q21 100 76 154t142 54t119 -54t11 -154l-23 -109q-21 -100 -76 -154t-142 -54zM321 467q-69 0 -102 -51.5t-57 -162.5q-9 -43 -13 -73.5t-3.5 -59t9.5 -45.5t27.5 -27t47.5 -10q69 0 102.5 52t57.5 163q12 54 15 89.5t-2 66
t-25.5 44.5t-56.5 14zM405 560h-50l-114 137h80z" />
    <glyph glyph-name="oacute" unicode="&#xf3;" 
d="M220 -10q-87 0 -119 54t-11 154l23 109q21 100 76 154t142 54t119 -54t11 -154l-23 -109q-21 -100 -76 -154t-142 -54zM321 467q-69 0 -102 -51.5t-57 -162.5q-9 -43 -13 -73.5t-3.5 -59t9.5 -45.5t27.5 -27t47.5 -10q69 0 102.5 52t57.5 163q12 54 15 89.5t-2 66
t-25.5 44.5t-56.5 14zM277 560l142 137h80l-172 -137h-50z" />
    <glyph glyph-name="ocircumflex" unicode="&#xf4;" 
d="M220 -10q-87 0 -119 54t-11 154l23 109q21 100 76 154t142 54t119 -54t11 -154l-23 -109q-21 -100 -76 -154t-142 -54zM321 467q-69 0 -102 -51.5t-57 -162.5q-9 -43 -13 -73.5t-3.5 -59t9.5 -45.5t27.5 -27t47.5 -10q69 0 102.5 52t57.5 163q12 54 15 89.5t-2 66
t-25.5 44.5t-56.5 14zM362 660l-103 -102h-64l142 139h67l84 -139h-64z" />
    <glyph glyph-name="otilde" unicode="&#xf5;" 
d="M220 -10q-87 0 -119 54t-11 154l23 109q21 100 76 154t142 54t119 -54t11 -154l-23 -109q-21 -100 -76 -154t-142 -54zM321 467q-69 0 -102 -51.5t-57 -162.5q-9 -43 -13 -73.5t-3.5 -59t9.5 -45.5t27.5 -27t47.5 -10q69 0 102.5 52t57.5 163q12 54 15 89.5t-2 66
t-25.5 44.5t-56.5 14zM230 595h-38q16 43 41 69q33 33 69 33q8 0 18.5 -3t16 -6l18 -10t15.5 -8q5 -3 16 -9t17 -9t14.5 -6t15.5 -3q19 0 33.5 16t21.5 38h38q-11 -39 -37 -68q-31 -34 -67 -34q-9 0 -19 3t-16.5 6t-18 9t-16.5 9q-4 2 -15.5 9t-17 9.5t-14.5 5.5t-17 3
q-18 0 -34.5 -17t-23.5 -37z" />
    <glyph glyph-name="odieresis" unicode="&#xf6;" 
d="M220 -10q-87 0 -119 54t-11 154l23 109q21 100 76 154t142 54t119 -54t11 -154l-23 -109q-21 -100 -76 -154t-142 -54zM321 467q-69 0 -102 -51.5t-57 -162.5q-9 -43 -13 -73.5t-3.5 -59t9.5 -45.5t27.5 -27t47.5 -10q69 0 102.5 52t57.5 163q12 54 15 89.5t-2 66
t-25.5 44.5t-56.5 14zM232 571l22 101h64l-22 -101h-64zM390 571l22 101h64l-22 -101h-64z" />
    <glyph glyph-name="divide" unicode="&#xf7;" 
d="M79 279h404l-11 -52h-404zM276 429l16 76h74l-16 -76h-74zM185 1l16 76h74l-16 -76h-74z" />
    <glyph glyph-name="oslash" unicode="&#xf8;" 
d="M408 384l-256 -306q17 -40 78 -40q77 0 116 67q18 28 44 148q19 92 18 131zM143 119l258 307q-11 41 -80 41q-71 0 -102.5 -47t-56.5 -167q-20 -97 -19 -134zM109 26l-59 -70l-26 20l66 79q-18 38 0 143l26 120q6 27 11 46t20.5 50.5t36.5 50.5t59.5 34.5t87.5 15.5
q79 0 112 -38l58 70l26 -19l-64 -77q12 -47 11 -67t-10 -66l-26 -120q-22 -103 -73.5 -155.5t-144.5 -52.5q-78 0 -111 36z" />
    <glyph glyph-name="ugrave" unicode="&#xf9;" 
d="M426 505h60l-107 -505h-52l12 56h-2q-68 -66 -141 -66q-133 0 -100 158l76 357h60l-73 -347q-26 -120 58 -120q54 0 90 37.5t44 73.5zM405 560h-50l-114 137h80z" />
    <glyph glyph-name="uacute" unicode="&#xfa;" 
d="M426 505h60l-107 -505h-52l12 56h-2q-68 -66 -141 -66q-133 0 -100 158l76 357h60l-73 -347q-26 -120 58 -120q54 0 90 37.5t44 73.5zM277 560l142 137h80l-172 -137h-50z" />
    <glyph glyph-name="ucircumflex" unicode="&#xfb;" 
d="M426 505h60l-107 -505h-52l12 56h-2q-68 -66 -141 -66q-133 0 -100 158l76 357h60l-73 -347q-26 -120 58 -120q54 0 90 37.5t44 73.5zM362 660l-103 -102h-64l142 139h67l84 -139h-64z" />
    <glyph glyph-name="udieresis" unicode="&#xfc;" 
d="M426 505h60l-107 -505h-52l12 56h-2q-68 -66 -141 -66q-133 0 -100 158l76 357h60l-73 -347q-26 -120 58 -120q54 0 90 37.5t44 73.5zM232 571l22 101h64l-22 -101h-64zM390 571l22 101h64l-22 -101h-64z" />
    <glyph glyph-name="yacute" unicode="&#xfd;" horiz-adv-x="389" 
d="M70 -191l100 190l-53 506h65l35 -414h2l207 414h60l-357 -696h-59zM250 560l142 137h80l-172 -137h-50z" />
    <glyph glyph-name="thorn" unicode="&#xfe;" 
d="M186 298l-19 -90q-17 -82 5 -126t66 -44q32 0 57 12t40 28t27.5 48t19 56.5t15.5 68.5q8 37 11.5 58t6.5 50t-1 45t-12.5 32.5t-27 23.5t-45.5 7q-37 0 -81 -42.5t-62 -126.5zM22 -191l194 913h60l-59 -278l3 1q57 70 142 70q37 0 62 -11t36.5 -32.5t17 -43t2 -53.5
t-7 -53t-10.5 -51q-3 -12 -4 -18q-9 -41 -17 -70.5t-25.5 -69t-38.5 -64t-55 -42t-76 -17.5q-83 0 -109 66l-2 1l-53 -248h-60z" />
    <glyph glyph-name="ydieresis" unicode="&#xff;" horiz-adv-x="389" 
d="M70 -191l100 190l-53 506h65l35 -414h2l207 414h60l-357 -696h-59zM205 571l22 101h64l-22 -101h-64zM363 571l22 101h64l-22 -101h-64z" />
    <glyph glyph-name="dotlessi" unicode="&#x131;" horiz-adv-x="222" 
d="M141 0h-60l107 505h60z" />
    <glyph glyph-name="Lslash" unicode="&#x141;" horiz-adv-x="389" 
d="M67 0l79 374l-86 -44l-12 35l108 56l64 301h64l-56 -264l111 57l13 -35l-134 -69l-76 -357h239l-11 -54h-303z" />
    <glyph glyph-name="lslash" unicode="&#x142;" horiz-adv-x="222" 
d="M81 0l84 394l-90 -46l-12 29l110 57l61 288h60l-53 -253l89 46l12 -29l-110 -57l-91 -429h-60z" />
    <glyph glyph-name="OE" unicode="&#x152;" horiz-adv-x="778" 
d="M418 53l130 611q-84 8 -105 8q-41 0 -71.5 -7.5t-53.5 -27t-39 -41t-30 -62.5t-23.5 -77.5t-22.5 -98.5l-13 -64t-9.5 -56t-4.5 -50t2.5 -41.5t10 -35t20 -26t31 -20t44 -11t57.5 -4.5q12 0 24.5 0.5t28 1.5t24.5 1zM613 668l-57 -270h249l-12 -54h-249l-62 -290h267
l-11 -54h-331q-15 0 -43 -2q-32 -2 -53 -2q-155 0 -190 78q-26 58 1 201l18 86q28 133 44 178q55 148 185 179q36 8 79 8q19 0 65 -2t47 -2h324l-11 -54h-260z" />
    <glyph glyph-name="oe" unicode="&#x153;" horiz-adv-x="722" 
d="M220 -10q-93 0 -122.5 52.5t-7.5 155.5l26 120q6 27 11 46t20.5 50.5t36.5 50.5t59.5 34.5t87.5 15.5q55 0 84.5 -21t40.5 -67q55 88 153 88q29 0 51 -5t37.5 -12t26 -21.5t16.5 -26.5t7 -34t1 -37.5t-4.5 -44t-8 -45l-10.5 -49.5h-288l-8 -39q-6 -37 -7.5 -73.5
t20.5 -63t66 -26.5q55 0 90 31.5t46 84.5h63q-44 -164 -209 -164q-45 0 -77 15.5t-45 62.5q-36 -46 -68.5 -62t-87.5 -16zM230 38q77 0 116 67q18 28 44 148q27 112 14 163t-83 51q-71 0 -102.5 -47t-56.5 -167q-25 -115 -20 -148q0 -1 1 -6.5t2 -9t4 -10.5t7 -12t10.5 -11
t15 -9.5t21 -6t27.5 -2.5zM447 288h228q22 84 7 131.5t-83 47.5q-67 0 -99.5 -43.5t-52.5 -135.5z" />
    <glyph glyph-name="Scaron" unicode="&#x160;" horiz-adv-x="500" 
d="M558 539h-65q13 73 -5 108t-87 35q-62 0 -100 -25.5t-51 -86.5q-5 -22 -5.5 -39.5t3.5 -30.5t10 -22.5t17 -19t21 -16.5l26 -18.5t28 -22.5q12 -10 28.5 -22t28.5 -20t26 -19.5t23.5 -21.5t17.5 -24.5t11.5 -30.5t3 -37.5t-5.5 -47.5q-42 -192 -233 -192q-207 0 -152 217
h66q-6 -29 -8.5 -48t0 -43t13 -38t35 -24t61.5 -10q124 0 152 128q4 18 3.5 34t-2 27.5t-10 25l-13.5 21t-21.5 20.5l-24 18.5l-30 21.5l-31.5 22q-59 41 -84.5 74t-26 62t6.5 65q18 90 79 133.5t154 43.5q103 0 131.5 -53.5t9.5 -143.5zM424 812l103 102h64l-142 -139h-67
l-84 139h64z" />
    <glyph glyph-name="scaron" unicode="&#x161;" horiz-adv-x="389" 
d="M372 133q-15 -70 -61.5 -106.5t-117.5 -36.5q-80 0 -107.5 39t-9.5 121h61q-15 -52 -0.5 -83.5t68.5 -31.5q86 0 105 89q8 36 -10 61.5t-48 41.5t-59.5 34t-46 50t-6.5 78q26 126 178 126q70 0 92.5 -41t8.5 -105h-59q9 51 -4.5 74.5t-62.5 23.5q-33 0 -59 -20t-33 -53
q-6 -29 6 -51.5t34.5 -35l48.5 -28t47.5 -31.5t32 -45.5t2.5 -69.5zM322 595l104 102h64l-142 -139h-67l-84 139h64z" />
    <glyph glyph-name="Ydieresis" unicode="&#x178;" horiz-adv-x="500" 
d="M217 0l64 300l-115 422h72l89 -359l249 359h64l-295 -422l-64 -300h-64zM306 788l22 101h64l-22 -101h-64zM464 788l22 101h64l-22 -101h-64z" />
    <glyph glyph-name="Zcaron" unicode="&#x17d;" 
d="M197 722h373l-15 -71l-454 -597h330l-11 -54h-396l15 71l457 597h-310zM396 812l103 102h64l-142 -139h-67l-84 139h64z" />
    <glyph glyph-name="zcaron" unicode="&#x17e;" horiz-adv-x="333" 
d="M28 0l10 49l297 408h-198l10 48h259l-10 -50l-292 -407h210l-10 -48h-276zM294 595l104 102h64l-142 -139h-67l-84 139h64z" />
    <glyph glyph-name="florin" unicode="&#x192;" 
d="M528 697l-19 -49q-17 6 -37 6q-21 0 -36.5 -7.5t-26 -23.5t-16.5 -28.5t-13 -33.5l-35 -101h94l-18 -48h-92l-150 -437q-10 -29 -16.5 -46t-22 -43.5t-32 -41t-43 -26t-59.5 -11.5q-8 0 -28 2l19 52q45 -4 71 21t48 90l150 440h-83l17 48h82q5 13 16.5 50t19 57t24 51
t33.5 47.5t44.5 29.5t61.5 13q12 0 47 -11z" />
    <glyph glyph-name="circumflex" unicode="&#x2c6;" horiz-adv-x="278" 
d="M279 660l-103 -102h-64l142 139h67l84 -139h-64z" />
    <glyph glyph-name="caron" unicode="&#x2c7;" horiz-adv-x="278" 
d="M266 595l104 102h64l-142 -139h-67l-84 139h64z" />
    <glyph glyph-name="uni02C9" unicode="&#x2c9;" horiz-adv-x="278" 
d="M147 648h260l-10 -48h-260z" />
    <glyph glyph-name="breve" unicode="&#x2d8;" horiz-adv-x="278" 
d="M143 697h39q-1 -40 22.5 -60.5t65.5 -20.5q84 0 124 81h37q-19 -61 -66.5 -95t-109.5 -34q-59 0 -89.5 35t-22.5 94z" />
    <glyph glyph-name="dotaccent" unicode="&#x2d9;" horiz-adv-x="278" 
d="M228 571l22 101h64l-22 -101h-64z" />
    <glyph glyph-name="ring" unicode="&#x2da;" horiz-adv-x="278" 
d="M295 736q38 0 59.5 -27.5t13.5 -65.5t-41 -66t-71 -28t-59.5 28t-13.5 66t41 65.5t71 27.5zM288 701q-24 0 -45 -17t-25 -41q-5 -23 8.5 -41t36.5 -18q22 0 43.5 18t26.5 41t-8.5 40.5t-36.5 17.5z" />
    <glyph glyph-name="ogonek" unicode="&#x2db;" horiz-adv-x="278" 
d="M143 0l50 2v-2q-53 -23 -80 -53.5t-32 -56.5q-6 -23 10 -34.5t40 -11.5q14 0 67 17l-7 -33q-33 -19 -78 -19q-55 0 -81 16t-15 66q7 35 40.5 63.5t85.5 45.5z" />
    <glyph glyph-name="tilde" unicode="&#x2dc;" horiz-adv-x="278" 
d="M147 595h-38q16 43 41 69q33 33 69 33q8 0 18.5 -3t16 -6l18 -10t15.5 -8q5 -3 16 -9t17 -9t14.5 -6t15.5 -3q19 0 33.5 16t21.5 38h38q-11 -39 -37 -68q-31 -34 -67 -34q-9 0 -19 3t-16.5 6t-18 9t-16.5 9q-4 2 -15.5 9t-17 9.5t-14.5 5.5t-17 3q-18 0 -34.5 -17
t-23.5 -37z" />
    <glyph glyph-name="hungarumlaut" unicode="&#x2dd;" horiz-adv-x="278" 
d="M119 560l142 137h80l-172 -137h-50zM249 560l142 137h80l-172 -137h-50z" />
    <glyph glyph-name="uni03A9" unicode="&#x3a9;" horiz-adv-x="572" 
d="M174 51v3q-37 55 -49.5 133.5t7.5 187.5q32 149 118 239t189 90t146.5 -92.5t13.5 -232.5q-22 -102 -72.5 -187.5t-108.5 -137.5v-3h122l-11 -51h-189l8 37q61 48 114.5 135.5t76.5 193.5q11 68 9 131.5t-34 109t-88 45.5q-80 0 -146 -81t-92 -206q-20 -108 -4.5 -196
t54.5 -132l-8 -37h-188l11 51h121z" />
    <glyph glyph-name="uni03BC" unicode="&#x3bc;" 
d="M426 505h60l-107 -505h-52l12 56h-2q-68 -66 -141 -66q-51 0 -69 18l-43 -199h-60l148 696h60l-73 -347q-26 -120 58 -120q54 0 90 37.5t44 73.5z" />
    <glyph glyph-name="pi" unicode="&#x3c0;" horiz-adv-x="461" 
d="M533 462h-65l-69 -324q-19 -92 -17 -138h-54q-8 25 14 133l70 329h-148q-27 -111 -74.5 -252.5t-84.5 -209.5h-56q40 76 85.5 212.5t72.5 249.5q-58 0 -90 -10l-2 39q41 24 120 24h315z" />
    <glyph glyph-name="endash" unicode="&#x2013;" horiz-adv-x="500" 
d="M555 260h-500l10 48h500z" />
    <glyph glyph-name="emdash" unicode="&#x2014;" horiz-adv-x="1000" 
d="M55 260l10 48h1000l-10 -48h-1000z" />
    <glyph glyph-name="quoteleft" unicode="&#x2018;" horiz-adv-x="222" 
d="M320 722l-78 -181h-73l98 181h53z" />
    <glyph glyph-name="quoteright" unicode="&#x2019;" horiz-adv-x="222" 
d="M169 541l78 181h73l-98 -181h-53z" />
    <glyph glyph-name="quotesinglbase" unicode="&#x201a;" horiz-adv-x="222" 
d="M32 -105l78 181h73l-98 -181h-53z" />
    <glyph glyph-name="quotedblleft" unicode="&#x201c;" horiz-adv-x="389" 
d="M330 722l-78 -181h-73l98 181h53zM478 722l-78 -181h-73l98 181h53z" />
    <glyph glyph-name="quotedblright" unicode="&#x201d;" horiz-adv-x="389" 
d="M179 541l78 181h73l-98 -181h-53zM327 541l78 181h73l-98 -181h-53z" />
    <glyph glyph-name="quotedblbase" unicode="&#x201e;" horiz-adv-x="389" 
d="M42 -105l78 181h73l-98 -181h-53zM190 -105l78 181h73l-98 -181h-53z" />
    <glyph glyph-name="dagger" unicode="&#x2020;" 
d="M358 501l-106 -501h-60l106 501h-141l11 48h141l36 173h60l-36 -173h141l-11 -48h-141z" />
    <glyph glyph-name="daggerdbl" unicode="&#x2021;" 
d="M405 722l-34 -163h141l-10 -48h-141l-64 -300h141l-10 -48h-141l-35 -163h-60l35 163h-141l10 48h141l64 300h-141l10 48h141l34 163h60z" />
    <glyph glyph-name="bullet" unicode="&#x2022;" horiz-adv-x="606" 
d="M560 360q-16 -73 -81.5 -126.5t-138.5 -53.5t-114.5 53.5t-25.5 126.5q16 74 80 127t137 53q74 0 116.5 -53t26.5 -127z" />
    <glyph glyph-name="ellipsis" unicode="&#x2026;" horiz-adv-x="1000" 
d="M130 0l16 76h74l-16 -76h-74zM463 0l16 76h74l-16 -76h-74zM796 0l16 76h74l-16 -76h-74z" />
    <glyph glyph-name="perthousand" unicode="&#x2030;" horiz-adv-x="889" 
d="M757 -11q-48 0 -71.5 24.5t-22 62.5t9.5 83q8 38 17.5 64t26.5 53t45 40.5t67 13.5q51 0 74 -25t20.5 -63t-10.5 -83q-8 -37 -18.5 -64t-28 -53t-45 -39.5t-64.5 -13.5zM767 37q23 0 40.5 11.5t28 33t15 37.5t9.5 38q27 125 -41 125t-95 -125q-5 -23 -6.5 -38.5t0 -37
t14 -33t35.5 -11.5zM450 -11q-48 0 -71.5 24.5t-22 62.5t9.5 83q8 38 17.5 64t26.5 53t45 40.5t67 13.5q51 0 74 -25t20.5 -63t-10.5 -83q-8 -37 -18.5 -64t-28 -53t-45 -39.5t-64.5 -13.5zM460 37q23 0 40.5 11.5t28 33t15 37.5t9.5 38q27 125 -41 125t-95 -125
q-5 -23 -6.5 -38.5t0 -37t14 -33t35.5 -11.5zM208 366q-48 0 -71.5 24.5t-22 62.5t9.5 83q8 38 17.5 64t26.5 53t45 40.5t67 13.5q51 0 74 -25t20.5 -63t-10.5 -83q-8 -37 -18.5 -64t-28 -53t-45 -39.5t-64.5 -13.5zM218 414q23 0 40.5 11.5t28 33.5t15.5 37t10 38
q5 24 6.5 40t0.5 38.5t-13.5 34.5t-35.5 12q-70 0 -94 -125q-27 -120 42 -120zM148 -41h-43l468 763h41z" />
    <glyph glyph-name="guilsinglleft" unicode="&#x2039;" horiz-adv-x="222" 
d="M146 90l-46 194l132 194h52l-120 -194l35 -194h-53z" />
    <glyph glyph-name="guilsinglright" unicode="&#x203a;" horiz-adv-x="222" 
d="M114 90h-53l117 194l-36 194h52l48 -194z" />
    <glyph glyph-name="fraction" unicode="&#x2044;" horiz-adv-x="167" 
d="M-169 -29l596 751h55l-595 -751h-56z" />
    <glyph glyph-name="Euro" unicode="&#x20ac;" 
d="M92 322h50l14 65h-62l24 54h52l14 65q42 201 216 201q90 0 121 -45.5t12 -132.5h-60q14 66 -5 94.5t-76 28.5q-56 0 -91.5 -32.5t-51.5 -106.5l-15 -72h201l-23 -54h-191l-14 -65h177l-23 -54h-164l-19 -90q-30 -137 87 -137q57 0 88 29t44 92h57q-37 -177 -203 -177
q-180 0 -138 192l19 91h-63z" />
    <glyph glyph-name="afii61289" unicode="&#x2113;" horiz-adv-x="397" 
d="M375 126l23 -24q-76 -108 -170 -108q-134 0 -95 194l3 15l-56 -45l-13 35q58 46 81 68l59 274q25 122 72.5 175.5t99.5 53.5q48 0 64.5 -41t1.5 -110q-35 -169 -244 -361l-8 -38q-36 -173 55 -173q62 0 127 85zM261 538l-47 -222q163 162 192 297q22 104 -37 104
q-29 0 -59 -43.5t-49 -135.5z" />
    <glyph glyph-name="trademark" unicode="&#x2122;" horiz-adv-x="722" 
d="M175 289l84 393h-109l8 40h270l-8 -40h-109l-84 -393h-52zM524 722l62 -354h2l209 354h68l-92 -433h-52l70 326h-2l-197 -326h-48l-61 326h-2l-70 -326h-52l92 433h73z" />
    <glyph glyph-name="Omega" unicode="&#x2126;" horiz-adv-x="572" 
d="M174 51v3q-37 55 -49.5 133.5t7.5 187.5q32 149 118 239t189 90t146.5 -92.5t13.5 -232.5q-22 -102 -72.5 -187.5t-108.5 -137.5v-3h122l-11 -51h-189l8 37q61 48 114.5 135.5t76.5 193.5q11 68 9 131.5t-34 109t-88 45.5q-80 0 -146 -81t-92 -206q-20 -108 -4.5 -196
t54.5 -132l-8 -37h-188l11 51h121z" />
    <glyph glyph-name="estimated" unicode="&#x212e;" horiz-adv-x="1017" 
d="M983 338h-647q-5 0 -5 -4v-196q0 -11 8 -22q103 -106 245 -106q76 0 142.5 32t114.5 87h58q-55 -64 -138.5 -101.5t-177.5 -37.5q-165 0 -282 105t-117 253q0 149 117 254.5t282 105.5q166 0 283 -105.5t117 -254.5v-10zM836 364v197q0 14 -10 23q-102 102 -242 102
q-141 0 -244 -105q-9 -9 -9 -25v-192q0 -6 5 -6h496q4 0 4 6z" />
    <glyph glyph-name="partialdiff" unicode="&#x2202;" horiz-adv-x="445" 
d="M230 681l-11 46q69 52 144 52q85 0 125 -92.5t1 -278.5q-42 -195 -120 -304.5t-179 -109.5q-73 0 -99.5 62.5t-6.5 161.5q24 113 92.5 184.5t139.5 71.5q47 0 75.5 -25.5t37.5 -55.5h1q2 5 5 19t4 19q27 131 -0.5 213.5t-91.5 82.5q-61 0 -117 -46zM206 45h1
q57 0 112.5 79.5t89.5 198.5q-4 40 -29 70t-68 30q-53 0 -103 -60t-68 -145q-16 -80 1 -126.5t64 -46.5z" />
    <glyph glyph-name="Delta" unicode="&#x2206;" horiz-adv-x="521" 
d="M28 0l9 42l344 669h63l58 -669l-9 -42h-465zM95 49h348l-35 400q-1 25 -7.5 88.5t-6.5 89.5h-4q-9 -25 -40.5 -85t-41.5 -82z" />
    <glyph glyph-name="product" unicode="&#x220f;" horiz-adv-x="712" 
d="M688 638h-85v-734h-57v734h-233v-734h-57v734h-85v55h517v-55z" />
    <glyph glyph-name="summation" unicode="&#x2211;" horiz-adv-x="600" 
d="M581 -96h-413v43l224 351l-214 353v42h387v-51h-310v-4l202 -331l-219 -341v-4h343v-58z" />
    <glyph glyph-name="minus" unicode="&#x2212;" 
d="M483 279l-11 -52h-404l11 52h404z" />
    <glyph glyph-name="uni2215" unicode="&#x2215;" horiz-adv-x="167" 
d="M-169 -29l596 751h55l-595 -751h-56z" />
    <glyph glyph-name="uni2219" unicode="&#x2219;" horiz-adv-x="222" 
d="M120 215l16 76h74l-16 -76h-74z" />
    <glyph glyph-name="radical" unicode="&#x221a;" horiz-adv-x="628" 
d="M622 824l-182 -975h-51l-136 468l-62 -23l-11 38l112 43l106 -363q13 -67 14 -77h2q5 40 10 73l155 816h43z" />
    <glyph glyph-name="infinity" unicode="&#x221e;" horiz-adv-x="763" 
d="M720 290v-1q0 -61 -39 -99.5t-93 -38.5q-40 0 -76 24.5t-84 79.5q-30 -33 -49 -51.5t-51 -35.5t-65 -17q-54 0 -92 39t-38 96q0 59 38 98t97 39q45 0 83.5 -27.5t79.5 -77.5q55 61 81 78q39 27 82 27q57 0 91.5 -37t34.5 -96zM268 190h1q14 0 28 5t24 10t25 18t20 18.5
l21.5 23t18.5 19.5q-29 35 -43 50.5t-42.5 33t-58.5 17.5q-40 0 -63.5 -29t-23.5 -71q0 -40 26 -67.5t67 -27.5zM590 385h-1q-17 0 -33.5 -6.5t-32.5 -19.5t-26 -23t-25.5 -27t-19.5 -21q50 -55 78 -76.5t61 -21.5q40 0 64 29t24 67q0 46 -25 72.5t-64 26.5z" />
    <glyph glyph-name="integral" unicode="&#x222b;" horiz-adv-x="456" 
d="M439 833l-11 -43q-14 9 -30 9q-25 0 -43 -25q-29 -40 -29 -178q0 -76 5.5 -251t5.5 -255q0 -140 -39 -202q-27 -45 -82 -45q-30 0 -51 14l12 45q21 -9 36 -9q25 0 40 25q28 42 28 172q0 81 -5 258t-5 253q0 152 44 207q31 37 79 37q27 0 45 -12z" />
    <glyph glyph-name="approxequal" unicode="&#x2248;" horiz-adv-x="554" 
d="M490 408l27 -20q-38 -86 -108 -86q-34 0 -97 37q-49 30 -79 30q-26 0 -44.5 -17t-37.5 -49l-27 20q18 40 48 62.5t66 22.5q15 0 31 -4.5t23.5 -8t24 -13.5t17.5 -10l16 -9.5t16 -9t14 -6t16.5 -5t15.5 -1.5q44 0 78 67zM490 263l27 -20q-38 -86 -108 -86q-35 0 -97 37
q-53 30 -78 30q-46 0 -83 -67l-27 20q38 86 114 86q15 0 31 -4.5t24 -8.5t23.5 -13t17.5 -10q3 -2 13 -8t13.5 -7.5t12 -5.5t13.5 -5.5t12.5 -3t14.5 -1.5q43 0 77 67z" />
    <glyph glyph-name="notequal" unicode="&#x2260;" horiz-adv-x="571" 
d="M434 470l-37 -85h130v-41h-146l-56 -126h202v-40h-218l-44 -99l-32 14l38 85h-125v40h141l56 126h-197v41h212l44 99z" />
    <glyph glyph-name="lessequal" unicode="&#x2264;" horiz-adv-x="585" 
d="M540 111l-374 202v42l374 202v-50l-330 -171v-2l330 -173v-50zM542 30h-380v43h380v-43z" />
    <glyph glyph-name="greaterequal" unicode="&#x2265;" horiz-adv-x="585" 
d="M167 557l374 -202v-42l-374 -202v50l330 172v2l-330 172v50zM542 30h-379v43h379v-43z" />
    <glyph glyph-name="lozenge" unicode="&#x25ca;" horiz-adv-x="629" 
d="M582 346l-169 -381h-49l-166 381l169 382h48zM527 345l-121 275q-9 26 -15 53h-3q-6 -29 -16 -53l-120 -272l121 -277q11 -27 15 -52h3q10 40 15 51z" />
    </font>
</defs>
</svg>
